<svg xmlns="http://www.w3.org/2000/svg" width="215.804" height="195.896" version="1.1" viewBox="-1 -36 57.098 51.831" style="stroke-linecap:round;stroke-linejoin:round;fill:none"><g><path d="M38.5453,0 L5,0 A5,5 0 0 0 0,5 L0,30 A5,5 0 0 0 5,35 L45,35 A5,5 0 0 0 50,30 L50,5 A5,5 0 0 0 45,0" transform="scale(1,-1)" style="stroke:#000;stroke-width:.2"/><path d="M45,0 A22.1492,22.1492 0 0,1 55.0981,-14.8309" transform="scale(1,-1)" style="stroke:#000;stroke-width:.2"/><path d="M55.0981,-14.8309 A23.47,23.47 0 0,0 38.5453,0" transform="scale(1,-1)" style="stroke:#000;stroke-width:.2"/></g></svg>