<svg xmlns="http://www.w3.org/2000/svg" width="215.804" height="195.896" version="1.1" viewBox="-6.098 -36 57.098 51.831" style="stroke-linecap:round;stroke-linejoin:round;fill:none"><g><path d="M11.4547,0 L45,0 A5,5 0 0 1 50,5 L50,30 A5,5 0 0 1 45,35 L5,35 A5,5 0 0 1 0,30 L0,5 A5,5 0 0 1 5,0" transform="scale(1,-1)" style="stroke:#000;stroke-width:.2"/><path d="M5,0 A22.1492,22.1492 0 0,0 -5.0981,-14.8309" transform="scale(1,-1)" style="stroke:#000;stroke-width:.2"/><path d="M-5.0981,-14.8309 A23.47,23.47 0 0,1 11.4547,0" transform="scale(1,-1)" style="stroke:#000;stroke-width:.2"/></g></svg>