<svg xmlns="http://www.w3.org/2000/svg" width="202.351" height="159.521" version="1.1" viewBox="-1.814 -43.381 53.539 42.206" style="stroke-linecap:round;stroke-linejoin:round;fill:none"><g><path d="M20.7988,37.4201 A10.7817,10.7817 0 0,1 5.729,25.6581" transform="scale(1,-1)" style="stroke:#000;stroke-width:.2"/><path d="M5.729,25.6581 A8.8229,8.8229 0 0,1 8.8845,8.3556" transform="scale(1,-1)" style="stroke:#000;stroke-width:.2"/><path d="M8.8845,8.3556 A8.0442,8.0442 0 0,1 23.8495,6.5119" transform="scale(1,-1)" style="stroke:#000;stroke-width:.2"/><path d="M23.8495,6.5119 A9.1688,9.1688 0 0,1 39.9186,10.9566" transform="scale(1,-1)" style="stroke:#000;stroke-width:.2"/><path d="M39.9186,10.9566 A8.3549,8.3549 0 1,1 44.7906,26.9402" transform="scale(1,-1)" style="stroke:#000;stroke-width:.2"/><path d="M44.7906,26.9402 A7.1418,7.1418 0 0,1 35.4739,35.744" transform="scale(1,-1)" style="stroke:#000;stroke-width:.2"/><path d="M35.4739,35.744 A7.606,7.606 0 0,1 20.7988,37.4201" transform="scale(1,-1)" style="stroke:#000;stroke-width:.2"/></g></svg>