<svg xmlns="http://www.w3.org/2000/svg" width="111.233" height="178.305" version="1.1" viewBox="-24.163 -23.601 29.43 47.176" style="stroke-linecap:round;stroke-linejoin:round;fill:none"><g><path d="M-4.68,-5.3574 A7.8363,7.8363 0 0,1 -5.3783,-6.6705" transform="scale(1,-1)" style="stroke:#000;stroke-width:.25"/><path d="M-5.3783,-6.6705 A12.8651,12.8651 0 0,1 -6.315,-11.4895" transform="scale(1,-1)" style="stroke:#000;stroke-width:.25"/><path d="M-6.315,-11.4895 A12.8651,12.8651 0 0,1 -5.3783,-16.3084" transform="scale(1,-1)" style="stroke:#000;stroke-width:.25"/><path d="M-5.3783,-16.3084 A7.8363,7.8363 0 0,1 -4.68,-17.6216" transform="scale(1,-1)" style="stroke:#000;stroke-width:.25"/><path d="M-4.68,-17.6216 A6.3501,6.3501 0 0,1 -4.1071,-18.3836" transform="scale(1,-1)" style="stroke:#000;stroke-width:.25"/><path d="M-4.1071,-18.3836 A5.3505,5.3505 0 0,1 -3.6033,-18.8966" transform="scale(1,-1)" style="stroke:#000;stroke-width:.25"/><path d="M-3.6033,-18.8966 A4.6243,4.6243 0 0,1 -3.132,-19.2706" transform="scale(1,-1)" style="stroke:#000;stroke-width:.25"/><path d="M-3.132,-19.2706 A4.0673,4.0673 0 0,1 -2.6592,-19.5578" transform="scale(1,-1)" style="stroke:#000;stroke-width:.25"/><path d="M-2.6592,-19.5578 A3.5688,3.5688 0 0,1 -2.1281,-19.7866" transform="scale(1,-1)" style="stroke:#000;stroke-width:.25"/><path d="M-2.1281,-19.7866 A3.3592,3.3592 0 0,1 -1.0298,-19.9739" transform="scale(1,-1)" style="stroke:#000;stroke-width:.25"/><path d="M-14.2163,5.3835 A7.8363,7.8363 0 0,1 -13.5179,6.6967" transform="scale(1,-1)" style="stroke:#000;stroke-width:.25"/><path d="M-13.5179,6.6967 A12.8651,12.8651 0 0,1 -12.5813,11.5156" transform="scale(1,-1)" style="stroke:#000;stroke-width:.25"/><path d="M-12.5813,11.5156 A12.8651,12.8651 0 0,1 -13.5179,16.3346" transform="scale(1,-1)" style="stroke:#000;stroke-width:.25"/><path d="M-13.5179,16.3346 A7.8363,7.8363 0 0,1 -14.2163,17.6477" transform="scale(1,-1)" style="stroke:#000;stroke-width:.25"/><path d="M-14.2163,17.6477 A6.3501,6.3501 0 0,1 -14.7892,18.4098" transform="scale(1,-1)" style="stroke:#000;stroke-width:.25"/><path d="M-14.7892,18.4098 A5.3505,5.3505 0 0,1 -15.293,18.9227" transform="scale(1,-1)" style="stroke:#000;stroke-width:.25"/><path d="M-15.293,18.9227 A4.6243,4.6243 0 0,1 -15.7643,19.2967" transform="scale(1,-1)" style="stroke:#000;stroke-width:.25"/><path d="M-15.7643,19.2967 A4.0673,4.0673 0 0,1 -16.237,19.5839" transform="scale(1,-1)" style="stroke:#000;stroke-width:.25"/><path d="M-16.237,19.5839 A3.5688,3.5688 0 0,1 -16.7682,19.8127" transform="scale(1,-1)" style="stroke:#000;stroke-width:.25"/><path d="M-16.7682,19.8127 A3.3592,3.3592 0 0,1 -17.8743,20" transform="scale(1,-1)" style="stroke:#000;stroke-width:.25"/><path d="M2.5532,5.2367 A6.3498,6.3498 0 0,1 2.6342,5.3583" transform="scale(1,-1)" style="stroke:#000;stroke-width:.25"/><path d="M2.6342,5.3583 A7.8363,7.8363 0 0,1 3.332,6.6716" transform="scale(1,-1)" style="stroke:#000;stroke-width:.25"/><path d="M3.332,6.6716 A12.8651,12.8651 0 0,1 4.267,11.4909" transform="scale(1,-1)" style="stroke:#000;stroke-width:.25"/><path d="M4.267,11.4909 A12.8651,12.8651 0 0,1 3.3288,16.3096" transform="scale(1,-1)" style="stroke:#000;stroke-width:.25"/><path d="M3.3288,16.3096 A7.8363,7.8363 0 0,1 2.63,17.6225" transform="scale(1,-1)" style="stroke:#000;stroke-width:.25"/><path d="M2.63,17.6225 A6.3501,6.3501 0 0,1 2.0568,18.3843" transform="scale(1,-1)" style="stroke:#000;stroke-width:.25"/><path d="M2.0568,18.3843 A5.3505,5.3505 0 0,1 1.5528,18.8971" transform="scale(1,-1)" style="stroke:#000;stroke-width:.25"/><path d="M1.5528,18.8971 A4.6243,4.6243 0 0,1 1.0815,19.2709" transform="scale(1,-1)" style="stroke:#000;stroke-width:.25"/><path d="M1.0815,19.2709 A4.0673,4.0673 0 0,1 0.6086,19.558" transform="scale(1,-1)" style="stroke:#000;stroke-width:.25"/><path d="M0.6086,19.558 A3.5688,3.5688 0 0,1 0.0774,19.7866" transform="scale(1,-1)" style="stroke:#000;stroke-width:.25"/><path d="M0.0774,19.7866 A3.3592,3.3592 0 0,1 -1.0288,19.9735" transform="scale(1,-1)" style="stroke:#000;stroke-width:.25"/><path d="M-1.0298,19.9735 A3.3592,3.3592 0 0,1 -2.1348,19.7858" transform="scale(1,-1)" style="stroke:#000;stroke-width:.25"/><path d="M-2.1348,19.7858 A3.5688,3.5688 0 0,1 -2.6658,19.5569" transform="scale(1,-1)" style="stroke:#000;stroke-width:.25"/><path d="M-2.6658,19.5569 A4.0673,4.0673 0 0,1 -3.1385,19.2695" transform="scale(1,-1)" style="stroke:#000;stroke-width:.25"/><path d="M-3.1385,19.2695 A4.6243,4.6243 0 0,1 -3.6096,18.8954" transform="scale(1,-1)" style="stroke:#000;stroke-width:.25"/><path d="M-3.6096,18.8954 A5.3505,5.3505 0 0,1 -4.1133,18.3822" transform="scale(1,-1)" style="stroke:#000;stroke-width:.25"/><path d="M-4.1133,18.3822 A6.3501,6.3501 0 0,1 -4.686,17.62" transform="scale(1,-1)" style="stroke:#000;stroke-width:.25"/><path d="M-4.686,17.62 A7.8363,7.8363 0 0,1 -5.3838,16.3066" transform="scale(1,-1)" style="stroke:#000;stroke-width:.25"/><path d="M-5.3838,16.3066 A12.8651,12.8651 0 0,1 -6.3188,11.4874" transform="scale(1,-1)" style="stroke:#000;stroke-width:.25"/><path d="M-6.3188,11.4874 A12.8651,12.8651 0 0,1 -5.3806,6.6687" transform="scale(1,-1)" style="stroke:#000;stroke-width:.25"/><path d="M-5.3806,6.6687 A7.8363,7.8363 0 0,1 -4.6818,5.3558" transform="scale(1,-1)" style="stroke:#000;stroke-width:.25"/><path d="M-4.6818,5.3558 A6.3494,6.3494 0 0,1 -4.3942,4.9462" transform="scale(1,-1)" style="stroke:#000;stroke-width:.25"/><path d="M-21.4495,-5.2106 A6.3498,6.3498 0 0,1 -21.5305,-5.3322" transform="scale(1,-1)" style="stroke:#000;stroke-width:.25"/><path d="M-21.5305,-5.3322 A7.8363,7.8363 0 0,1 -22.2283,-6.6455" transform="scale(1,-1)" style="stroke:#000;stroke-width:.25"/><path d="M-22.2283,-6.6455 A12.8651,12.8651 0 0,1 -23.1633,-11.4648" transform="scale(1,-1)" style="stroke:#000;stroke-width:.25"/><path d="M-23.1633,-11.4648 A12.8651,12.8651 0 0,1 -22.2251,-16.2834" transform="scale(1,-1)" style="stroke:#000;stroke-width:.25"/><path d="M-22.2251,-16.2834 A7.8363,7.8363 0 0,1 -21.5263,-17.5963" transform="scale(1,-1)" style="stroke:#000;stroke-width:.25"/><path d="M-21.5263,-17.5963 A6.3501,6.3501 0 0,1 -20.9531,-18.3582" transform="scale(1,-1)" style="stroke:#000;stroke-width:.25"/><path d="M-20.9531,-18.3582 A5.3505,5.3505 0 0,1 -20.4491,-18.871" transform="scale(1,-1)" style="stroke:#000;stroke-width:.25"/><path d="M-20.4491,-18.871 A4.6243,4.6243 0 0,1 -19.9777,-19.2448" transform="scale(1,-1)" style="stroke:#000;stroke-width:.25"/><path d="M-19.9777,-19.2448 A4.0673,4.0673 0 0,1 -19.5049,-19.5319" transform="scale(1,-1)" style="stroke:#000;stroke-width:.25"/><path d="M-19.5049,-19.5319 A3.5688,3.5688 0 0,1 -18.9737,-19.7604" transform="scale(1,-1)" style="stroke:#000;stroke-width:.25"/><path d="M-18.9737,-19.7604 A3.3592,3.3592 0 0,1 -17.8675,-19.9474" transform="scale(1,-1)" style="stroke:#000;stroke-width:.25"/><path d="M-17.8743,-19.9474 A3.3592,3.3592 0 0,1 -16.7615,-19.7597" transform="scale(1,-1)" style="stroke:#000;stroke-width:.25"/><path d="M-16.7615,-19.7597 A3.5688,3.5688 0 0,1 -16.2305,-19.5308" transform="scale(1,-1)" style="stroke:#000;stroke-width:.25"/><path d="M-16.2305,-19.5308 A4.0673,4.0673 0 0,1 -15.7578,-19.2434" transform="scale(1,-1)" style="stroke:#000;stroke-width:.25"/><path d="M-15.7578,-19.2434 A4.6243,4.6243 0 0,1 -15.2867,-18.8692" transform="scale(1,-1)" style="stroke:#000;stroke-width:.25"/><path d="M-15.2867,-18.8692 A5.3505,5.3505 0 0,1 -14.783,-18.3561" transform="scale(1,-1)" style="stroke:#000;stroke-width:.25"/><path d="M-14.783,-18.3561 A6.3501,6.3501 0 0,1 -14.2103,-17.5939" transform="scale(1,-1)" style="stroke:#000;stroke-width:.25"/><path d="M-14.2103,-17.5939 A7.8363,7.8363 0 0,1 -13.5125,-16.2805" transform="scale(1,-1)" style="stroke:#000;stroke-width:.25"/><path d="M-13.5125,-16.2805 A12.8651,12.8651 0 0,1 -12.5774,-11.4612" transform="scale(1,-1)" style="stroke:#000;stroke-width:.25"/><path d="M-12.5774,-11.4612 A12.8651,12.8651 0 0,1 -13.5157,-6.6426" transform="scale(1,-1)" style="stroke:#000;stroke-width:.25"/><path d="M-13.5157,-6.6426 A7.8363,7.8363 0 0,1 -14.2144,-5.3297" transform="scale(1,-1)" style="stroke:#000;stroke-width:.25"/><path d="M-14.2144,-5.3297 A6.3494,6.3494 0 0,1 -14.5021,-4.92" transform="scale(1,-1)" style="stroke:#000;stroke-width:.25"/><path d="M-4.68,-5.3574 L-0.8481,0.255" transform="scale(1,-1)" style="stroke:#000;stroke-width:.25"/><path d="M-14.2163,5.3835 L-18.0482,-0.2289" transform="scale(1,-1)" style="stroke:#000;stroke-width:.25"/><path d="M-0.8481,0.255 L-4.3942,4.9462" transform="scale(1,-1)" style="stroke:#000;stroke-width:.25"/><path d="M-18.0482,-0.2289 L-14.5021,-4.92" transform="scale(1,-1)" style="stroke:#000;stroke-width:.25"/><path d="M-21.5305,-5.3322 L-18.0482,-0.2289" transform="scale(1,-1)" style="stroke:#000;stroke-width:.25"/><path d="M2.6342,5.3583 L-0.8481,0.255" transform="scale(1,-1)" style="stroke:#000;stroke-width:.25"/><path d="M-5.0104,-5.1319 L-1.3405,0.2432 L-5.0168,5.1371 A11.2506,11.2506 0 0 0 -6.7188,11.4872 A12.4583,12.4583 0 0 0 -5.0214,17.838 A4.96991,4.96991 0 0 0 -1.0298,20.3735 L-1.0298,22.6013 L-17.8743,22.6013 L-17.8743,20.4 A4.21561,4.21561 0 0 0 -15.0258,19.2204 A10.3076,10.3076 0 0 0 -12.1813,11.5156 A12.2073,12.2073 0 0 0 -13.8825,5.1631 L-17.5558,-0.217 L-13.8795,-5.111 A8.23634,8.23634 0 0 0 -13.1464,-6.489 A13.265,13.265 0 0 0 -13.1415,-16.4302 A6.82923,6.82923 0 0 0 -16.6297,-20.1374 A3.75918,3.75918 0 0 0 -17.8743,-20.3474 L-17.8743,-22.5752 L-1.0298,-22.5752 L-1.0298,-20.3739 A3.75918,3.75918 0 0 0 -2.2598,-20.1642 A6.28086,6.28086 0 0 0 -5.7492,-16.4583 A13.3945,13.3945 0 0 0 -5.0104,-5.1319" transform="scale(1,-1)" style="fill:#fefefe;fill-rule:evenodd"/></g></svg>