<svg xmlns="http://www.w3.org/2000/svg" width="34.179" height="36.8mm" version="1.1" viewBox="-3.022 -18.068 9.043 36.8" style="stroke-linecap:round;stroke-linejoin:round;fill:none"><g><path d="M0,2.7571 L0,17.0678" transform="scale(1,-1)" style="stroke:#000;stroke-width:.2"/><path d="M0,-17.7322 L0,-3.6429" transform="scale(1,-1)" style="stroke:#000;stroke-width:.2"/><path d="M3,3.2 L3,17.0678" transform="scale(1,-1)" style="stroke:#000;stroke-width:.2"/><path d="M3,-17.7322 L3,-3.2" transform="scale(1,-1)" style="stroke:#000;stroke-width:.2"/><path d="M0,-3.6429 L2.0216,-2.4757" transform="scale(1,-1)" style="stroke:#000;stroke-width:.2"/><path d="M-2.0216,1.5899 L0,2.7571" transform="scale(1,-1)" style="stroke:#000;stroke-width:.2"/><path d="M3,-3.2 L5.0216,-2.0328" transform="scale(1,-1)" style="stroke:#000;stroke-width:.2"/><path d="M0.9784,2.0328 L3,3.2" transform="scale(1,-1)" style="stroke:#000;stroke-width:.2"/><path d="M-2.0216,1.5899 L2.0216,-2.4757" transform="scale(1,-1)" style="stroke:#000;stroke-width:.2"/><path d="M0.9784,2.0328 L5.0216,-2.0328" transform="scale(1,-1)" style="stroke:#000;stroke-width:.2"/><path d="M0.15,16.9178 L2.85,16.9178 L2.85,3.2866 L0.7346,2.0653 L4.7778,-2.0004 L2.85,-3.1134 L2.85,-17.5822 L0.15,-17.5822 L0.15,-3.7295 L2.2654,-2.5082 L-1.7778,1.5575 L0.15,2.6705 Z" transform="scale(1,-1)" style="fill:#fefefe;fill-rule:evenodd"/></g></svg>