<svg xmlns="http://www.w3.org/2000/svg" width="53.077" height="122mm" version="1.1" viewBox="-3.022 -61 14.043 122" style="stroke-linecap:round;stroke-linejoin:round;fill:none"><g><path d="M0,-60 L0,-3.6429" transform="scale(1,-1)" style="stroke:#000;stroke-width:.25"/><path d="M0,2.7571 L0,60" transform="scale(1,-1)" style="stroke:#000;stroke-width:.25"/><path d="M8,3.2 L8,60" transform="scale(1,-1)" style="stroke:#000;stroke-width:.25"/><path d="M8,-60 L8,-3.2" transform="scale(1,-1)" style="stroke:#000;stroke-width:.25"/><path d="M0,-3.6429 L2.0216,-2.4757" transform="scale(1,-1)" style="stroke:#000;stroke-width:.25"/><path d="M-2.0216,1.5899 L0,2.7571" transform="scale(1,-1)" style="stroke:#000;stroke-width:.25"/><path d="M8,-3.2 L10.0216,-2.0328" transform="scale(1,-1)" style="stroke:#000;stroke-width:.25"/><path d="M5.9784,2.0328 L8,3.2" transform="scale(1,-1)" style="stroke:#000;stroke-width:.25"/><path d="M-2.0216,1.5899 L2.0216,-2.4757" transform="scale(1,-1)" style="stroke:#000;stroke-width:.25"/><path d="M5.9784,2.0328 L10.0216,-2.0328" transform="scale(1,-1)" style="stroke:#000;stroke-width:.25"/><path d="M0.15,59.85 L7.85,59.85 L7.85,3.2866 L5.7346,2.0653 L9.7778,-2.0004 L7.85,-3.1134 L7.85,-59.85 L0.15,-59.85 L0.15,-3.7295 L2.2654,-2.5082 L-1.7778,1.5575 L0.15,2.6705 Z" transform="scale(1,-1)" style="fill:#fefefe;fill-rule:evenodd"/></g></svg>