<svg xmlns="http://www.w3.org/2000/svg" width="37.959" height="65.2mm" version="1.1" viewBox="-3.022 -32.379 10.043 65.2" style="stroke-linecap:round;stroke-linejoin:round;fill:none"><g><path d="M0,2.7571 L0,31.3786" transform="scale(1,-1)" style="stroke:#000;stroke-width:.25"/><path d="M0,-31.8214 L0,-3.6429" transform="scale(1,-1)" style="stroke:#000;stroke-width:.25"/><path d="M4,3.2 L4,31.3786" transform="scale(1,-1)" style="stroke:#000;stroke-width:.25"/><path d="M4,-31.8214 L4,-3.2" transform="scale(1,-1)" style="stroke:#000;stroke-width:.25"/><path d="M0,-3.6429 L2.0216,-2.4757" transform="scale(1,-1)" style="stroke:#000;stroke-width:.25"/><path d="M-2.0216,1.5899 L0,2.7571" transform="scale(1,-1)" style="stroke:#000;stroke-width:.25"/><path d="M4,-3.2 L6.0216,-2.0328" transform="scale(1,-1)" style="stroke:#000;stroke-width:.25"/><path d="M1.9784,2.0328 L4,3.2" transform="scale(1,-1)" style="stroke:#000;stroke-width:.25"/><path d="M-2.0216,1.5899 L2.0216,-2.4757" transform="scale(1,-1)" style="stroke:#000;stroke-width:.25"/><path d="M1.9784,2.0328 L6.0216,-2.0328" transform="scale(1,-1)" style="stroke:#000;stroke-width:.25"/><path d="M0.15,-3.7295 L2.2654,-2.5082 L-1.7778,1.5575 L0.15,2.6705 L0.15,31.2286 L3.85,31.2286 L3.85,3.2866 L1.7346,2.0653 L5.7778,-2.0004 L3.85,-3.1134 L3.85,-31.6714 L0.15,-31.6714 Z" transform="scale(1,-1)" style="fill:#fefefe;fill-rule:evenodd"/></g></svg>