<svg xmlns="http://www.w3.org/2000/svg" width="87.187" height="91.61" version="1.1" viewBox="-15.668 -23.238 23.068 24.238" style="stroke-linecap:round;stroke-linejoin:round;fill:none"><g><path d="M0,0 L6.4,0" transform="scale(1,-1)" style="stroke:#000;stroke-width:.2"/><path d="M6.4,0 L3.2,5.5426" transform="scale(1,-1)" style="stroke:#000;stroke-width:.2"/><path d="M3.2,5.5426 L0,0" transform="scale(1,-1)" style="stroke:#000;stroke-width:.2"/><path d="M3.2,5.5426 L3.2,18.3703" transform="scale(1,-1)" style="stroke:#000;stroke-width:.2"/><path d="M-6.9319,22.2384 L-14.6681,22.2384" transform="scale(1,-1)" style="stroke:#000;stroke-width:.2"/><path d="M-14.6681,22.2384 L-14.6681,14.5022" transform="scale(1,-1)" style="stroke:#000;stroke-width:.2"/><path d="M-14.6681,14.5022 L-6.9319,14.5022" transform="scale(1,-1)" style="stroke:#000;stroke-width:.2"/><path d="M-6.9319,14.5022 L-6.9319,22.2384" transform="scale(1,-1)" style="stroke:#000;stroke-width:.2"/><path d="M3.2,5.5426 L0,0 L6.4,0 Z" transform="scale(1,-1)" style="fill:#000;fill-rule:evenodd"/><path d="M-6.9319,18.3703 L3.2,18.3703" transform="scale(1,-1)" style="stroke:#000;stroke-width:.2"/></g></svg>