<svg xmlns="http://www.w3.org/2000/svg" xmlns:svg="http://www.w3.org/2000/svg" id="svg1739" width="64" height="64" version="1.1"><defs id="defs1685"><linearGradient id="linearGradient3367" x1="-11" x2="-18" y1="26" y2="14" gradientTransform="translate(-20 -6)" gradientUnits="userSpaceOnUse" spreadMethod="reflect"><stop id="stop1675" offset="0" stop-color="#c4a000"/><stop id="stop1677" offset="1" stop-color="#fce94f"/></linearGradient><linearGradient id="linearGradient3369" x1="32.558" x2="26.302" y1="32.918" y2="12.207" gradientTransform="translate(10.413 -18.142)" gradientUnits="userSpaceOnUse"><stop id="stop1680" offset="0" stop-color="#edd400"/><stop id="stop1682" offset="1" stop-color="#fce94f"/></linearGradient></defs><metadata id="metadata1687"/><g id="g1737" transform="translate(87.958,2.1036)"><g id="g1701" stroke-width="2"><path id="path1689" fill="#edd400" stroke="#302b00" stroke-linejoin="round" d="m-69.198 25.198 16.221-10.644c11.343-4.6433 24.729 13.209 12.401 22.256l-15.696 9.8408z" color="#000"/><path id="path1691" fill="url(#linearGradient3367)" stroke="#fce94f" stroke-linejoin="round" d="m-70.279 28.105 15.947-10.448c10.365-7.6968 23.946 10.626 12.01 17.872l-15.696 9.8408z" color="#000"/><g id="g1699" fill="none" stroke="#302b00"><path id="path1693" d="m-59.9 18.9c12-1 18.571 11 14.571 21" color="#000"/><path id="path1695" d="m-60.7 25.9 17-11" color="#000"/><path id="path1697" d="m-52.7 34.9 17-11" color="#000"/></g></g><g id="g1707" stroke-linecap="round" stroke-linejoin="round" color="#000" transform="matrix(.92148 .21648 -.046568 .97753 -75.828 17.995)"><path id="path1703" fill="#ef2929" stroke="#000" stroke-width="2.096" d="m44 22c0 6.6274-5.3726 12-12 12s-12-5.3726-12-12 5.3726-12 12-12 12 5.3726 12 12z" transform="translate(-17,-7)"/><path id="path1705" fill="url(#linearGradient3369)" stroke="#fae94f" stroke-width="2.515" d="m44 22c0 6.6274-5.3726 12-12 12s-12-5.3726-12-12 5.3726-12 12-12 12 5.3726 12 12z" transform="matrix(.83333 0 0 .83333 -11.667 -3.3333)"/></g><g id="g1735" fill="none"><g id="g1713" color="#000" transform="matrix(.92148 .21648 -.046568 .97753 -75.896 17.973)"><path id="path1709" stroke-width="1" d="m44 22c0 6.6274-5.3726 12-12 12s-12-5.3726-12-12 5.3726-12 12-12 12 5.3726 12 12z" transform="translate(-17,-7)"/><path id="path1711" stroke-width="1.2" d="m44 22c0 6.6274-5.3726 12-12 12s-12-5.3726-12-12 5.3726-12 12-12 12 5.3726 12 12z" transform="matrix(.83333 0 0 .83333 -11.667 -3.3333)"/></g><g id="g1723" stroke="#000" stroke-width="2"><path id="path1715" d="m-59.7 24.9v23" color="#000"/><path id="path1717" d="m-66.7 24.9v21" color="#000"/><path id="path1719" d="m-72.7 28.9 21 7" color="#000"/><path id="path1721" d="m-73.7 35.9 21 7" color="#000"/></g><g id="g1733" fill="none" stroke-linecap="round"><path id="path1729" fill="none" stroke="#000" stroke-linecap="round" stroke-width="7" d="m -47.212954,52.44643 c 0,0 -6.315046,4.35217 -12.548046,4.25917 -10.517,-0.157 -18.194,-6.7834 -21.485,-16.773 -2.5664,-7.7898 0.33383,-18.519 6.7154,-23.671 4.9087,-3.9629 9.4238,-4.8603 9.4238,-4.8603" style="stroke:#230b0b;stroke-opacity:1"/><path id="path1731" fill="none" stroke="red" stroke-linecap="round" stroke-width="3.999" d="m -47.212954,52.44643 c 0,0 -6.315046,4.35217 -12.548046,4.25917 -10.517,-0.157 -18.194,-6.7834 -21.485,-16.773 -2.5664,-7.7898 0.33383,-18.519 6.7154,-23.671 4.9087,-3.9629 9.4238,-4.8603 9.4238,-4.8603"/><path id="path1" d="M -63.587346,18.182513 -65.725708,4.0540294 -48.221792,7.9881495 Z" style="fill:#ef2929;stroke:#230b0b;stroke-width:2;stroke-linejoin:round"/></g></g></g></svg>