<svg xmlns="http://www.w3.org/2000/svg" xmlns:svg="http://www.w3.org/2000/svg" xmlns:xlink="http://www.w3.org/1999/xlink" id="svg2980" width="64" height="64" version="1.1"><defs id="defs2982"><linearGradient id="linearGradient3765"><stop style="stop-color:#d3d7cf;stop-opacity:1" id="stop3767" offset="0"/><stop style="stop-color:#fff;stop-opacity:1" id="stop3769" offset="1"/></linearGradient><linearGradient id="linearGradient3864"><stop id="stop3866" offset="0" style="stop-color:#71b2f8;stop-opacity:1"/><stop id="stop3868" offset="1" style="stop-color:#002795;stop-opacity:1"/></linearGradient><linearGradient id="linearGradient3771" x1="35" x2="31" y1="51" y2="18" gradientUnits="userSpaceOnUse" xlink:href="#linearGradient3765"/><linearGradient id="linearGradient3000" x1="35" x2="31" y1="51" y2="18" gradientUnits="userSpaceOnUse" xlink:href="#linearGradient3765"/></defs><metadata id="metadata2985"/><g id="layer1"><path style="fill:none;stroke:#204a87;stroke-width:4.33333;stroke-linecap:round;stroke-linejoin:round;stroke-miterlimit:4;stroke-dasharray:4.33333,8.66667;stroke-dashoffset:4.33333;stroke-opacity:1" id="rect3002" d="M 20,20 H 59 V 59 H 20 Z"/><path style="fill:none;stroke:#729fcf;stroke-width:1.44444;stroke-linecap:round;stroke-linejoin:round;stroke-miterlimit:4;stroke-dasharray:4.33333,8.66667;stroke-dashoffset:4.33333;stroke-opacity:1" id="rect3002-3" d="M 20,20 H 59 V 59 H 20 Z"/><g id="g2996" transform="matrix(-0.72222222,0,0,0.72222222,62.611111,16.388889)"><path id="path3761" d="M 7,49 15,57 35,37 41,49 57,7 15,23 27,29 Z" style="fill:url(#linearGradient3000);fill-opacity:1;stroke:#2e3436;stroke-width:2;stroke-linecap:butt;stroke-linejoin:round;stroke-miterlimit:4;stroke-dasharray:none;stroke-opacity:1"/><path id="path3763" d="M 9.8181818,49 30.363636,28.363636 20,23.272727 53.545455,10.454545 40.727273,44 35.636364,33.636364 15,54.181818 Z" style="fill:none;stroke:#fff;stroke-width:2;stroke-linecap:butt;stroke-linejoin:miter;stroke-miterlimit:4;stroke-dasharray:none;stroke-opacity:1"/></g><rect style="fill:#c8c8c8;fill-opacity:1;stroke:none;stroke-width:1;stroke-opacity:1" id="rect12275" width="2" height="26" x="12" y="0"/><rect style="fill:#c8c8c8;fill-opacity:1;stroke:none;stroke-width:1;stroke-opacity:1" id="rect12379" width="26" height="2" x="0" y="12"/></g></svg>