<svg xmlns="http://www.w3.org/2000/svg" xmlns:svg="http://www.w3.org/2000/svg" xmlns:xlink="http://www.w3.org/1999/xlink" style="enable-background:new 0 0 113 113" id="svg2" x="0" y="0" version="1.1" viewBox="0 0 113 113" xml:space="preserve"><style type="text/css"/><linearGradient id="path1948_00000170251524934803191530000002315116568552905148_" x1="280.948" x2="389.965" y1="-334.136" y2="-427.93" gradientTransform="matrix(0.5625 0 0 -0.568 -160.4375 -186.5795)" gradientUnits="userSpaceOnUse"><stop style="stop-color:#5a9fd4" offset="0"/><stop style="stop-color:#306998" offset="1"/></linearGradient><path style="fill:url(#path1948_00000170251524934803191530000002315116568552905148_)" id="path1948" d="M55.3,0	c-4.6,0-9,0.4-12.8,1.1C31.1,3.1,29,7.3,29,15v10.2h26.8v3.4H29H19c-7.8,0-14.6,4.7-16.8,13.6c-2.5,10.2-2.6,16.6,0,27.2	c1.9,7.9,6.5,13.6,14.2,13.6h9.2V70.8c0-8.8,7.7-16.7,16.8-16.7h26.8c7.5,0,13.4-6.1,13.4-13.6V15c0-7.3-6.1-12.7-13.4-13.9	C64.6,0.3,59.8,0,55.3,0z M40.8,8.2c2.8,0,5,2.3,5,5.1c0,2.8-2.3,5.1-5,5.1c-2.8,0-5-2.3-5-5.1C35.7,10.5,38,8.2,40.8,8.2z"/><linearGradient id="path1950_00000173141890808856555460000015931308003617822606_" x1="432.111" x2="393.181" y1="-484.698" y2="-429.619" gradientTransform="matrix(0.5625 0 0 -0.568 -160.4375 -186.5795)" gradientUnits="userSpaceOnUse"><stop style="stop-color:#ffd43b" offset="0"/><stop style="stop-color:#ffe873" offset="1"/></linearGradient><path style="fill:url(#path1950_00000173141890808856555460000015931308003617822606_)" id="path1950" d="M86,28.7v11.9	c0,9.2-7.8,17-16.8,17H42.4c-7.3,0-13.4,6.3-13.4,13.6v25.5c0,7.3,6.3,11.5,13.4,13.6c8.5,2.5,16.6,2.9,26.8,0	c6.8-2,13.4-5.9,13.4-13.6V86.5H55.8v-3.4h26.8H96c7.8,0,10.7-5.4,13.4-13.6c2.8-8.4,2.7-16.5,0-27.2c-1.9-7.8-5.6-13.6-13.4-13.6	L86,28.7z M70.9,93.3c2.8,0,5,2.3,5,5.1c0,2.8-2.3,5.1-5,5.1c-2.8,0-5-2.3-5-5.1C65.9,95.6,68.1,93.3,70.9,93.3z"/></svg>