<svg xmlns="http://www.w3.org/2000/svg" xmlns:svg="http://www.w3.org/2000/svg" xmlns:xlink="http://www.w3.org/1999/xlink" id="svg6248" width="64" height="64" version="1.1"><title id="title856">Std_ViewTrimetric</title><defs id="defs6250"><linearGradient id="linearGradient3253"><stop id="stop3255" offset="0" style="stop-color:#89d5f8;stop-opacity:1"/><stop id="stop3257" offset="1" style="stop-color:#00899e;stop-opacity:1"/></linearGradient><linearGradient id="linearGradient6816"><stop id="stop6818" offset="0" style="stop-color:#000;stop-opacity:1"/><stop id="stop6820" offset="1" style="stop-color:#000;stop-opacity:0"/></linearGradient><linearGradient id="linearGradient6781"><stop id="stop6783" offset="0" style="stop-color:#fff;stop-opacity:1"/><stop id="stop6785" offset="1" style="stop-color:#3465a4;stop-opacity:0"/></linearGradient><radialGradient id="radialGradient6822" cx="33.37" cy="51.929" r="25.199" fx="33.37" fy="51.929" gradientTransform="matrix(1.1581633,0,0,0.6558985,-7.29237,16.126077)" gradientUnits="userSpaceOnUse" xlink:href="#linearGradient6816"/><radialGradient id="radialGradient3259" cx="18.418" cy="17.014" r="27.987" fx="18.418" fy="17.014" gradientTransform="matrix(0.9724373,-0.105657,5.0523169e-2,0.4650009,-0.3519546,9.5854384)" gradientUnits="userSpaceOnUse" xlink:href="#linearGradient3253"/><radialGradient id="radialGradient3270" cx="18.418" cy="17.014" r="27.987" fx="18.418" fy="17.014" gradientTransform="matrix(0.9724373,-0.105657,0.05052317,0.4650009,-0.3519546,9.5854384)" gradientUnits="userSpaceOnUse" xlink:href="#linearGradient3253"/></defs><metadata id="metadata6253"/><g id="layer1"><path id="path858" d="M 5,17 32,5 59,17 V 47 L 32,59 5,47 Z" style="fill:none;stroke:#042a2a;stroke-width:6;stroke-linecap:butt;stroke-linejoin:round;stroke-miterlimit:4;stroke-dasharray:none;stroke-opacity:1"/><path style="fill:none;stroke:#34e0e2;stroke-width:2;stroke-linecap:butt;stroke-linejoin:round;stroke-miterlimit:4;stroke-dasharray:none;stroke-opacity:1" id="path858-8" d="M 5,17 32,5 59,17 V 47 L 32,59 5,47 Z"/><g style="font-size:37.3333px;line-height:1.25;font-family:sans-serif;-inkscape-font-specification:sans-serif;letter-spacing:0;word-spacing:0;fill:#34e0e2;stroke:#042a2a;stroke-width:2.274;stroke-linejoin:round;stroke-miterlimit:4;stroke-dasharray:none" id="text877" aria-label="T"><path id="path850" d="m 22.229531,19.882719 h 19.723942 v 6.343745 h -1.786457 q -0.401041,-1.567707 -0.802083,-2.479165 -0.382812,-0.911457 -0.820312,-1.385415 -0.437499,-0.473958 -0.947915,-0.674479 -0.492187,-0.20052 -1.494791,-0.20052 h -2.315102 v 18.66665 q 0,1.07552 0.109375,1.713541 0.127604,0.63802 0.364583,1.020832 0.255208,0.364583 0.674479,0.583333 0.41927,0.20052 1.312498,0.401041 v 0.893229 h -8.330722 v -0.893229 q 0.546875,-0.127604 0.966145,-0.273437 0.419271,-0.145833 0.674479,-0.346354 0.273437,-0.21875 0.4375,-0.546875 0.182291,-0.328124 0.273437,-0.893228 0.109375,-0.565104 0.109375,-1.658853 v -18.66665 h -2.296873 q -0.85677,0 -1.421874,0.164062 -0.546875,0.164062 -1.020833,0.692708 -0.473957,0.510416 -0.874999,1.476561 -0.382812,0.947916 -0.729166,2.406248 h -1.804686 z" style="font-style:normal;font-variant:normal;font-weight:400;font-stretch:normal;font-size:37.3333px;font-family:Cambria;-inkscape-font-specification:Cambria;stroke-width:2.274;stroke-linejoin:round;stroke-miterlimit:4;stroke-dasharray:none"/></g></g></svg>