<svg xmlns="http://www.w3.org/2000/svg" xmlns:svg="http://www.w3.org/2000/svg" xmlns:xlink="http://www.w3.org/1999/xlink" id="svg2869" width="64" height="64" version="1.1" viewBox="0 0 64 64"><defs id="defs2871"><linearGradient id="linearGradient3771" x1="98" x2="81" y1="1047.362" y2="993.362" gradientTransform="translate(-60,-988.36218)" gradientUnits="userSpaceOnUse" xlink:href="#linearGradient3765"/><linearGradient id="linearGradient3765"><stop style="stop-color:#d3d7cf;stop-opacity:1" id="stop3767" offset="0"/><stop style="stop-color:#fff;stop-opacity:1" id="stop3769" offset="1"/></linearGradient><linearGradient id="linearGradient9" x1="98" x2="81" y1="1047.362" y2="993.362" gradientTransform="translate(-60,-988.36218)" gradientUnits="userSpaceOnUse" xlink:href="#linearGradient3765"/></defs><metadata id="metadata2874"/><g id="layer3" style="display:inline"><g id="g5" transform="matrix(0.88681323,0,0,0.88889159,10.527509,0.33465048)" style="stroke-width:1.12632;opacity:.6"><path style="fill:url(#linearGradient3771);fill-opacity:1;stroke:#2e3436;stroke-width:2.25263;stroke-linecap:butt;stroke-linejoin:round;stroke-opacity:1" id="path2991" d="m 11,3 v 58.00002 h 42 v -48 L 43,3 Z"/><path style="fill:none;stroke:#fff;stroke-width:2.25263;stroke-linecap:butt;stroke-linejoin:miter;stroke-opacity:1" id="path3763" d="M 13,5 V 59.00002 H 51 V 13.81392 L 41.99741,5 Z"/><path style="fill:#2e3436;fill-opacity:.392157;stroke:#2e3436;stroke-width:2.25263;stroke-linecap:butt;stroke-linejoin:round;stroke-opacity:1" id="path2993" d="M 43,3 V 13.00002 H 53 Z"/></g><g id="g9" transform="matrix(0.88681323,0,0,0.88889159,-3.283556,6.77627)" style="stroke-width:1.12632"><path style="fill:url(#linearGradient9);fill-opacity:1;stroke:#2e3436;stroke-width:2.25263;stroke-linecap:butt;stroke-linejoin:round;stroke-opacity:1" id="path7" d="m 11,3 v 58.00002 h 42 v -48 L 43,3 Z"/><path style="fill:none;stroke:#fff;stroke-width:2.25263;stroke-linecap:butt;stroke-linejoin:miter;stroke-opacity:1" id="path8" d="M 13,5 V 59.00002 H 51 V 13.81392 L 41.99741,5 Z"/><path style="fill:#2e3436;fill-opacity:.392157;stroke:#2e3436;stroke-width:2.25263;stroke-linecap:butt;stroke-linejoin:round;stroke-opacity:1" id="path9" d="M 43,3 V 13.00002 H 53 Z"/></g></g><g id="g1" transform="translate(32.669235,33.796449)"><g id="g3" transform="translate(16.727535,4.2195563)"><circle style="fill:#eeeeec;fill-rule:evenodd;stroke:#2e3436;stroke-width:2.00001;stroke-linecap:round;stroke-miterlimit:4;stroke-dasharray:none" id="path968" cx="2.397" cy="8.984" r="14" transform="scale(-1,1)"/><path style="font-variation-settings:normal;opacity:1;vector-effect:none;fill:#d3d7cf;fill-opacity:1;fill-rule:evenodd;stroke:#eeeeec;stroke-width:2.00001;stroke-linecap:round;stroke-linejoin:miter;stroke-miterlimit:4;stroke-dasharray:none;stroke-dashoffset:0;stroke-opacity:1;-inkscape-stroke:none;stop-color:#000;stop-opacity:1" id="circle2" d="m 2.3964844,-3.015625 c 6.6173018,0 11.9999996,5.3826982 11.9999996,12 0,6.617302 -5.3826978,12 -11.9999996,12 -6.6173018,0 -12,-5.382698 -12,-12 0,-6.6173018 5.3826982,-12 12,-12 z" transform="scale(-1,1)"/><path style="fill:none;stroke:#2e3436;stroke-width:2.00001;stroke-linecap:round;stroke-linejoin:miter;stroke-miterlimit:4;stroke-dasharray:none;stroke-opacity:1" id="path966" d="m 3.3502036,8.984375 h -5.746688 V 0.58691898"/></g></g></svg>