<svg xmlns="http://www.w3.org/2000/svg" xmlns:svg="http://www.w3.org/2000/svg" xmlns:xlink="http://www.w3.org/1999/xlink" id="svg2869" width="64" height="64" version="1.1" viewBox="0 0 64 64" xml:space="preserve"><defs id="defs2871"><linearGradient id="linearGradient5"><stop style="stop-color:#ef2929;stop-opacity:1" id="stop19" offset="0"/><stop style="stop-color:#ef2929;stop-opacity:0" id="stop20" offset="1"/></linearGradient><linearGradient id="swatch18"><stop style="stop-color:#ef2929;stop-opacity:1" id="stop18" offset="0"/></linearGradient><linearGradient id="swatch15"><stop style="stop-color:#3d0000;stop-opacity:1" id="stop15" offset="0"/></linearGradient><linearGradient id="linearGradient5-1"><stop style="stop-color:#ef2929;stop-opacity:1" id="stop5" offset="0"/><stop style="stop-color:#ef2929;stop-opacity:0" id="stop6" offset="1"/></linearGradient><linearGradient id="linearGradient3836-9"><stop style="stop-color:#a40000;stop-opacity:1" id="stop3838-8" offset="0"/><stop style="stop-color:#ef2929;stop-opacity:1" id="stop3840-1" offset="1"/></linearGradient><linearGradient id="linearGradient3034-4" x1="26.222" x2="46.731" y1="31.126" y2="21.766" gradientTransform="matrix(0.82942185,0.69481004,0.70076106,-0.82237821,-14.689134,46.171259)" gradientUnits="userSpaceOnUse" xlink:href="#linearGradient2380-9"/><linearGradient id="linearGradient2380-9"><stop style="stop-color:#729fcf;stop-opacity:1" id="stop2382-4" offset="0"/><stop style="stop-color:#3465a4;stop-opacity:1" id="stop2384-6" offset="1"/></linearGradient><linearGradient id="linearGradient3034" x1="41.792" x2="23.706" y1="20.135" y2="34.083" gradientTransform="matrix(-0.82942185,-0.69481004,-0.70076106,0.82237821,78.689134,17.828742)" gradientUnits="userSpaceOnUse" xlink:href="#linearGradient2380-9"/></defs><metadata id="metadata2874"/><g id="layer3" style="display:inline"><path style="color:#000;display:block;overflow:visible;visibility:visible;fill:url(#linearGradient3034);fill-opacity:1;fill-rule:nonzero;stroke:#0c1522;stroke-width:2;stroke-linecap:butt;stroke-linejoin:round;stroke-miterlimit:4;stroke-dasharray:none;stroke-dashoffset:0;stroke-opacity:1;marker:none" id="path1880" d="M 6.7411068,28.35175 C 1.4831503,3.6363838 28.09784,-5.6492191 51.300453,12.499428 L 58.138947,5.0555856 58.001843,29.387215 36.57066,29.365336 c 0,0 7.133319,-7.951066 7.133319,-7.951066 C 27.386121,9.1527 6.487378,10.070587 6.7411068,28.35175 Z"/><path id="path2807" d="M 8.9327084,16.531664 C 10.778287,7.0872986 29.562949,-3.0013417 51.45955,15.429377 l 4.588842,-4.832097 -0.19413,16.695009 -14.599448,0.0047 5.534397,-6.0237 C 33.264206,10.416141 16.345195,7.4769202 8.9327084,16.531664 Z" style="color:#000;display:block;overflow:visible;visibility:visible;fill:none;stroke:#729fcf;stroke-width:2;stroke-linecap:butt;stroke-linejoin:miter;stroke-miterlimit:21;stroke-dasharray:none;stroke-dashoffset:0;stroke-opacity:1;marker:none"/><path style="color:#000;display:block;overflow:visible;visibility:visible;fill:url(#linearGradient3034-4);fill-opacity:1;fill-rule:nonzero;stroke:#0c1522;stroke-width:2;stroke-linecap:butt;stroke-linejoin:round;stroke-miterlimit:4;stroke-dasharray:none;stroke-dashoffset:0;stroke-opacity:1;marker:none" id="path1880-2" d="M 57.258893,35.64825 C 62.516849,60.363616 35.90216,69.649219 12.699547,51.500572 l -6.8384943,7.443843 0.1371039,-24.33163 21.4311834,0.02188 c 0,0 -7.13332,7.951066 -7.13332,7.951066 16.317859,12.26157 37.216602,11.343683 36.962873,-6.93748 z"/><path id="path2807-5" d="M 55.067292,47.468336 C 53.683665,57.143642 34.437051,67.001342 12.54045,48.570623 l -4.5888419,4.832097 0.19413,-16.695009 14.5994479,-0.0047 -5.534397,6.0237 c 13.525005,10.857147 30.444015,13.796366 37.856503,4.741623 z" style="color:#000;display:block;overflow:visible;visibility:visible;fill:none;stroke:#729fcf;stroke-width:2;stroke-linecap:butt;stroke-linejoin:miter;stroke-miterlimit:21;stroke-dasharray:none;stroke-dashoffset:0;stroke-opacity:1;marker:none"/></g></svg>