<svg xmlns="http://www.w3.org/2000/svg" xmlns:svg="http://www.w3.org/2000/svg" id="Layer_1" width="12" height="12" x="0" y="0" enable-background="new 0 0 32 32" version="1.1" viewBox="0 0 12 12" xml:space="preserve"><metadata id="metadata7"/><defs id="defs5"><marker style="overflow:visible" id="Arrow2Mend-5" orient="auto" refX="0" refY="0"><path style="font-size:12px;fill-rule:evenodd;stroke-width:.625;stroke-linejoin:round" id="path45132-1" d="M 8.7185878,4.0337352 -2.2072895,0.01601326 8.7185884,-4.0017078 c -1.7454984,2.3720609 -1.7354408,5.6174519 -6e-7,8.035443 z" transform="scale(-0.6,-0.6)"/></marker><marker style="overflow:visible" id="DotM-00" orient="auto" refX="0" refY="0"><path style="fill-rule:evenodd;stroke:#000;stroke-width:1pt;marker-start:none;marker-end:none" id="path14329-2" d="m -2.5,-1 c 0,2.76 -2.24,5 -5,5 -2.76,0 -5,-2.24 -5,-5 0,-2.76 2.24,-5 5,-5 2.76,0 5,2.24 5,5 z" transform="matrix(0.4,0,0,0.4,2.96,0.4)"/></marker><marker style="overflow:visible" id="Arrow2Mend-07" orient="auto" refX="0" refY="0"><path style="font-size:12px;fill-rule:evenodd;stroke-width:.625;stroke-linejoin:round" id="path45132-31" d="M 8.7185878,4.0337352 -2.2072895,0.01601326 8.7185884,-4.0017078 c -1.7454984,2.3720609 -1.7354408,5.6174519 -6e-7,8.035443 z" transform="scale(-0.6,-0.6)"/></marker><marker style="overflow:visible" id="DotM-0" orient="auto" refX="0" refY="0"><path style="fill-rule:evenodd;stroke:#000;stroke-width:1pt;marker-start:none;marker-end:none" id="path14329-94" d="m -2.5,-1 c 0,2.76 -2.24,5 -5,5 -2.76,0 -5,-2.24 -5,-5 0,-2.76 2.24,-5 5,-5 2.76,0 5,2.24 5,5 z" transform="matrix(0.4,0,0,0.4,2.96,0.4)"/></marker><marker style="overflow:visible" id="Arrow2Mend-6" orient="auto" refX="0" refY="0"><path style="font-size:12px;fill-rule:evenodd;stroke-width:.625;stroke-linejoin:round" id="path45132-8" d="M 8.7185878,4.0337352 -2.2072895,0.01601326 8.7185884,-4.0017078 c -1.7454984,2.3720609 -1.7354408,5.6174519 -6e-7,8.035443 z" transform="scale(-0.6,-0.6)"/></marker><marker style="overflow:visible" id="DotM-8" orient="auto" refX="0" refY="0"><path style="fill-rule:evenodd;stroke:#000;stroke-width:1pt;marker-start:none;marker-end:none" id="path14329-91" d="m -2.5,-1 c 0,2.76 -2.24,5 -5,5 -2.76,0 -5,-2.24 -5,-5 0,-2.76 2.24,-5 5,-5 2.76,0 5,2.24 5,5 z" transform="matrix(0.4,0,0,0.4,2.96,0.4)"/></marker><clipPath id="clipPath3169-2" clipPathUnits="userSpaceOnUse"><rect style="fill:#f5f5f4;fill-opacity:1;stroke:#888a85;stroke-width:2;stroke-miterlimit:4;stroke-dasharray:none;stroke-dashoffset:0;stroke-opacity:1" id="rect3171-7" width="748.776" height="428.81" x="48.992" y="105.344"/></clipPath><clipPath id="clipPath22-7" clipPathUnits="userSpaceOnUse"><path id="path24-2" d="M 0,792 1224,792 1224,0 0,0 0,792 Z"/></clipPath><clipPath id="clipPath6483-7" clipPathUnits="userSpaceOnUse"><rect style="fill:#fff;fill-opacity:1;stroke:none" id="rect6485-5" width="548" height="280" x="67.578" y="187.656"/></clipPath><clipPath id="clipPath10152" clipPathUnits="userSpaceOnUse"><rect id="rect10154" width="718.587" height="140.174" x="-37.134" y="754.147" style="fill:#555753;fill-opacity:1;stroke:#555753;stroke-width:1.83322382;stroke-miterlimit:4;stroke-dasharray:none;stroke-dashoffset:0;stroke-opacity:1"/></clipPath><marker style="overflow:visible" id="Arrow2Mend-0" orient="auto" refX="0" refY="0"><path style="font-size:12px;fill-rule:evenodd;stroke-width:.625;stroke-linejoin:round" id="path45132-982" d="M 8.7185878,4.0337352 -2.2072895,0.01601326 8.7185884,-4.0017078 c -1.7454984,2.3720609 -1.7354408,5.6174519 -6e-7,8.035443 z" transform="scale(-0.6,-0.6)"/></marker><marker style="overflow:visible" id="DotM-2" orient="auto" refX="0" refY="0"><path style="fill-rule:evenodd;stroke:#000;stroke-width:1pt;marker-start:none;marker-end:none" id="path14329-95" d="m -2.5,-1 c 0,2.76 -2.24,5 -5,5 -2.76,0 -5,-2.24 -5,-5 0,-2.76 2.24,-5 5,-5 2.76,0 5,2.24 5,5 z" transform="matrix(0.4,0,0,0.4,2.96,0.4)"/></marker><marker style="overflow:visible" id="Arrow2Mend-2" orient="auto" refX="0" refY="0"><path style="font-size:12px;fill-rule:evenodd;stroke-width:.625;stroke-linejoin:round" id="path45132-98" d="M 8.7185878,4.0337352 -2.2072895,0.01601326 8.7185884,-4.0017078 c -1.7454984,2.3720609 -1.7354408,5.6174519 -6e-7,8.035443 z" transform="scale(-0.6,-0.6)"/></marker><marker style="overflow:visible" id="DotM-5" orient="auto" refX="0" refY="0"><path style="fill-rule:evenodd;stroke:#000;stroke-width:1pt;marker-start:none;marker-end:none" id="path14329-1" d="m -2.5,-1 c 0,2.76 -2.24,5 -5,5 -2.76,0 -5,-2.24 -5,-5 0,-2.76 2.24,-5 5,-5 2.76,0 5,2.24 5,5 z" transform="matrix(0.4,0,0,0.4,2.96,0.4)"/></marker><marker style="overflow:visible" id="Arrow2Mend-75" orient="auto" refX="0" refY="0"><path style="font-size:12px;fill-rule:evenodd;stroke-width:.625;stroke-linejoin:round" id="path45132-9" d="M 8.7185878,4.0337352 -2.2072895,0.01601326 8.7185884,-4.0017078 c -1.7454984,2.3720609 -1.7354408,5.6174519 -6e-7,8.035443 z" transform="scale(-0.6,-0.6)"/></marker><marker style="overflow:visible" id="DotM-466" orient="auto" refX="0" refY="0"><path style="fill-rule:evenodd;stroke:#000;stroke-width:1pt;marker-start:none;marker-end:none" id="path14329-32" d="m -2.5,-1 c 0,2.76 -2.24,5 -5,5 -2.76,0 -5,-2.24 -5,-5 0,-2.76 2.24,-5 5,-5 2.76,0 5,2.24 5,5 z" transform="matrix(0.4,0,0,0.4,2.96,0.4)"/></marker><marker style="overflow:visible" id="marker32938" orient="auto" refX="0" refY="0"><path style="font-size:12px;fill-rule:evenodd;stroke-width:.625;stroke-linejoin:round" id="path32940" d="M 8.7185878,4.0337352 -2.2072895,0.01601326 8.7185884,-4.0017078 c -1.7454984,2.3720609 -1.7354408,5.6174519 -6e-7,8.035443 z" transform="scale(-0.6,-0.6)"/></marker><marker style="overflow:visible" id="marker32934" orient="auto" refX="0" refY="0"><path style="fill-rule:evenodd;stroke:#000;stroke-width:1pt;marker-start:none;marker-end:none" id="path32936" d="m -2.5,-1 c 0,2.76 -2.24,5 -5,5 -2.76,0 -5,-2.24 -5,-5 0,-2.76 2.24,-5 5,-5 2.76,0 5,2.24 5,5 z" transform="matrix(0.4,0,0,0.4,2.96,0.4)"/></marker><marker style="overflow:visible" id="Arrow2Mend-7" orient="auto" refX="0" refY="0"><path style="font-size:12px;fill-rule:evenodd;stroke-width:.625;stroke-linejoin:round" id="path45132-2" d="M 8.7185878,4.0337352 -2.2072895,0.01601326 8.7185884,-4.0017078 c -1.7454984,2.3720609 -1.7354408,5.6174519 -6e-7,8.035443 z" transform="scale(-0.6,-0.6)"/></marker><marker style="overflow:visible" id="DotM-46" orient="auto" refX="0" refY="0"><path style="fill-rule:evenodd;stroke:#000;stroke-width:1pt;marker-start:none;marker-end:none" id="path14329-9" d="m -2.5,-1 c 0,2.76 -2.24,5 -5,5 -2.76,0 -5,-2.24 -5,-5 0,-2.76 2.24,-5 5,-5 2.76,0 5,2.24 5,5 z" transform="matrix(0.4,0,0,0.4,2.96,0.4)"/></marker><marker style="overflow:visible" id="Arrow2Mend-3" orient="auto" refX="0" refY="0"><path style="font-size:12px;fill-rule:evenodd;stroke-width:.625;stroke-linejoin:round" id="path45132-3" d="M 8.7185878,4.0337352 -2.2072895,0.01601326 8.7185884,-4.0017078 c -1.7454984,2.3720609 -1.7354408,5.6174519 -6e-7,8.035443 z" transform="scale(-0.6,-0.6)"/></marker><marker style="overflow:visible" id="DotM-42" orient="auto" refX="0" refY="0"><path style="fill-rule:evenodd;stroke:#000;stroke-width:1pt;marker-start:none;marker-end:none" id="path14329-3" d="m -2.5,-1 c 0,2.76 -2.24,5 -5,5 -2.76,0 -5,-2.24 -5,-5 0,-2.76 2.24,-5 5,-5 2.76,0 5,2.24 5,5 z" transform="matrix(0.4,0,0,0.4,2.96,0.4)"/></marker><marker style="overflow:visible" id="Arrow2Mend-9" orient="auto" refX="0" refY="0"><path style="font-size:12px;fill-rule:evenodd;stroke-width:.625;stroke-linejoin:round" id="path45132-4" d="M 8.7185878,4.0337352 -2.2072895,0.01601326 8.7185884,-4.0017078 c -1.7454984,2.3720609 -1.7354408,5.6174519 -6e-7,8.035443 z" transform="scale(-0.6,-0.6)"/></marker><marker style="overflow:visible" id="DotM-4" orient="auto" refX="0" refY="0"><path style="fill-rule:evenodd;stroke:#000;stroke-width:1pt;marker-start:none;marker-end:none" id="path14329-8" d="m -2.5,-1 c 0,2.76 -2.24,5 -5,5 -2.76,0 -5,-2.24 -5,-5 0,-2.76 2.24,-5 5,-5 2.76,0 5,2.24 5,5 z" transform="matrix(0.4,0,0,0.4,2.96,0.4)"/></marker><clipPath id="clipPath6483-5" clipPathUnits="userSpaceOnUse"><rect id="rect6485-2" width="548" height="280" x="67.578" y="187.656" style="fill:#fff;fill-opacity:1;stroke:none"/></clipPath><clipPath id="clipPath6483-1-7-3-0" clipPathUnits="userSpaceOnUse"><rect id="rect6485-6-4-5-6" width="548" height="280" x="67.578" y="187.656" style="fill:#fff;fill-opacity:1;stroke:none"/></clipPath><marker style="overflow:visible" id="Arrow2Lend-0" orient="auto" refX="0" refY="0"><path style="font-size:12px;fill-rule:evenodd;stroke-width:.625;stroke-linejoin:round" id="path45126-6" d="M 8.7185878,4.0337352 -2.2072895,0.01601326 8.7185884,-4.0017078 c -1.7454984,2.3720609 -1.7354408,5.6174519 -6e-7,8.035443 z" transform="matrix(-1.1,0,0,-1.1,-1.1,0)"/></marker><clipPath id="clipPath6483-1-7-3-9" clipPathUnits="userSpaceOnUse"><rect id="rect6485-6-4-5-8" width="548" height="280" x="67.578" y="187.656" style="fill:#fff;fill-opacity:1;stroke:none"/></clipPath><clipPath id="clipPath6483-1-7-3" clipPathUnits="userSpaceOnUse"><rect id="rect6485-6-4-5" width="548" height="280" x="67.578" y="187.656" style="fill:#fff;fill-opacity:1;stroke:none"/></clipPath><clipPath id="clipPath6483-1-7" clipPathUnits="userSpaceOnUse"><rect id="rect6485-6-4" width="548" height="280" x="67.578" y="187.656" style="fill:#fff;fill-opacity:1;stroke:none"/></clipPath><clipPath id="clipPath6483-1" clipPathUnits="userSpaceOnUse"><rect id="rect6485-6" width="548" height="280" x="67.578" y="187.656" style="fill:#fff;fill-opacity:1;stroke:none"/></clipPath><clipPath id="clipPath6483" clipPathUnits="userSpaceOnUse"><rect id="rect6485" width="548" height="280" x="67.578" y="187.656" style="fill:#fff;fill-opacity:1;stroke:none"/></clipPath><clipPath id="clipPath22" clipPathUnits="userSpaceOnUse"><path id="path24" d="M 0,792 1224,792 1224,0 0,0 0,792 Z"/></clipPath><clipPath id="clipPath3169" clipPathUnits="userSpaceOnUse"><rect id="rect3171" width="748.776" height="428.81" x="48.992" y="105.344" style="fill:#f5f5f4;fill-opacity:1;stroke:#888a85;stroke-width:2;stroke-miterlimit:4;stroke-dasharray:none;stroke-dashoffset:0;stroke-opacity:1"/></clipPath><marker style="overflow:visible" id="Arrow2Lend" orient="auto" refX="0" refY="0"><path style="font-size:12px;fill-rule:evenodd;stroke-width:.625;stroke-linejoin:round" id="path45126" d="M 8.7185878,4.0337352 -2.2072895,0.01601326 8.7185884,-4.0017078 c -1.7454984,2.3720609 -1.7354408,5.6174519 -6e-7,8.035443 z" transform="matrix(-1.1,0,0,-1.1,-1.1,0)"/></marker><marker style="overflow:visible" id="Arrow2Mend" orient="auto" refX="0" refY="0"><path style="font-size:12px;fill-rule:evenodd;stroke-width:.625;stroke-linejoin:round" id="path45132" d="M 8.7185878,4.0337352 -2.2072895,0.01601326 8.7185884,-4.0017078 c -1.7454984,2.3720609 -1.7354408,5.6174519 -6e-7,8.035443 z" transform="scale(-0.6,-0.6)"/></marker><marker style="overflow:visible" id="DotL" orient="auto" refX="0" refY="0"><path style="fill-rule:evenodd;stroke:#000;stroke-width:1pt;marker-start:none;marker-end:none" id="path14326" d="m -2.5,-1 c 0,2.76 -2.24,5 -5,5 -2.76,0 -5,-2.24 -5,-5 0,-2.76 2.24,-5 5,-5 2.76,0 5,2.24 5,5 z" transform="matrix(0.8,0,0,0.8,5.92,0.8)"/></marker><marker style="overflow:visible" id="DotM" orient="auto" refX="0" refY="0"><path style="fill-rule:evenodd;stroke:#000;stroke-width:1pt;marker-start:none;marker-end:none" id="path14329" d="m -2.5,-1 c 0,2.76 -2.24,5 -5,5 -2.76,0 -5,-2.24 -5,-5 0,-2.76 2.24,-5 5,-5 2.76,0 5,2.24 5,5 z" transform="matrix(0.4,0,0,0.4,2.96,0.4)"/></marker></defs><path style="fill:#fff;fill-opacity:1;stroke:none;stroke-width:1.1" id="rect3381-0" d="M 5.2397266,0.5 C 5.0575891,0.5 4.9109589,0.64663005 4.9109589,0.82876742 V 1.6643838 C 4.4856893,1.7699553 4.0763698,1.9398709 3.691781,2.1712336 L 3.10274,1.5821922 c -0.1287904,-0.1287905 -0.3369634,-0.1287905 -0.4657537,0 L 1.5684932,2.650685 c -0.1287902,0.1287908 -0.1287902,0.336963 0,0.4657539 L 2.1575343,3.7054804 C 1.9279826,4.0889454 1.7688105,4.5029064 1.6643836,4.9246577 H 0.82876727 C 0.64663021,4.9246577 0.5,5.0712877 0.5,5.2534237 v 1.5068497 c 0,0.1821375 0.14663021,0.3287674 0.32876727,0.3287674 H 1.6506851 C 1.7562389,7.5146895 1.9259777,7.9233066 2.1575343,8.3082186 L 1.5684932,8.89726 c -0.1287902,0.1287897 -0.1287902,0.3369631 0,0.4657546 l 1.0684931,1.0684924 c 0.1287903,0.12879 0.3369633,0.12879 0.4657537,0 L 3.691781,9.842465 c 0.3862691,0.232967 0.7938336,0.387541 1.2191779,0.49315 v 0.835618 c 0,0.182137 0.1466302,0.328767 0.3287677,0.328767 h 1.5068498 c 0.182136,0 0.328766,-0.14663 0.328766,-0.328767 v -0.835618 c 0.4262536,-0.10505 0.8336573,-0.261856 1.2191781,-0.49315 l 0.5890415,0.589042 c 0.1287907,0.12879 0.336963,0.12879 0.4657537,0 L 10.41781,9.3630146 c 0.12879,-0.1287915 0.12879,-0.3369649 0,-0.4657546 L 9.8287673,8.3082186 C 10.06061,7.924003 10.229803,7.5121063 10.335616,7.0890411 h 0.835618 C 11.35337,7.0890408 11.5,6.9424109 11.5,6.7602734 V 5.2534251 C 11.5,5.0712877 11.35337,4.9246577 11.171234,4.9246577 H 10.335616 C 10.230682,4.5019542 10.057981,4.0880816 9.8287673,3.7054804 L 10.41781,3.1164389 c 0.12879,-0.1287909 0.12879,-0.3369631 0,-0.4657539 L 9.3493157,1.5821922 c -0.1287907,-0.1287905 -0.336963,-0.1287905 -0.4657537,0 L 8.2945205,2.1712336 C 7.9095759,1.9401799 7.4989599,1.7692083 7.0753424,1.6643838 V 0.82876742 C 7.0753424,0.64663005 6.9287124,0.5 6.7465764,0.5 Z M 5.9383562,3.9246578 C 6.4710464,3.910516 7.0142917,4.0906576 7.4315072,4.4863011 8.2659375,5.2775883 8.3049854,6.5970764 7.5136992,7.431507 6.724365,8.2638773 5.4036156,8.300121 4.5684931,7.5136985 3.7340632,6.7224114 3.6950146,5.4029232 4.4863015,4.5684929 4.8819453,4.151278 5.4056663,3.9387948 5.9383562,3.924658 Z"/></svg>