<svg xmlns="http://www.w3.org/2000/svg" xmlns:svg="http://www.w3.org/2000/svg" xmlns:xlink="http://www.w3.org/1999/xlink" id="svg12" width="64" height="64" version="1.1"><metadata id="metadata18"/><defs id="defs16"><linearGradient id="linearGradient3009" x1="4115.423" x2="4157.868" y1="1473.526" y2="1734.258" gradientTransform="matrix(0.14282526,-0.0824602,0.0824602,0.14282526,-668.50919,156.96263)" gradientUnits="userSpaceOnUse" xlink:href="#linearGradient3010"/><linearGradient id="linearGradient3010"><stop id="stop3012" offset="0" style="stop-color:#ef2929;stop-opacity:1"/><stop id="stop3014" offset="1" style="stop-color:#a40000;stop-opacity:1"/></linearGradient></defs><g style="fill:none;stroke:#c00;stroke-width:2" id="symbol" transform="rotate(30,55.977041,35.414538)"><path id="text2714" d="m 47.469777,51.79339 -7.353569,4.245585 -0.670351,4.047521 c -0.03426,0.48767 0.02469,0.413892 0.106092,0.63593 0.235865,0.408529 0.649999,0.515288 1.288795,0.345326 l 0.471732,0.817066 -6.536504,3.773854 -0.471732,-0.817069 c 0.327943,-0.28291 0.871711,-0.814042 0.98973,-1.116125 0.11802,-0.302083 0.172665,-0.644395 0.345332,-1.2888 L 37.25195,43.530234 c 0.04502,-0.610828 0.03611,-0.759333 -0.0632,-1.052935 -0.145261,-0.454173 -0.305227,-0.679225 -0.880265,-0.581189 l -0.471733,-0.817066 6.536504,-3.773852 0.471733,0.817065 c -0.817059,0.47173 -1.132286,0.707176 -0.989731,1.116127 0.09425,0.284825 0.201206,0.450118 0.493893,0.7139 l 12.058732,11.495883 c 0.514794,0.486492 0.602026,0.601889 0.904125,0.71989 0.296995,0.109267 0.661469,0.06923 1.05293,-0.0632 l 0.471733,0.817066 -6.536504,3.773852 -0.471733,-0.817065 c 0.549588,-0.445965 0.515901,-0.790719 0.34533,-1.288788 -0.07129,-0.204486 -0.158806,-0.518149 -0.471733,-0.817066 l -2.232254,-1.979461 m -1.415194,-2.451189 -5.407984,-5.593038 -1.12852,9.36689 6.536504,-3.773852" style="font-style:normal;font-variant:normal;font-weight:700;font-stretch:normal;font-size:40px;font-family:'Copperplate Gothic Bold';-inkscape-font-specification:'Copperplate Gothic Bold, Bold';display:inline;fill:#c00;fill-opacity:1;stroke:none;stroke-width:2.00001;stroke-linecap:round;stroke-linejoin:round;stroke-miterlimit:4;stroke-dasharray:none;stroke-opacity:1"/></g><g style="stroke:#fff;stroke-width:2.5;stroke-linecap:round;stroke-linejoin:miter" id="crosshair"><path id="path9" d="m16,3v9m0,8v9m-13-13h9m8,0h9"/></g></svg>