<svg xmlns="http://www.w3.org/2000/svg" xmlns:svg="http://www.w3.org/2000/svg" id="svg12" width="64" height="64" version="1.1"><g id="symbol" transform="matrix(1.0366786,0,0,1.0366786,-0.1467704,-6.1737144)" style="fill:none;stroke:#c00;stroke-width:1.92924"><path id="rect3" d="m 33.903249,32 h 11.575426 c 4.275193,0 7.716954,3.441762 7.716954,7.716954 V 51.29238 c 0,4.275193 -3.441761,7.716955 -7.716954,7.716955 H 33.903249 c -4.275193,0 -7.716954,-3.441762 -7.716954,-7.716955 V 39.716954 C 26.186295,35.441762 29.628056,32 33.903249,32 Z"/><path id="rect3-1" d="m 34.867866,36.823097 h 9.64619 c 2.137596,0 3.858476,1.72088 3.858476,3.858476 v 9.646191 c 0,2.137595 -1.72088,3.858475 -3.858476,3.858475 h -9.64619 c -2.137596,0 -3.858476,-1.72088 -3.858476,-3.858475 v -9.646191 c 0,-2.137596 1.72088,-3.858476 3.858476,-3.858476 z"/></g><g id="crosshair" style="stroke:#fff;stroke-width:2.5;stroke-linecap:round;stroke-linejoin:miter"><path id="path9" d="m16,3v9m0,8v9m-13-13h9m8,0h9"/></g></svg>