<svg xmlns="http://www.w3.org/2000/svg" xmlns:svg="http://www.w3.org/2000/svg" xmlns:xlink="http://www.w3.org/1999/xlink" id="svg16" width="64" height="64" version="1.1"><defs id="defs20"><linearGradient id="linearGradient3262" x1="-18" x2="-22" y1="18" y2="5" gradientUnits="userSpaceOnUse" xlink:href="#linearGradient3836-9-3"/><linearGradient id="linearGradient3836-9-3"><stop style="stop-color:#a40000;stop-opacity:1" id="stop3838-8-5" offset="0"/><stop style="stop-color:#ef2929;stop-opacity:1" id="stop3840-1-6" offset="1"/></linearGradient></defs><g id="symbol" transform="translate(1.1788527,3.8661511)" style="fill:none;stroke:#c00;stroke-width:2"><circle id="circle6" cx="23.297" cy="52.548" r="4" style="stroke-width:2"/><circle id="circle8" cx="27.7" cy="26.176" r="4" style="stroke-width:2"/><circle id="circle8-8" cx="47.962" cy="50.087" r="4" style="fill:none;stroke:#c00;stroke-width:2"/><circle id="circle10" cx="52.706" cy="22.1" r="4" style="stroke-width:2"/><path style="display:inline;fill:none;stroke:#c00;stroke-width:2;stroke-linecap:butt;stroke-linejoin:miter;stroke-miterlimit:4;stroke-dasharray:none;stroke-opacity:1" id="path7375-2" d="m 23.297353,52.548163 c 0,0 -8.94258,-11.156591 -3.950431,-19.804497 5.734494,-9.933869 15.252825,-7.090961 18.332494,-2.704579 4.942472,7.03958 -3.04763,12.631195 4.037149,18.543304 4.973569,4.150346 11.983381,-0.119742 13.972494,-4.832016 5.071743,-12.01511 -2.982946,-21.650536 -2.982946,-21.650536"/></g><g id="crosshair" style="stroke:#fff;stroke-width:2.5;stroke-linecap:round;stroke-linejoin:miter"><path id="path13" d="m16,3v9m0,8v9m-13-13h9m8,0h9"/></g></svg>