<svg xmlns="http://www.w3.org/2000/svg" xmlns:svg="http://www.w3.org/2000/svg" id="svg8" width="64" height="64" version="1.1"><metadata id="metadata14"/><g style="fill:#c00;stroke:none;stroke-width:1.20001" id="symbol" transform="matrix(0.83333333,0,0,0.83333333,3.3333334,3.3333334)"><circle id="circle2" cx="29.6" cy="29.6" r="6" style="stroke-width:1.20001"/><circle id="circle4755" cx="26" cy="56" r="4" transform="matrix(1.2,0,0,1.2,-4.0000001,-4.0000001)" style="fill:none;stroke:#c00;stroke-width:2"/><circle id="circle4757" cx="56" cy="-27" r="4" transform="matrix(1.2,0,0,-1.2,-4.0000001,-4.0000001)" style="fill:none;stroke:#c00;stroke-width:2"/><path style="fill:none;fill-rule:evenodd;stroke:#c00;stroke-width:2;stroke-linecap:butt;stroke-linejoin:miter;stroke-miterlimit:4;stroke-dasharray:none;stroke-opacity:1" id="path4792" d="M 26,56 38.245154,44.163018" transform="matrix(1.2,0,0,1.2,-4.0000001,-4.0000001)"/><path id="path4794" d="M 43.754846,38.836982 56,27" transform="matrix(1.2,0,0,1.2,-4.0000001,-4.0000001)" style="fill:none;fill-rule:evenodd;stroke:#c00;stroke-width:2;stroke-linecap:butt;stroke-linejoin:miter;stroke-miterlimit:4;stroke-dasharray:none;stroke-opacity:1"/><path id="path2" stroke-dasharray="3 2" d="M 28.193812,28.193812 38.84457,38.84457" transform="matrix(1.2,0,0,1.2,-4.0000001,-4.0000001)" style="fill:none;stroke:#c00;stroke-width:2;stroke-dasharray:2,2;stroke-dashoffset:0"/><path id="path4" d="m 41.150758,36.150758 v 5 h -5 z" transform="matrix(1.2,0,0,1.2,-4.0000001,-4.0000001)" style="fill:#c00;fill-opacity:1;stroke:#c00;stroke-width:2"/></g><g style="stroke:#fff;stroke-width:2.5;stroke-linecap:round;stroke-linejoin:miter" id="crosshair"><path id="path5" d="m16,3v9m0,8v9m-13-13h9m8,0h9"/></g></svg>