<svg xmlns="http://www.w3.org/2000/svg" xmlns:svg="http://www.w3.org/2000/svg" id="svg12" width="64" height="64" version="1.1"><g id="symbol" transform="matrix(1.0366786,0,0,1.0366786,-0.1467704,-6.1737144)" style="fill:none;stroke:#c00;stroke-width:1.92924"><path id="rect3" d="m 33.903245,32 h 11.575434 c 4.27519,0 7.71695,3.44176 7.71695,7.71695 v 11.575434 c 0,4.275191 -3.44176,7.716951 -7.71695,7.716951 H 33.903245 c -4.275191,0 -7.71695,-3.44176 -7.71695,-7.716951 V 39.71695 C 26.186295,35.44176 29.628054,32 33.903245,32 Z"/><path id="rect3-1" d="m 34.867862,36.823097 h 9.646198 c 2.137593,0 3.858472,1.720879 3.858472,3.858473 v 9.646197 c 0,2.137594 -1.720879,3.858472 -3.858472,3.858472 h -9.646198 c -2.137593,0 -3.858472,-1.720878 -3.858472,-3.858472 V 40.68157 c 0,-2.137594 1.720879,-3.858473 3.858472,-3.858473 z"/><circle id="circle6" cx="39.691" cy="45.505" r="3.858" style="fill:none;stroke:#c00;stroke-width:1.92924"/></g><g id="crosshair" style="stroke:#fff;stroke-width:2.5;stroke-linecap:round;stroke-linejoin:miter"><path id="path9" d="m16,3v9m0,8v9m-13-13h9m8,0h9"/></g></svg>