<svg xmlns="http://www.w3.org/2000/svg" xmlns:svg="http://www.w3.org/2000/svg" id="svg12" width="64" height="64" version="1.1"><defs id="defs16"><marker style="overflow:visible" id="Arrow1Lstart" orient="auto" refX="0" refY="0"><path style="fill-rule:evenodd;fill:context-stroke;stroke:context-stroke;stroke-width:1pt" id="path4362" d="M 0.0,0.0 L 5.0,-5.0 L -12.5,0.0 L 5.0,5.0 L 0.0,0.0 z" transform="scale(0.8) translate(12.5,0)"/></marker></defs><g id="crosshair" style="stroke:#fff;stroke-width:2.5;stroke-linecap:round;stroke-linejoin:miter"><path id="path9" d="m16,3v9m0,8v9m-13-13h9m8,0h9"/></g><g id="g1" transform="translate(-3.458469,-1.3832893)"><path style="fill:none;stroke:#c00;stroke-width:2;stroke-linecap:butt;stroke-linejoin:miter;stroke-miterlimit:4;stroke-dasharray:none;stroke-opacity:1" id="path6036-4" d="m 43.992747,29.448698 v 23.19836"/><circle id="circle6" cx="43.993" cy="29.449" r="5" style="fill:none;stroke:#c00;stroke-width:2"/><circle id="circle1" cx="43.993" cy="52.647" r="5" style="fill:none;stroke:#c00;stroke-width:2"/></g><g id="g3" transform="translate(-18.92419,3.3529434)"><path style="fill:none;stroke:#c00;stroke-width:2;stroke-linecap:butt;stroke-linejoin:miter;stroke-miterlimit:4;stroke-dasharray:none;stroke-opacity:1" id="path1" d="m 43.992747,29.448698 v 23.19836"/><circle id="circle2" cx="43.993" cy="29.449" r="5" style="fill:none;stroke:#c00;stroke-width:2"/><circle id="circle3" cx="43.993" cy="52.647" r="5" style="fill:none;stroke:#c00;stroke-width:2"/></g><g id="g5" transform="translate(12.007252,-6.119522)"><path style="fill:none;stroke:#c00;stroke-width:2;stroke-linecap:butt;stroke-linejoin:miter;stroke-miterlimit:4;stroke-dasharray:none;stroke-opacity:1" id="path3" d="m 43.992747,29.448698 v 23.19836"/><circle id="circle4" cx="43.993" cy="29.449" r="5" style="fill:none;stroke:#c00;stroke-width:2"/><circle id="circle5" cx="43.993" cy="52.647" r="5" style="fill:none;stroke:#c00;stroke-width:2"/></g></svg>