<svg xmlns="http://www.w3.org/2000/svg" xmlns:svg="http://www.w3.org/2000/svg" id="svg12" width="64" height="64" version="1.1"><defs id="defs16"><marker style="overflow:visible" id="Arrow1Lstart" orient="auto" refX="0" refY="0"><path style="fill-rule:evenodd;fill:context-stroke;stroke:context-stroke;stroke-width:1pt" id="path4362" d="M 0.0,0.0 L 5.0,-5.0 L -12.5,0.0 L 5.0,5.0 L 0.0,0.0 z" transform="scale(0.8) translate(12.5,0)"/></marker></defs><g id="crosshair" style="stroke:#fff;stroke-width:2.5;stroke-linecap:round;stroke-linejoin:miter"><path id="path9" d="m16,3v9m0,8v9m-13-13h9m8,0h9"/></g><path style="fill:none;stroke:#c00;stroke-width:2;stroke-linecap:butt;stroke-linejoin:miter;stroke-miterlimit:4;stroke-dasharray:none;stroke-opacity:1" id="path3643" d="M 29.214914,34.439165 42.157865,29.821941 53.135692,38.188102 51.170566,51.171488 38.227617,55.788712 27.24979,47.422551 Z"/><path style="fill:none;stroke:#c00;stroke-width:2;stroke-linecap:butt;stroke-linejoin:miter;stroke-miterlimit:4;stroke-dasharray:none;stroke-opacity:1" id="path3645" d="M 58.802646,33.137616 C 57.542789,26.170233 53.070885,21.623889 44.18064,22.732304 l 2.183951,-2.01555 0.761953,4.431188 -4.762987,-1.881068"/><path style="fill:none;stroke:#c00;stroke-width:2;stroke-linecap:butt;stroke-linejoin:miter;stroke-miterlimit:4;stroke-dasharray:none;stroke-opacity:1" id="path3645-4" d="m 18.581684,44.491061 c -0.863982,7.027461 2.057747,12.695853 10.876564,14.274941 l -2.683602,1.276857 0.587018,-4.457737 3.990452,3.209479"/></svg>