<svg xmlns="http://www.w3.org/2000/svg" xmlns:svg="http://www.w3.org/2000/svg" xmlns:xlink="http://www.w3.org/1999/xlink" id="svg2816" width="64" height="64" version="1.1"><defs id="defs2818"><linearGradient id="linearGradient3602"><stop style="stop-color:#ff2600;stop-opacity:1" id="stop3604" offset="0"/><stop style="stop-color:#ff5f00;stop-opacity:1" id="stop3606" offset="1"/></linearGradient><linearGradient id="linearGradient3608-5" x1="3.909" x2="24.818" y1="14.364" y2="14.364" gradientUnits="userSpaceOnUse" xlink:href="#linearGradient3602-7"/><linearGradient id="linearGradient3602-7"><stop style="stop-color:#c51900;stop-opacity:1" id="stop3604-1" offset="0"/><stop style="stop-color:#ff5f00;stop-opacity:1" id="stop3606-3" offset="1"/></linearGradient><linearGradient id="linearGradient3608-1" x1="3.909" x2="24.818" y1="14.364" y2="14.364" gradientUnits="userSpaceOnUse" xlink:href="#linearGradient3602-5"/><linearGradient id="linearGradient3602-5"><stop style="stop-color:#c51900;stop-opacity:1" id="stop3604-9" offset="0"/><stop style="stop-color:#ff5f00;stop-opacity:1" id="stop3606-9" offset="1"/></linearGradient><linearGradient id="linearGradient3686" x1="3.909" x2="24.818" y1="14.364" y2="14.364" gradientUnits="userSpaceOnUse" xlink:href="#linearGradient3602-5"/><linearGradient id="linearGradient3608-8" x1="3.909" x2="24.818" y1="14.364" y2="14.364" gradientUnits="userSpaceOnUse" xlink:href="#linearGradient3602-58"/><linearGradient id="linearGradient3602-58"><stop style="stop-color:#c51900;stop-opacity:1" id="stop3604-2" offset="0"/><stop style="stop-color:#ff5f00;stop-opacity:1" id="stop3606-2" offset="1"/></linearGradient><linearGradient id="linearGradient3726" x1="3.909" x2="24.818" y1="14.364" y2="14.364" gradientUnits="userSpaceOnUse" xlink:href="#linearGradient3602-58"/><linearGradient id="linearGradient3608" x1="3.909" x2="24.818" y1="14.364" y2="14.364" gradientUnits="userSpaceOnUse" xlink:href="#linearGradient3602-1"/><linearGradient id="linearGradient3602-1"><stop style="stop-color:#ff2600;stop-opacity:1" id="stop3604-22" offset="0"/><stop style="stop-color:#ff5f00;stop-opacity:1" id="stop3606-1" offset="1"/></linearGradient><linearGradient id="linearGradient3602-1-9"><stop style="stop-color:#ff2600;stop-opacity:1" id="stop3604-22-5" offset="0"/><stop style="stop-color:#ff5f00;stop-opacity:1" id="stop3606-1-4" offset="1"/></linearGradient><linearGradient id="linearGradient8395" x1="3.909" x2="24.818" y1="14.364" y2="14.364" gradientUnits="userSpaceOnUse" xlink:href="#linearGradient3602-1-9"/><linearGradient id="linearGradient3602-1-2"><stop style="stop-color:#ff2600;stop-opacity:1" id="stop3604-22-55" offset="0"/><stop style="stop-color:#ff5f00;stop-opacity:1" id="stop3606-1-8" offset="1"/></linearGradient></defs><metadata id="metadata2821"/><g id="g14" transform="rotate(45,30.677727,31.452297)"><path id="rect1-7-5" d="m 30.849609,-2.1901975 c -1.107999,0 -2,0.892001 -2,2 V 37.5 H 5 c -1.1079989,0 -2,0.892001 -2,2 v 4 c 0,1.107999 0.8920011,2 2,2 h 54 c 1.107999,0 2,-0.892001 2,-2 v -4 c 0,-1.107999 -0.892001,-2 -2,-2 H 36.849609 V -0.1901975 c 0,-1.107999 -0.892001,-2 -2,-2 z" style="fill:#280000;stroke-width:2;stroke-linecap:round;stroke-linejoin:round;stroke-miterlimit:100;stroke-dashoffset:1.6"/><path id="rect1-7-3-0" d="m 31.820312,-0.6452755 c -0.553999,0 -1,0.446 -1,1 V 39.470703 H 5.9648438 c -0.5539995,0 -1,0.446001 -1,1 v 2 c 0,0.554 0.4460005,1 1,1 H 58.455078 c 0.554,0 1,-0.446 1,-1 v -2 c 0,-0.553999 -0.446,-1 -1,-1 H 34.820312 V 0.3547245 c 0,-0.554 -0.446,-1 -1,-1 z" style="fill:#ef2929;stroke-width:2;stroke-linecap:round;stroke-linejoin:round;stroke-miterlimit:100;stroke-dashoffset:1.6"/><path id="rect3-1-9" d="m 33.820312,-0.6452755 c -0.553999,0 -1,0.446 -1,1 V 41.470703 H 5.9648438 c -0.5539995,0 -1,0.446001 -1,1 0,0.554 0.4460005,1 1,1 H 58.455078 c 0.554,0 1,-0.446 1,-1 0,-0.553999 -0.446,-1 -1,-1 H 34.820312 V 0.3547245 c 0,-0.554 -0.446,-1 -1,-1 z" style="fill:#c00;stroke-width:2;stroke-linecap:round;stroke-linejoin:round;stroke-miterlimit:100;stroke-dashoffset:8.71"/></g></svg>