<svg xmlns="http://www.w3.org/2000/svg" xmlns:svg="http://www.w3.org/2000/svg" id="svg275" width="64" height="64" version="1.1"><metadata id="metadata255"/><path id="path257" stroke="#280000" stroke-width="8" d="M 8.0130037,55.999654 55.86104,7.9368774" style="fill:none;stroke-linecap:round"/><g id="g12" stroke-dashoffset="10.8" stroke-linejoin="round" transform="matrix(0.92592116,0,0,0.92592119,2.3674951,2.3991903)" style="fill:none;fill-opacity:1;stroke-width:1.08001"><path id="path6" stroke="#0b1521" stroke-width="9.969" d="M 62,32 A 30,30 0 1 1 2,32 30,30 0 1 1 62,32 Z" transform="matrix(0.86667,0,0,0.86667,4.2667,4.2667)" style="fill:none;fill-opacity:1"/><circle id="circle8" cx="0" cy="0" r="0" stroke="#c00" stroke-width="4.985" transform="matrix(0.86667,0,0,0.86667,4.2667,4.2667)" style="fill:none;fill-opacity:1"/><path id="path10" stroke="#3465a4" stroke-width="4.32" d="m 58.000044,32.00014 c 0,14.359 -11.641,26 -26.000004,26 -14.359,0 -26,-11.641 -26,-26 0,-14.359 11.641,-26.0000003 26,-26.0000003 14.359004,0 26.000004,11.6410003 26.000004,26.0000003 z" style="fill:none;fill-opacity:1;stroke:#c00;stroke-opacity:1"/></g><circle id="circle261" cx="4.267" cy="4.267" r="0" stroke-dashoffset="10.8" stroke-linejoin="round" stroke-width="4" style="fill:none;stroke:#c00;stroke-linecap:round"/><path id="path263" stroke-dashoffset="10.8" stroke-linejoin="round" stroke-width="4" d="m 56.070933,32.028687 c 0,13.295302 -10.778648,24.073951 -24.07395,24.073951 -13.295302,0 -24.0739503,-10.778649 -24.0739503,-24.073951 0,-13.295302 10.7786483,-24.0739487 24.0739503,-24.0739487 13.295302,0 24.07395,10.7786467 24.07395,24.0739487 z" style="fill:none;stroke:#3465a4;stroke-linecap:round;stroke-opacity:1"/><path style="color:#000;fill:#3465a4;stroke-width:1;stroke-linecap:round;-inkscape-stroke:none;fill-opacity:1" id="path265" d="m 57.131363,6.4544845 a 2.0891182,2.0890512 0.17219196 0 0 -2.954241,0.00669 L 6.3863171,54.454997 a 2.0891182,2.0890512 0.17219196 0 0 0.0067,2.95414 2.0891182,2.0890512 0.17219196 0 0 2.9542365,-0.0067 L 57.138052,9.4086221 a 2.0891182,2.0890512 0.17219196 0 0 -0.0067,-2.9541418 z"/><path style="fill:#729fcf;stroke-width:1;stroke-linecap:round;fill-opacity:1" id="path2" d="m 56.194072,5.9163671 a 2.0891182,2.0890512 0.17219196 0 0 -2.01695,0.5448084 L 6.3863171,54.454997 a 2.0891182,2.0890512 0.17219196 0 0 0.0067,2.95414 L 57.131363,6.4544845 A 2.0891182,2.0890512 0.17219196 0 0 56.194072,5.9163671 Z"/><path style="fill:none;fill-opacity:1;stroke:#729fcf;stroke-width:2;stroke-linecap:round;stroke-linejoin:round;stroke-miterlimit:100;stroke-dasharray:none;stroke-dashoffset:3.45;stroke-opacity:1" id="path3-6" d="M 53.43953,44.882308 A 24.999872,24.999872 0 0 1 19.149295,53.474787 24.999872,24.999872 0 0 1 10.54759,19.186865 24.999872,24.999872 0 0 1 44.833196,10.575935 24.999872,24.999872 0 0 1 53.453352,44.859222"/></svg>