<svg xmlns="http://www.w3.org/2000/svg" xmlns:svg="http://www.w3.org/2000/svg" xmlns:xlink="http://www.w3.org/1999/xlink" id="svg2869" width="64" height="64" version="1.1" viewBox="0 0 64 64"><defs id="defs2871"><linearGradient id="linearGradient34"><stop style="stop-color:#fff;stop-opacity:1" id="stop33" offset="0"/><stop style="stop-color:#d3d7cf;stop-opacity:1" id="stop34" offset="1"/></linearGradient><linearGradient id="linearGradient32"><stop style="stop-color:#d3d7cf;stop-opacity:1" id="stop31" offset="0"/><stop style="stop-color:#fff;stop-opacity:1" id="stop32" offset="1"/></linearGradient><linearGradient id="linearGradient17"><stop style="stop-color:#fff;stop-opacity:1" id="stop16" offset="0"/><stop style="stop-color:#fff;stop-opacity:0" id="stop17" offset="1"/></linearGradient><linearGradient id="linearGradient5"><stop style="stop-color:#ef2929;stop-opacity:1" id="stop19" offset="0"/><stop style="stop-color:#ef2929;stop-opacity:0" id="stop20" offset="1"/></linearGradient><linearGradient id="swatch18"><stop style="stop-color:#ef2929;stop-opacity:1" id="stop18" offset="0"/></linearGradient><linearGradient id="swatch15"><stop style="stop-color:#3d0000;stop-opacity:1" id="stop15" offset="0"/></linearGradient><linearGradient id="linearGradient5-1"><stop style="stop-color:#ef2929;stop-opacity:1" id="stop5" offset="0"/><stop style="stop-color:#ef2929;stop-opacity:0" id="stop6" offset="1"/></linearGradient><linearGradient id="linearGradient3836-9"><stop style="stop-color:#a40000;stop-opacity:1" id="stop3838-8" offset="0"/><stop style="stop-color:#ef2929;stop-opacity:1" id="stop3840-1" offset="1"/></linearGradient><linearGradient id="linearGradient3836-9-3"><stop style="stop-color:#a40000;stop-opacity:1" id="stop3838-8-5" offset="0"/><stop style="stop-color:#ef2929;stop-opacity:1" id="stop3840-1-6" offset="1"/></linearGradient><linearGradient id="linearGradient3082" x1="-18" x2="-22" y1="18" y2="5" gradientUnits="userSpaceOnUse" xlink:href="#linearGradient3836-9-3"/><linearGradient id="linearGradient3836-9-7"><stop style="stop-color:#a40000;stop-opacity:1" id="stop3838-8-0" offset="0"/><stop style="stop-color:#ef2929;stop-opacity:1" id="stop3840-1-9" offset="1"/></linearGradient><linearGradient id="linearGradient3082-3" x1="-18" x2="-22" y1="18" y2="5" gradientUnits="userSpaceOnUse" xlink:href="#linearGradient3836-9-7"/><linearGradient id="linearGradient3801-1-3" x1="-18" x2="-22" y1="18" y2="5" gradientTransform="matrix(0.76342439,0,0,0.75750425,-4.596389,2.7525637)" gradientUnits="userSpaceOnUse" xlink:href="#linearGradient3836-9-3"/><linearGradient id="linearGradient3801-1-3-2" x1="-18" x2="-22" y1="18" y2="5" gradientTransform="matrix(0.84956703,0,0,0.84301394,-2.927337,1.7790378)" gradientUnits="userSpaceOnUse" xlink:href="#linearGradient3836-9-3"/><radialGradient id="radialGradient3815" cx="225.938" cy="91.957" r="22" fx="225.938" fy="91.957" gradientTransform="matrix(-1.4090915,3.8636359,-0.97565325,-0.35582669,437.08461,-816.22007)" gradientUnits="userSpaceOnUse" xlink:href="#linearGradient3809"/><linearGradient id="linearGradient3809"><stop style="stop-color:#729fcf;stop-opacity:1" id="stop3811" offset="0"/><stop style="stop-color:#204a87;stop-opacity:1" id="stop3813" offset="1"/></linearGradient><linearGradient id="linearGradient3444" x1="-18" x2="-22" y1="18" y2="5" gradientTransform="matrix(0.90206746,0,0,0.90216902,-1.9060863,1.1084289)" gradientUnits="userSpaceOnUse" xlink:href="#linearGradient3836-9-3"/><linearGradient id="linearGradient3857" x1="-18" x2="-22" y1="18" y2="5" gradientTransform="matrix(0.89262616,0,0,0.89258466,72.894067,1.2176306)" gradientUnits="userSpaceOnUse" xlink:href="#linearGradient3836-9-3"/><linearGradient id="linearGradient3148" x1="-18" x2="-22" y1="18" y2="5" gradientTransform="matrix(0.93724177,0,0,0.93725692,-1.2227671,0.70650014)" gradientUnits="userSpaceOnUse" xlink:href="#linearGradient3836-9-3"/><linearGradient id="linearGradient3898" x1="37.429" x2="24.483" y1="41.591" y2="4.91" gradientUnits="userSpaceOnUse" xlink:href="#linearGradient17"/><linearGradient id="linearGradient3892"><stop style="stop-color:#bdd2e9;stop-opacity:1" id="stop3894" offset="0"/><stop style="stop-color:#fff;stop-opacity:0" id="stop3896" offset="1"/></linearGradient><linearGradient id="linearGradient3856" x1="22.843" x2="30.784" y1="4.824" y2="28.645" gradientUnits="userSpaceOnUse" xlink:href="#linearGradient3892"/><radialGradient id="radialGradient3163" cx="225.938" cy="91.957" r="22" fx="225.938" fy="91.957" gradientTransform="matrix(-1.7064667,4.6731721,-1.1815555,-0.43038201,776.9032,-933.08315)" gradientUnits="userSpaceOnUse" xlink:href="#linearGradient3809"/><linearGradient id="linearGradient4110" x1="-23.071" x2="-24.194" y1="18.384" y2="6.534" gradientUnits="userSpaceOnUse" xlink:href="#linearGradient4104"/><linearGradient id="linearGradient4104"><stop style="stop-color:#d3d7cf;stop-opacity:1" id="stop4106" offset="0"/><stop style="stop-color:#fff;stop-opacity:1" id="stop4108" offset="1"/></linearGradient><linearGradient id="linearGradient4102" x1="-24.035" x2="-23.821" y1="16.851" y2="7.288" gradientUnits="userSpaceOnUse" xlink:href="#linearGradient4096"/><linearGradient id="linearGradient4096"><stop style="stop-color:#fff;stop-opacity:1" id="stop4098" offset="0"/><stop style="stop-color:#d3d7cf;stop-opacity:1" id="stop4100" offset="1"/></linearGradient><linearGradient id="linearGradient4216" x1="-18" x2="-22" y1="18" y2="5" gradientTransform="matrix(0.71430595,0,0,0.71426219,259.5032,71.709694)" gradientUnits="userSpaceOnUse" xlink:href="#linearGradient3836-9-3"/><radialGradient id="radialGradient3163-9" cx="225.938" cy="91.957" r="22" fx="225.938" fy="91.957" gradientTransform="matrix(-1.7064667,4.6731721,-1.1815555,-0.43038201,776.9032,-933.08315)" gradientUnits="userSpaceOnUse" xlink:href="#linearGradient3809"/><linearGradient id="linearGradient4347" x1="-21.32" x2="-24.907" y1="18.009" y2="6.938" gradientUnits="userSpaceOnUse" xlink:href="#linearGradient4104"/><linearGradient id="linearGradient4339" x1="-21.141" x2="-24.734" y1="17.49" y2="7.008" gradientUnits="userSpaceOnUse" xlink:href="#linearGradient4096"/><linearGradient id="linearGradient4235-2" x1="-18" x2="-22" y1="18" y2="5" gradientTransform="matrix(0.65313239,0,0,0.65304994,258.31758,72.40809)" gradientUnits="userSpaceOnUse" xlink:href="#linearGradient3836-9-3"/><linearGradient id="linearGradient3801-1-3-7" x1="-18" x2="-22" y1="18" y2="5" gradientUnits="userSpaceOnUse" xlink:href="#linearGradient3836-9-3"/><linearGradient id="linearGradient3901" x1="30.203" x2="35.014" y1="56.73" y2="19.843" gradientTransform="matrix(0.62354045,-0.62354046,0.62354039,0.62354042,-12.205772,28.459494)" gradientUnits="userSpaceOnUse" xlink:href="#linearGradient32"/><linearGradient id="linearGradient3903" x1="29.994" x2="36.095" y1="54.847" y2="20.854" gradientTransform="matrix(0.57365718,-0.57365723,0.57365712,0.57365719,-8.6693108,28.742734)" gradientUnits="userSpaceOnUse" xlink:href="#linearGradient34"/><linearGradient id="linearGradient3922" x1="-18" x2="-22" y1="18" y2="5" gradientTransform="matrix(0.85221122,0,0,0.85228409,-2.8500258,1.6945624)" gradientUnits="userSpaceOnUse" xlink:href="#linearGradient3836-9-3"/><linearGradient id="linearGradient3096" x1="-18" x2="-22" y1="18" y2="5" gradientUnits="userSpaceOnUse" xlink:href="#linearGradient3836-9-3"/><linearGradient id="linearGradient3801-7" x1="-18" x2="-22" y1="18" y2="5" gradientTransform="translate(-90,-5.9999999)" gradientUnits="userSpaceOnUse" xlink:href="#linearGradient3836-9-3"/><linearGradient id="linearGradient3082-3-8" x1="-18" x2="-22" y1="18" y2="5" gradientUnits="userSpaceOnUse" xlink:href="#linearGradient3836-9-3"/><linearGradient id="linearGradient3801-1" x1="-18" x2="-22" y1="18" y2="5" gradientUnits="userSpaceOnUse" xlink:href="#linearGradient3836-9-3"/><linearGradient id="linearGradient3801-1-3-7-3" x1="-18" x2="-22" y1="18" y2="5" gradientUnits="userSpaceOnUse" xlink:href="#linearGradient3836-9-3"/><linearGradient id="linearGradient42" x1="-18" x2="-22" y1="18" y2="5" gradientTransform="matrix(0.82607043,0,0,0.82533448,-4.0098079,1.346708)" gradientUnits="userSpaceOnUse" xlink:href="#linearGradient3836-9-3"/><linearGradient id="linearGradient43" x1="-18" x2="-22" y1="18" y2="5" gradientTransform="matrix(0.82607043,0,0,0.82533448,-4.0098079,1.346708)" gradientUnits="userSpaceOnUse" xlink:href="#linearGradient3836-9-3"/><linearGradient id="linearGradient3801-1-3-7-3-0" x1="-18" x2="-22" y1="18" y2="5" gradientUnits="userSpaceOnUse" xlink:href="#linearGradient3836-9-3"/><linearGradient id="linearGradient3203" x1="-18" x2="-22" y1="18" y2="5" gradientUnits="userSpaceOnUse" xlink:href="#linearGradient3836-9-3"/><linearGradient id="linearGradient47" x1="-18" x2="-22" y1="18" y2="5" gradientTransform="matrix(0.82607043,0,0,0.82533448,-4.0098079,1.346708)" gradientUnits="userSpaceOnUse" xlink:href="#linearGradient3836-9-3"/><linearGradient id="linearGradient49" x1="-18" x2="-22" y1="18" y2="5" gradientTransform="matrix(0.82607043,0,0,0.82533448,-4.0098079,1.346708)" gradientUnits="userSpaceOnUse" xlink:href="#linearGradient3836-9-3"/><linearGradient id="linearGradient2"><stop style="stop-color:#73d216;stop-opacity:1" id="stop1" offset="0"/><stop style="stop-color:#8ae234;stop-opacity:1" id="stop2" offset="1"/></linearGradient></defs><metadata id="metadata2874"/><g id="layer3" transform="translate(0.25)" style="display:inline"><g id="g4470" transform="matrix(0.1460346,0,0,0.1460346,-220.35298,-62.296235)"><path style="fill:none;stroke:#162c02;stroke-width:54.7815;stroke-linecap:butt;stroke-linejoin:miter;stroke-opacity:1" id="path3102" d="m 1575.4019,499.20708 c 0,0 13.6953,301.29849 143.4102,301.29849 129.7148,0 158.6708,-301.29849 158.6708,-301.29849"/><path style="fill:none;stroke:#73d216;stroke-width:27.3909;stroke-linecap:butt;stroke-linejoin:miter;stroke-opacity:1" id="path3102-8" d="m 1575.4019,499.20708 c 0,0 13.6954,301.29851 143.4103,301.29851 129.7147,0 158.6707,-301.29851 158.6707,-301.29851"/><path style="fill:none;stroke:#8ae234;stroke-width:13.6955;stroke-linecap:butt;stroke-linejoin:miter;stroke-opacity:1" id="path3102-2" d="m 1583.0322,491.67462 c 0,0 6.065,301.29849 135.7799,301.29849 129.7147,0 151.0405,-301.29849 151.0405,-301.29849"/></g><g id="g3797-9-5-5-2" transform="matrix(0.77869459,0,0,0.77869445,25.241125,4.2028991)" style="stroke-width:1.2842"><path style="fill:none;stroke:#2e0000;stroke-width:2.56841;stroke-miterlimit:4;stroke-dasharray:none;stroke-opacity:1" id="path4250-71-6-6-4" d="M -26.310778,5.3580033 A 8.3519646,8.3515832 0.02039876 1 1 -13.623399,16.222662 8.3519646,8.3515832 0.02039876 1 1 -26.310778,5.3580033 Z"/><path style="fill:url(#linearGradient42);fill-opacity:1;stroke:#ef2929;stroke-width:2.56842;stroke-miterlimit:4;stroke-dasharray:none;stroke-opacity:1" id="path4250-7-3-2-2-4" d="m -24.358888,7.0362241 a 5.782493,5.7773415 0 1 1 8.784093,7.5158349 5.782493,5.7773415 0 0 1 -8.784093,-7.5158349 z"/></g><g id="g43" transform="matrix(0.77869459,0,0,0.77869445,47.298264,46.015138)" style="stroke-width:1.2842"><path style="fill:none;stroke:#2e0000;stroke-width:2.56841;stroke-miterlimit:4;stroke-dasharray:none;stroke-opacity:1" id="path42" d="M -26.310778,5.3580033 A 8.3519646,8.3515832 0.02039876 1 1 -13.623399,16.222662 8.3519646,8.3515832 0.02039876 1 1 -26.310778,5.3580033 Z"/><path style="fill:url(#linearGradient43);fill-opacity:1;stroke:#ef2929;stroke-width:2.56842;stroke-miterlimit:4;stroke-dasharray:none;stroke-opacity:1" id="path43" d="m -24.358888,7.0362241 a 5.782493,5.7773415 0 1 1 8.784093,7.5158349 5.782493,5.7773415 0 0 1 -8.784093,-7.5158349 z"/></g><g id="g47" transform="matrix(0.77869459,0,0,0.77869445,69.355403,4.2028991)" style="stroke-width:1.2842"><path style="fill:none;stroke:#2e0000;stroke-width:2.56841;stroke-miterlimit:4;stroke-dasharray:none;stroke-opacity:1" id="path46" d="M -26.310778,5.3580033 A 8.3519646,8.3515832 0.02039876 1 1 -13.623399,16.222662 8.3519646,8.3515832 0.02039876 1 1 -26.310778,5.3580033 Z"/><path style="fill:url(#linearGradient47);fill-opacity:1;stroke:#ef2929;stroke-width:2.56842;stroke-miterlimit:4;stroke-dasharray:none;stroke-opacity:1" id="path47" d="m -24.358888,7.0362241 a 5.782493,5.7773415 0 1 1 8.784093,7.5158349 5.782493,5.7773415 0 0 1 -8.784093,-7.5158349 z"/></g><g id="g49" transform="matrix(0.77869459,0,0,0.77869445,47.298264,24.015138)" style="stroke-width:1.2842"><path style="fill:none;stroke:#2e0000;stroke-width:2.56841;stroke-miterlimit:4;stroke-dasharray:none;stroke-opacity:1" id="path48" d="M -26.310778,5.3580033 A 8.3519646,8.3515832 0.02039876 1 1 -13.623399,16.222662 8.3519646,8.3515832 0.02039876 1 1 -26.310778,5.3580033 Z"/><path style="fill:url(#linearGradient49);fill-opacity:1;stroke:#ef2929;stroke-width:2.56842;stroke-miterlimit:4;stroke-dasharray:none;stroke-opacity:1" id="path49" d="m -24.358888,7.0362241 a 5.782493,5.7773415 0 1 1 8.784093,7.5158349 5.782493,5.7773415 0 0 1 -8.784093,-7.5158349 z"/></g></g></svg>