<svg xmlns="http://www.w3.org/2000/svg" xmlns:svg="http://www.w3.org/2000/svg" xmlns:xlink="http://www.w3.org/1999/xlink" id="svg2869" width="64" height="64" version="1.1" viewBox="0 0 64 64"><defs id="defs2871"><linearGradient id="linearGradient2"><stop style="stop-color:#73d216;stop-opacity:1" id="stop1" offset="0"/><stop style="stop-color:#8ae234;stop-opacity:1" id="stop2" offset="1"/></linearGradient><linearGradient id="linearGradient17"><stop style="stop-color:#fff;stop-opacity:1" id="stop16" offset="0"/><stop style="stop-color:#fff;stop-opacity:0" id="stop17" offset="1"/></linearGradient><linearGradient id="linearGradient5"><stop style="stop-color:#ef2929;stop-opacity:1" id="stop19" offset="0"/><stop style="stop-color:#ef2929;stop-opacity:0" id="stop20" offset="1"/></linearGradient><linearGradient id="swatch18"><stop style="stop-color:#ef2929;stop-opacity:1" id="stop18" offset="0"/></linearGradient><linearGradient id="swatch15"><stop style="stop-color:#3d0000;stop-opacity:1" id="stop15" offset="0"/></linearGradient><linearGradient id="linearGradient5-1"><stop style="stop-color:#ef2929;stop-opacity:1" id="stop5" offset="0"/><stop style="stop-color:#ef2929;stop-opacity:0" id="stop6" offset="1"/></linearGradient><linearGradient id="linearGradient3836-9"><stop style="stop-color:#a40000;stop-opacity:1" id="stop3838-8" offset="0"/><stop style="stop-color:#ef2929;stop-opacity:1" id="stop3840-1" offset="1"/></linearGradient><linearGradient id="linearGradient3836-9-3"><stop style="stop-color:#a40000;stop-opacity:1" id="stop3838-8-5" offset="0"/><stop style="stop-color:#ef2929;stop-opacity:1" id="stop3840-1-6" offset="1"/></linearGradient><linearGradient id="linearGradient3082" x1="-18" x2="-22" y1="18" y2="5" gradientUnits="userSpaceOnUse" xlink:href="#linearGradient3836-9-3"/><linearGradient id="linearGradient3836-9-7"><stop style="stop-color:#a40000;stop-opacity:1" id="stop3838-8-0" offset="0"/><stop style="stop-color:#ef2929;stop-opacity:1" id="stop3840-1-9" offset="1"/></linearGradient><linearGradient id="linearGradient3082-3" x1="-18" x2="-22" y1="18" y2="5" gradientUnits="userSpaceOnUse" xlink:href="#linearGradient3836-9-7"/><linearGradient id="linearGradient3801-1-3" x1="-18" x2="-22" y1="18" y2="5" gradientTransform="matrix(0.76342439,0,0,0.75750425,-4.596389,2.7525637)" gradientUnits="userSpaceOnUse" xlink:href="#linearGradient3836-9-3"/><linearGradient id="linearGradient3801-1-3-2" x1="-18" x2="-22" y1="18" y2="5" gradientTransform="matrix(0.84956703,0,0,0.84301394,-2.927337,1.7790378)" gradientUnits="userSpaceOnUse" xlink:href="#linearGradient3836-9-3"/><radialGradient id="radialGradient3815" cx="225.938" cy="91.957" r="22" fx="225.938" fy="91.957" gradientTransform="matrix(-1.4090915,3.8636359,-0.97565325,-0.35582669,437.08461,-816.22007)" gradientUnits="userSpaceOnUse" xlink:href="#linearGradient3809"/><linearGradient id="linearGradient3809"><stop style="stop-color:#729fcf;stop-opacity:1" id="stop3811" offset="0"/><stop style="stop-color:#204a87;stop-opacity:1" id="stop3813" offset="1"/></linearGradient><linearGradient id="linearGradient3444" x1="-18" x2="-22" y1="18" y2="5" gradientTransform="matrix(0.90206746,0,0,0.90216902,-1.9060863,1.1084289)" gradientUnits="userSpaceOnUse" xlink:href="#linearGradient3836-9-3"/><linearGradient id="linearGradient3857" x1="-18" x2="-22" y1="18" y2="5" gradientTransform="matrix(0.89262616,0,0,0.89258466,72.894067,1.2176306)" gradientUnits="userSpaceOnUse" xlink:href="#linearGradient3836-9-3"/><linearGradient id="linearGradient3148" x1="-18" x2="-22" y1="18" y2="5" gradientTransform="matrix(0.93724177,0,0,0.93725692,-1.2227671,0.70650014)" gradientUnits="userSpaceOnUse" xlink:href="#linearGradient3836-9-3"/><linearGradient id="linearGradient14" x1="-18" x2="-22" y1="18" y2="5" gradientTransform="matrix(0.82607043,0,0,0.82533448,-4.0098079,1.346708)" gradientUnits="userSpaceOnUse" xlink:href="#linearGradient3836-9-3"/><linearGradient id="linearGradient16" x1="-18" x2="-22" y1="18" y2="5" gradientTransform="matrix(0.82607043,0,0,0.82533448,-4.0098079,1.346708)" gradientUnits="userSpaceOnUse" xlink:href="#linearGradient3836-9-3"/><linearGradient id="linearGradient3898" x1="37.429" x2="24.483" y1="41.591" y2="4.91" gradientUnits="userSpaceOnUse" xlink:href="#linearGradient17"/><linearGradient id="linearGradient3892"><stop style="stop-color:#bdd2e9;stop-opacity:1" id="stop3894" offset="0"/><stop style="stop-color:#fff;stop-opacity:0" id="stop3896" offset="1"/></linearGradient><linearGradient id="linearGradient3856" x1="22.843" x2="30.784" y1="4.824" y2="28.645" gradientUnits="userSpaceOnUse" xlink:href="#linearGradient3892"/><linearGradient id="linearGradient18" x1="-18" x2="-22" y1="18" y2="5" gradientTransform="matrix(0.82607043,0,0,0.82533448,-4.0098079,1.346708)" gradientUnits="userSpaceOnUse" xlink:href="#linearGradient2"/></defs><metadata id="metadata2874"/><g id="layer3" transform="translate(0.25)" style="display:inline"><g id="layer1" transform="translate(-0.24999998)"><path style="display:inline;fill:none;stroke:#151819;stroke-width:8;stroke-linecap:round;stroke-linejoin:round;stroke-miterlimit:100;stroke-dasharray:none;stroke-dashoffset:3.45;stroke-opacity:1" id="path2" d="M -13.685776,15.235369 A 36,36 0 0 1 -48.854274,51.225765" transform="rotate(-88.62016)"/><path style="fill:#fff;stroke-linecap:round;stroke-linejoin:round;stroke-miterlimit:100;stroke-dashoffset:3.45;fill-opacity:1" id="path3" d="M 14.951172,12.048828 A 2,2 0 0 0 12.902344,14 a 2,2 0 0 0 0.01172,0.06836 36,36 0 0 1 27.060546,11.007813 36,36 0 0 1 10.001953,26.986328 2,2 0 0 0 0.05469,0.01172 2,2 0 0 0 2.001953,-1.998047 C 52.053484,29.45341 35.567964,12.545433 14.951172,12.048828 Z"/><path style="display:inline;fill:#d3d7cf;fill-opacity:1;stroke:none;stroke-linecap:round;stroke-linejoin:round;stroke-miterlimit:100;stroke-dashoffset:3.45" id="path4" d="M 49.976562,52.0625 A 36,36 0 0 0 39.974609,25.076172 36,36 0 0 0 12.914063,14.068359 a 2,2 0 0 0 1.939453,1.980469 c 18.48833,0.445336 33.199828,15.529753 33.18164,34.023438 a 2,2 0 0 0 1.941406,1.990234 z"/></g><g id="g14" transform="matrix(0.77869459,0,0,0.77869445,65.33141,41.811165)" style="stroke-width:1.2842"><path style="fill:none;stroke:#2e0000;stroke-width:2.56841;stroke-miterlimit:4;stroke-dasharray:none;stroke-opacity:1" id="path13" d="M -26.310778,5.3580033 A 8.3519646,8.3515832 0.02039876 1 1 -13.623399,16.222662 8.3519646,8.3515832 0.02039876 1 1 -26.310778,5.3580033 Z"/><path style="fill:url(#linearGradient14);fill-opacity:1;stroke:#ef2929;stroke-width:2.56842;stroke-miterlimit:4;stroke-dasharray:none;stroke-opacity:1" id="path14" d="m -24.358888,7.0362241 a 5.782493,5.7773415 0 1 1 8.784093,7.5158349 5.782493,5.7773415 0 0 1 -8.784093,-7.5158349 z"/></g><g id="g16" transform="matrix(0.77869459,0,0,0.77869445,29.298264,41.597628)" style="stroke-width:1.2842"><path style="fill:none;stroke:#2e0000;stroke-width:2.56841;stroke-miterlimit:4;stroke-dasharray:none;stroke-opacity:1" id="path15" d="M -26.310778,5.3580033 A 8.3519646,8.3515832 0.02039876 1 1 -13.623399,16.222662 8.3519646,8.3515832 0.02039876 1 1 -26.310778,5.3580033 Z"/><path style="fill:url(#linearGradient16);fill-opacity:1;stroke:#ef2929;stroke-width:2.56842;stroke-miterlimit:4;stroke-dasharray:none;stroke-opacity:1" id="path16" d="m -24.358888,7.0362241 a 5.782493,5.7773415 0 1 1 8.784093,7.5158349 5.782493,5.7773415 0 0 1 -8.784093,-7.5158349 z"/></g><g id="g18" transform="matrix(0.77869459,0,0,0.77869445,29.298264,5.5976279)" style="stroke-width:1.2842"><path style="fill:none;stroke:#162c02;stroke-width:2.56841;stroke-miterlimit:4;stroke-dasharray:none;stroke-opacity:1" id="path17" d="M -26.310778,5.3580033 A 8.3519646,8.3515832 0.02039876 1 1 -13.623399,16.222662 8.3519646,8.3515832 0.02039876 1 1 -26.310778,5.3580033 Z"/><path style="fill:url(#linearGradient18);fill-opacity:1;stroke:#8ae234;stroke-width:2.56842;stroke-miterlimit:4;stroke-dasharray:none;stroke-opacity:1" id="path18" d="m -24.358888,7.0362241 a 5.782493,5.7773415 0 1 1 8.784093,7.5158349 5.782493,5.7773415 0 0 1 -8.784093,-7.5158349 z"/></g></g></svg>