<svg xmlns="http://www.w3.org/2000/svg" xmlns:svg="http://www.w3.org/2000/svg" xmlns:xlink="http://www.w3.org/1999/xlink" id="svg2160" width="64" height="64" version="1.1"><title id="title845">TechDraw_TreeSection</title><defs id="defs2162"><linearGradient id="linearGradient3020"><stop style="stop-color:#555753;stop-opacity:1" id="stop3022" offset="0"/><stop style="stop-color:#d3d7cf;stop-opacity:1" id="stop3024" offset="1"/></linearGradient><linearGradient id="linearGradient3841" x1="24.012" x2="22.6" y1="22.427" y2="19.585" gradientTransform="matrix(1.125,0,0,1.125,-2.6044404,-2.3593338)" gradientUnits="userSpaceOnUse" xlink:href="#linearGradient3827"/><linearGradient id="linearGradient3827"><stop id="stop3829" offset="0" style="stop-color:#d3d7cf;stop-opacity:1"/><stop id="stop3831" offset="1" style="stop-color:#fff;stop-opacity:1"/></linearGradient><linearGradient id="linearGradient3833" x1="32" x2="26" y1="-15" y2="13" gradientTransform="matrix(1.125,0,0,-1.125,-4,-1.125)" gradientUnits="userSpaceOnUse" xlink:href="#linearGradient3020"/></defs><metadata id="metadata2165"/><g id="layer1" transform="matrix(0.88888889,0,0,0.88888889,3.5555556,32)" style="stroke-width:1.125"><path id="rect4138-1" width="54" height="54" x="5" y="-27" d="M 5,-22.5 V -27 h 4.5 m 9,0 h 9 m 9,0 h 9 m 9,0 H 59 l 0,4.5 m 0,9 v 9 m 0,9 v 9 m 0,9 V 27 h -4.5 m -9,0 h -9 m -9,0 h -9 m -9,0 H 5 v -4.5 m 0,-9 v -9 m 0,-9 v -9 m 0,-9 V -27" style="display:inline;fill:none;stroke:#2e3436;stroke-width:6.75;stroke-linecap:round;stroke-linejoin:round;stroke-miterlimit:4;stroke-dasharray:none;stroke-dashoffset:8.775;stroke-opacity:1"/><path id="path1" width="54" height="54" x="5" y="-27" d="M 5,-22.5 V -27 h 4.5 m 9,0 h 9 m 9,0 h 9 m 9,0 H 59 l 0,4.5 m 0,9 v 9 m 0,9 v 9 m 0,9 V 27 h -4.5 m -9,0 h -9 m -9,0 h -9 m -9,0 H 5 v -4.5 m 0,-9 v -9 m 0,-9 v -9 m 0,-9 V -27" style="display:inline;fill:none;stroke:#eeeeec;stroke-width:2.25;stroke-linecap:round;stroke-linejoin:round;stroke-miterlimit:4;stroke-dasharray:none;stroke-dashoffset:8.775;stroke-opacity:1"/><path id="path7047-7" d="M 13,17 V -17 H 51 V 8.000001 H 27 C 27,8.000001 27,17 19,17 c -4,0 -6,0 -6,0 z" style="fill:url(#linearGradient3833);fill-opacity:1;fill-rule:evenodd;stroke:#2e3436;stroke-width:2.25;stroke-linecap:round;stroke-linejoin:round;stroke-opacity:1"/><path id="path7047-4" d="M 15,15 V -15 H 49 V 5.9999998 H 25 C 25,5.9999998 25,15 20,15 c -4,0 -5,0 -5,0 z" style="fill:none;stroke:#d3d7cf;stroke-width:2.25;stroke-linecap:round;stroke-linejoin:miter;stroke-opacity:1"/><ellipse id="path7049-4" cx="22.953" cy="21.006" rx="2.47" ry="2.487" transform="matrix(2.8336091,0,0,2.8149673,-27.039729,-53.131581)" style="fill:url(#linearGradient3841);fill-opacity:1;stroke:#2e3436;stroke-width:.796665;stroke-linecap:round;stroke-linejoin:round;stroke-miterlimit:4;stroke-dasharray:none;stroke-dashoffset:0;stroke-opacity:1"/><ellipse id="path7049-0" cx="22.953" cy="21.006" rx="2.47" ry="2.487" transform="matrix(2.0240063,0,0,2.0106911,-8.4569449,-36.236847)" style="fill:none;stroke:#fff;stroke-width:1.11533;stroke-linecap:round;stroke-linejoin:round;stroke-miterlimit:4;stroke-dasharray:none;stroke-dashoffset:0;stroke-opacity:1"/></g></svg>