<svg xmlns="http://www.w3.org/2000/svg" xmlns:svg="http://www.w3.org/2000/svg" xmlns:xlink="http://www.w3.org/1999/xlink" id="svg2160" width="64" height="64" version="1.1"><title id="title842">TechDraw_TreeView</title><defs id="defs2162"><linearGradient id="linearGradient3827"><stop id="stop3829" offset="0" style="stop-color:#d3d7cf;stop-opacity:1"/><stop id="stop3831" offset="1" style="stop-color:#fff;stop-opacity:1"/></linearGradient><linearGradient id="linearGradient3833" x1="34" x2="28" y1="14" y2="-17" gradientTransform="translate(0,1)" gradientUnits="userSpaceOnUse" xlink:href="#linearGradient3827"/><linearGradient id="linearGradient3841" x1="24.012" x2="22.6" y1="22.427" y2="19.585" gradientUnits="userSpaceOnUse" xlink:href="#linearGradient3827"/></defs><metadata id="metadata2165"/><g id="layer1" transform="translate(0,32)"><rect id="rect4138" width="54" height="54" x="5" y="-27" style="fill:none;stroke:#2e3436;stroke-width:6;stroke-linecap:round;stroke-linejoin:round;stroke-miterlimit:4;stroke-dasharray:6,12;stroke-dashoffset:7.8;stroke-opacity:1"/><path id="path7047" d="M 13,-17 V 17 H 51 V -8.0000003 H 27 C 27,-8.0000003 27,-17 19,-17 c -4,0 -6,0 -6,0 z" style="fill:url(#linearGradient3833);fill-opacity:1;fill-rule:evenodd;stroke:#2e3436;stroke-width:2;stroke-linecap:round;stroke-linejoin:round;stroke-opacity:1"/><ellipse id="path7049" cx="22.953" cy="21.006" rx="2.47" ry="2.487" transform="matrix(2.8336091,0,0,2.8149673,-27.039729,-54.131581)" style="fill:url(#linearGradient3841);fill-opacity:1;stroke:#2e3436;stroke-width:.708147;stroke-linecap:round;stroke-linejoin:round;stroke-miterlimit:4;stroke-dasharray:none;stroke-dashoffset:0;stroke-opacity:1"/><rect id="rect4138-7" width="54" height="54" x="5" y="-27" style="fill:none;stroke:#babdb6;stroke-width:2;stroke-linecap:round;stroke-linejoin:round;stroke-miterlimit:4;stroke-dasharray:6,12;stroke-dashoffset:7.8;stroke-opacity:1"/><path id="path7047-4" d="M 15,-15 V 15 H 49 V -6 H 25 c 0,0 0,-9 -5,-9 -4,0 -5,0 -5,0 z" style="fill:none;stroke:#fff;stroke-width:2;stroke-linecap:round;stroke-linejoin:miter;stroke-opacity:1"/><ellipse id="path7049-0" cx="22.953" cy="21.006" rx="2.47" ry="2.487" transform="matrix(2.0240063,0,0,2.0106911,-8.4569445,-37.236847)" style="fill:none;stroke:#fff;stroke-width:.991406;stroke-linecap:round;stroke-linejoin:round;stroke-miterlimit:4;stroke-dasharray:none;stroke-dashoffset:0;stroke-opacity:1"/></g></svg>