<svg xmlns="http://www.w3.org/2000/svg" xmlns:svg="http://www.w3.org/2000/svg" id="svg2869" width="64" height="64" version="1.1" viewBox="0 0 64 64"><metadata id="metadata2874"/><path style="color:#000;fill:#000;fill-rule:evenodd;stroke-linecap:round;-inkscape-stroke:none;fill-opacity:1" id="path25" d="m 46.537109,13.740234 a 3.000005,3.000005 0 0 1 -2.121093,3.673828 C 31.625728,20.84121 21.645898,30.821041 18.21875,43.611328 a 3.000005,3.000005 0 0 1 -3.675781,2.123047 3.000005,3.000005 0 0 1 -2.121094,-3.675781 C 16.401336,27.207044 28.011732,15.598601 42.863281,11.619141 a 3.000005,3.000005 0 0 1 3.673828,2.121093 z"/><path id="path23" d="M 5.3378906 37.279297 L 11.080078 58.662109 L 26.742188 43.013672 L 5.3378906 37.279297 z" style="color:#000;fill:#000;fill-rule:evenodd;-inkscape-stroke:none;fill-opacity:1"/><path id="path20" d="M 38.083984 4.5351562 L 43.818359 25.939453 L 59.464844 10.275391 L 38.083984 4.5351562 z" style="color:#000;fill:#000;fill-rule:evenodd;-inkscape-stroke:none;fill-opacity:1"/><path style="color:#000;fill:#000;fill-rule:evenodd;stroke-linecap:round;stroke-linejoin:round;-inkscape-stroke:none;fill-opacity:1" id="path2-6" d="m 11.207031,8.3007813 a 3.000005,3.000005 0 0 0 -2.1210935,0.8789062 3.000005,3.000005 0 0 0 0,4.2421875 L 51.914062,56.25 a 3.000005,3.000005 0 0 0 4.242188,0 3.000005,3.000005 0 0 0 0,-4.242188 L 13.328125,9.1796875 A 3.000005,3.000005 0 0 0 11.207031,8.3007813 Z"/></svg>