<svg xmlns="http://www.w3.org/2000/svg" xmlns:svg="http://www.w3.org/2000/svg" xmlns:xlink="http://www.w3.org/1999/xlink" id="svg2985" width="64" height="64" version="1.1"><title id="title853">Draft_Layers</title><defs id="defs2987"><linearGradient id="linearGradient3815"><stop id="stop3817" offset="0" style="stop-color:#d3d7cf;stop-opacity:1"/><stop id="stop3819" offset="1" style="stop-color:#fff;stop-opacity:1"/></linearGradient><linearGradient id="linearGradient2" x1="53.257" x2="25.929" y1="19.086" y2="-1.382" gradientTransform="matrix(0.64426076,0,0,0.63928583,17.931015,13.729721)" gradientUnits="userSpaceOnUse" xlink:href="#linearGradient3815"/><linearGradient id="linearGradient1" x1="53.257" x2="25.929" y1="19.086" y2="-1.382" gradientTransform="matrix(0.66067504,0,0,0.63929414,18.06576,5.8678762)" gradientUnits="userSpaceOnUse" xlink:href="#linearGradient3815"/><linearGradient id="linearGradient3" x1="53.257" x2="25.929" y1="19.086" y2="-1.382" gradientTransform="matrix(0.66067504,0,0,0.63929414,18.06576,-1.9839915)" gradientUnits="userSpaceOnUse" xlink:href="#linearGradient3815"/></defs><metadata id="metadata5826"/><g id="layer2" transform="matrix(1.5298962,0,0,1.5282988,-16.690014,-13.850775)" style="display:inline;stroke-width:.653981"><path style="display:inline;overflow:visible;fill:url(#linearGradient2);fill-rule:evenodd;stroke:#2e3436;stroke-width:1.2916;stroke-linejoin:round;stroke-dasharray:none;marker:none;enable-background:accumulate" id="path1-2" d="M 26.887294,28.702625 49.196281,37.863018 36.448288,48.332039 14.139301,39.171646 Z" transform="matrix(1.0254777,0,0,1.000013,-0.3220963,-0.01045756)"/><path id="path3-2" d="m 16.744141,38.779882 c 6.697265,2.682292 13.394531,5.364583 20.091797,8.046875 3.574869,-2.863281 7.149739,-5.726563 10.724609,-8.589844 -6.697266,-2.682292 -13.394531,-5.364583 -20.091797,-8.046875 -3.57487,2.863281 -7.14974,5.726563 -10.724609,8.589844 z" style="display:inline;fill:none;stroke:#fff;stroke-width:1.30796;stroke-linecap:butt;stroke-linejoin:miter;stroke-dasharray:none;stroke-opacity:1"/><path style="display:inline;overflow:visible;fill:url(#linearGradient1);fill-rule:evenodd;stroke:#2e3436;stroke-width:1.30796;stroke-linejoin:round;stroke-dasharray:none;marker:none;enable-background:accumulate" id="path1-2-9" d="M 27.250224,20.840975 50.127593,30.001487 37.05481,40.470644 14.177442,31.310132 Z"/><path id="path3-5" d="m 16.744141,30.928014 c 6.697265,2.682292 13.394531,5.364583 20.091797,8.046875 3.574869,-2.863281 7.149739,-5.726563 10.724609,-8.589844 -6.697266,-2.682292 -13.394531,-5.364583 -20.091797,-8.046875 -3.57487,2.863281 -7.14974,5.726563 -10.724609,8.589844 z" style="display:inline;fill:none;stroke:#fff;stroke-width:1.30796;stroke-linecap:butt;stroke-linejoin:miter;stroke-dasharray:none;stroke-opacity:1"/><path style="display:inline;overflow:visible;fill:url(#linearGradient3);fill-rule:evenodd;stroke:#2e3436;stroke-width:1.30796;stroke-linejoin:round;stroke-dasharray:none;marker:none;enable-background:accumulate" id="path1-2-3" d="M 27.250224,12.989107 50.127593,22.149619 37.05481,32.618776 14.177442,23.458264 Z"/><path id="path3" d="m 16.744141,23.076172 c 6.697265,2.682292 13.394531,5.364583 20.091797,8.046875 3.574869,-2.863281 7.149739,-5.726563 10.724609,-8.589844 -6.697266,-2.682292 -13.394531,-5.364583 -20.091797,-8.046875 -3.57487,2.863281 -7.14974,5.726563 -10.724609,8.589844 z" style="fill:none;stroke:#fff;stroke-width:1.30796;stroke-linecap:butt;stroke-linejoin:miter;stroke-dasharray:none;stroke-opacity:1"/></g></svg>