<svg xmlns="http://www.w3.org/2000/svg" xmlns:svg="http://www.w3.org/2000/svg" xmlns:xlink="http://www.w3.org/1999/xlink" id="svg3018" width="64" height="64" version="1.1"><defs id="defs3020"><linearGradient id="linearGradient4"><stop style="stop-color:#fce94f;stop-opacity:1" id="stop4" offset="0"/><stop style="stop-color:#d5b618;stop-opacity:1" id="stop5" offset="1"/></linearGradient><linearGradient id="linearGradient3759"><stop id="stop3761" offset="0" style="stop-color:#c4a000;stop-opacity:1"/><stop id="stop3763" offset="1" style="stop-color:#fce94f;stop-opacity:1"/></linearGradient><linearGradient id="linearGradient3765" x1="168.903" x2="149.609" y1="171.571" y2="156.153" gradientUnits="userSpaceOnUse" xlink:href="#linearGradient3759"/><linearGradient id="linearGradient3773" x1="168.903" x2="161.025" y1="171.571" y2="151.81" gradientUnits="userSpaceOnUse" xlink:href="#linearGradient3759"/><linearGradient id="linearGradient4696-1" x1="168.903" x2="161.025" y1="171.571" y2="151.81" gradientTransform="matrix(1.0117827,0,0,1.0010613,-131.94627,-139.97322)" gradientUnits="userSpaceOnUse" xlink:href="#linearGradient3759"/><linearGradient id="linearGradient4777" x1="168.903" x2="161.025" y1="171.571" y2="151.81" gradientTransform="matrix(0.50589135,0.87622952,-0.86694452,0.50053065,271.74898,6.9955571)" gradientUnits="userSpaceOnUse" xlink:href="#linearGradient3759"/><linearGradient id="linearGradient4825" x1="-69.189" x2="-80.687" y1="218.916" y2="213.655" gradientTransform="matrix(-0.49453388,0.85656044,-0.84748387,-0.48929653,300.6374,365.25759)" gradientUnits="userSpaceOnUse" xlink:href="#linearGradient3759"/><linearGradient id="linearGradient5" x1="23.999" x2="23.999" y1="51.191" y2="39.191" gradientTransform="translate(28.000639,3.8094673)" gradientUnits="userSpaceOnUse" xlink:href="#linearGradient4"/></defs><metadata id="metadata3023"/><g id="layer2"><path id="path4775" d="m 162.9126,191.19577 10.3923,-6 4.02628,-15.02628 3.66025,-13.66026 -14,-24.24871 -22.51666,13 14,24.24871 13.66026,3.66026 -2.56218,9.56218 -8.66025,5" transform="rotate(-60,-19.885003,211.41896)" style="color:#000;clip-rule:nonzero;display:inline;overflow:visible;visibility:visible;opacity:1;isolation:auto;mix-blend-mode:normal;color-interpolation:sRGB;color-interpolation-filters:linearRGB;solid-color:#000;solid-opacity:1;fill:#f6efd1;fill-opacity:1;fill-rule:nonzero;stroke:#353535;stroke-width:2;stroke-linecap:round;stroke-linejoin:round;stroke-miterlimit:4;stroke-dasharray:none;stroke-dashoffset:0;stroke-opacity:1;marker:none;marker-start:none;marker-mid:none;marker-end:none;color-rendering:auto;image-rendering:auto;shape-rendering:auto;text-rendering:auto;enable-background:accumulate"/><path id="path3854" d="m 162.19721,141.95668 8.5,14.72243 m -15.42821,-10.72243 8.5,14.72243" transform="rotate(-60,-19.885003,211.41896)" style="opacity:1;fill:none;fill-opacity:1;stroke:#2d2d2d;stroke-width:3;stroke-linecap:round;stroke-linejoin:miter;stroke-miterlimit:4;stroke-dasharray:none;stroke-dashoffset:0;stroke-opacity:1"/><ellipse style="display:inline;overflow:visible;visibility:visible;fill:#302b00;fill-opacity:1;fill-rule:evenodd;stroke:#242421;stroke-width:2.99999;stroke-linecap:butt;stroke-linejoin:bevel;stroke-miterlimit:4;stroke-dasharray:none;stroke-dashoffset:0;stroke-opacity:1;marker:none;enable-background:accumulate" id="path3859" cx="166.9" cy="-169.13" rx="1.513" ry="1.5" transform="matrix(0.87082765,0.49158843,-0.48894475,0.87231475,-193.03669,88.488562)"/><path id="path3757" d="m 147.20508,145.99023 c 4.19466,7.26693 8.38932,14.53386 12.58398,21.80079 4.02214,1.07747 8.04427,2.15494 12.06641,3.23242 1.2526,-0.72331 2.50521,-1.44662 3.75781,-2.16992 1.07682,-4.02149 2.15365,-8.04297 3.23047,-12.06446 -4.19401,-7.26627 -8.38802,-14.53255 -12.58203,-21.79883 -6.35221,3.66667 -12.70443,7.33334 -19.05664,11 z" transform="rotate(-60,-19.885003,211.41896)" style="fill:none;stroke:#e2e2e2;stroke-width:2;stroke-linecap:butt;stroke-linejoin:miter;stroke-dasharray:none;stroke-opacity:1"/><circle style="fill:url(#linearGradient5);stroke:#302b00;stroke-width:2;stroke-linecap:round;stroke-miterlimit:1;stroke-dasharray:none;stroke-opacity:1" id="path1" cx="52" cy="49" r="6"/></g></svg>