<svg xmlns="http://www.w3.org/2000/svg" xmlns:svg="http://www.w3.org/2000/svg" xmlns:xlink="http://www.w3.org/1999/xlink" id="svg2985" width="64" height="64" version="1.1"><defs id="defs2987"><linearGradient id="linearGradient3815"><stop id="stop3817" offset="0" style="stop-color:#d3d7cf;stop-opacity:1"/><stop id="stop3819" offset="1" style="stop-color:#fff;stop-opacity:1"/></linearGradient><linearGradient id="linearGradient3" x1="53.257" x2="25.929" y1="19.086" y2="-1.382" gradientTransform="matrix(1.0107642,0,0,0.97703247,10.948724,-16.882907)" gradientUnits="userSpaceOnUse" xlink:href="#linearGradient3815"/><linearGradient id="linearGradient1" x1="53.257" x2="25.929" y1="19.086" y2="-1.382" gradientTransform="matrix(1.0107642,0,0,0.97703247,10.948724,-4.8829068)" gradientUnits="userSpaceOnUse" xlink:href="#linearGradient3815"/><linearGradient id="linearGradient2-6" x1="10.237" x2="37.813" y1="36.982" y2="36.982" gradientTransform="matrix(2.06795,0,0,1.1594768,-17.182788,-13.866757)" gradientUnits="userSpaceOnUse"><stop id="stop1-1" offset="0" style="stop-color:#d3d7cf;stop-opacity:1"/><stop id="stop2-2" offset="1" style="stop-color:#fff;stop-opacity:1"/></linearGradient></defs><metadata id="metadata5826"/><g id="layer4"><path style="display:inline;overflow:visible;fill:url(#linearGradient2-6);fill-rule:evenodd;stroke:#2e3436;stroke-width:2;stroke-linejoin:round;stroke-dasharray:none;marker:none;enable-background:accumulate" id="path1-2" d="m 24.999999,30.000002 34.999999,13.999999 -20,16.000001 -34.9999986,-14 z"/><path id="path3-2" d="M 8.9267837,45.416472 C 19.172904,49.515816 29.419026,53.615158 39.665148,57.714502 45.134326,53.338553 50.603506,48.962602 56.072686,44.586653 45.826564,40.48731 35.580444,36.387967 25.334322,32.288624 19.865142,36.664573 14.395962,41.040523 8.9267837,45.416472 Z" style="display:inline;fill:none;stroke:#fff;stroke-width:2;stroke-linecap:butt;stroke-linejoin:miter;stroke-dasharray:none;stroke-opacity:1"/><path style="display:inline;overflow:visible;fill:url(#linearGradient1);fill-rule:evenodd;stroke:#2e3436;stroke-width:2;stroke-linejoin:round;stroke-dasharray:none;marker:none;enable-background:accumulate" id="path1-2-9" d="m 25,18.000462 35,14 -20.000001,16 -34.9999984,-14 z"/><path id="path3-5" d="M 8.9267837,33.416472 C 19.172904,37.515815 29.419026,41.615157 39.665148,45.714501 45.134326,41.338552 50.603506,36.962602 56.072686,32.586653 45.826564,28.487309 35.580444,24.387967 25.334322,20.288623 c -5.46918,4.375949 -10.93836,8.7519 -16.4075383,13.127849 z" style="display:inline;fill:none;stroke:#fff;stroke-width:2;stroke-linecap:butt;stroke-linejoin:miter;stroke-dasharray:none;stroke-opacity:1"/><path style="display:inline;overflow:visible;fill:url(#linearGradient3);fill-rule:evenodd;stroke:#2e3436;stroke-width:2;stroke-linejoin:round;stroke-dasharray:none;marker:none;enable-background:accumulate" id="path1-2-3" d="m 25,6.0004616 35,13.9999994 -20.000001,16 L 5.0000006,22.000462 Z"/><path id="path3" d="M 8.9267837,21.416511 C 19.172904,25.515855 29.419026,29.615197 39.665148,33.71454 45.134326,29.338591 50.603506,24.962641 56.072686,20.586692 45.826564,16.487348 35.580444,12.388006 25.334322,8.2886627 19.865142,12.664612 14.395962,17.040562 8.9267837,21.416511 Z" style="display:inline;fill:none;stroke:#fff;stroke-width:2;stroke-linecap:butt;stroke-linejoin:miter;stroke-dasharray:none;stroke-opacity:1"/></g></svg>