<svg xmlns="http://www.w3.org/2000/svg" xmlns:svg="http://www.w3.org/2000/svg" xmlns:xlink="http://www.w3.org/1999/xlink" id="svg249" width="64" height="64" version="1.1"><defs id="defs3"><linearGradient id="linearGradient3815"><stop id="stop3817" offset="0" style="stop-color:#d3d7cf;stop-opacity:1"/><stop id="stop3819" offset="1" style="stop-color:#fff;stop-opacity:1"/></linearGradient><linearGradient id="linearGradient3805" x1="53.257" x2="25.929" y1="19.086" y2="-1.382" gradientTransform="matrix(0.59766989,0.24054653,-0.48667102,0.4145331,10.764661,9.7034819)" gradientUnits="userSpaceOnUse" xlink:href="#linearGradient3815"/><linearGradient id="linearGradient1" x1="53.257" x2="25.929" y1="19.086" y2="-1.382" gradientTransform="matrix(0.64426076,0,0,0.63928583,17.931015,5.7297178)" gradientUnits="userSpaceOnUse" xlink:href="#linearGradient3815"/><linearGradient id="linearGradient2" x1="53.257" x2="25.929" y1="19.086" y2="-1.382" gradientTransform="matrix(0.64426076,0,0,0.63928583,17.931015,13.729721)" gradientUnits="userSpaceOnUse" xlink:href="#linearGradient3815"/><linearGradient id="linearGradient3771" x1="98" x2="81" y1="1047.362" y2="993.362" gradientTransform="translate(-60,-988.36218)" gradientUnits="userSpaceOnUse" xlink:href="#linearGradient3815"/><linearGradient id="linearGradient3" x1="53.257" x2="25.929" y1="19.086" y2="-1.382" gradientTransform="matrix(0.59766989,0.24054653,-0.48667102,0.4145331,10.764661,7.7030538)" gradientUnits="userSpaceOnUse" xlink:href="#linearGradient3815"/><linearGradient id="linearGradient4" x1="53.257" x2="25.929" y1="19.086" y2="-1.382" gradientTransform="matrix(0.59766989,0.24054653,-0.48667102,0.4145331,10.764661,15.703312)" gradientUnits="userSpaceOnUse" xlink:href="#linearGradient3815"/><linearGradient id="linearGradient5" x1="53.257" x2="25.929" y1="19.086" y2="-1.382" gradientTransform="matrix(0.59766989,0.24054653,-0.48667102,0.4145331,10.764661,23.703419)" gradientUnits="userSpaceOnUse" xlink:href="#linearGradient3815"/></defs><metadata id="metadata4"/><g id="layer1" style="display:inline"><path style="display:inline;fill:url(#linearGradient3771);fill-opacity:1;stroke:#2e3436;stroke-width:2;stroke-linecap:butt;stroke-linejoin:round;stroke-opacity:1" id="path2991" d="m 11,3 v 58.00002 h 42 v -48 L 43,3 Z"/><path style="display:inline;fill:none;stroke:#fff;stroke-width:2;stroke-linecap:butt;stroke-linejoin:miter;stroke-opacity:1" id="path3763" d="M 13,5 V 59.00002 H 51 V 13.81392 L 41.99741,5 Z"/><path style="display:inline;fill:#2e3436;fill-opacity:.392157;stroke:#2e3436;stroke-width:2;stroke-linecap:butt;stroke-linejoin:round;stroke-opacity:1" id="path2993" d="M 43,3 V 13.00002 H 53 Z"/></g><g id="layer2" transform="translate(0,2.0004285)" style="display:inline"><path style="display:inline;overflow:visible;fill:url(#linearGradient2);fill-rule:evenodd;stroke:#2e3436;stroke-width:2.09847;stroke-linejoin:round;marker:none;enable-background:accumulate" id="path1-2" d="M 27.61859,29.010767 48.097062,39.010496 35.420044,49.009865 14.941572,39.010637 Z" transform="matrix(1.0254777,0,0,1.000013,-0.3220963,-0.01045756)"/><path id="path1-6-2" d="M 18.804688,38.598022 C 24.453125,41.288126 30.101562,43.978231 35.75,46.668335 38.898438,44.24646 42.046875,41.824585 45.195312,39.40271 39.546875,36.712606 33.898438,34.022501 28.25,31.332397 c -3.148438,2.421875 -6.296875,4.84375 -9.445312,7.265625 z" style="display:inline;overflow:visible;fill:url(#linearGradient5);fill-rule:evenodd;stroke:#fff;stroke-width:2;stroke-linecap:square;stroke-linejoin:miter;stroke-dasharray:none;marker:none;enable-background:accumulate"/><path style="display:inline;overflow:visible;fill:url(#linearGradient1);fill-rule:evenodd;stroke:#2e3436;stroke-width:2.09847;stroke-linejoin:round;marker:none;enable-background:accumulate" id="path1" d="M 27.61859,21.010764 48.097062,31.010493 35.420044,41.009862 14.941572,31.010634 Z" transform="matrix(1.0254777,0,0,1.000013,-0.3220963,-0.01045756)"/><path id="path1-6-3" d="m 18.804688,30.597915 c 5.648437,2.690104 11.296874,5.380209 16.945312,8.070313 3.148438,-2.421875 6.296875,-4.84375 9.445312,-7.265625 C 39.546875,28.712499 33.898438,26.022394 28.25,23.33229 c -3.148438,2.421875 -6.296875,4.84375 -9.445312,7.265625 z" style="display:inline;overflow:visible;fill:url(#linearGradient4);fill-rule:evenodd;stroke:#fff;stroke-width:2;stroke-linecap:square;stroke-linejoin:miter;stroke-dasharray:none;marker:none;enable-background:accumulate"/><path id="rect2993-0-9" d="M 27.61859,13.010744 48.097062,23.010472 35.420044,33.009841 14.941572,23.010613 Z" transform="matrix(1.0254777,0,0,1.000013,-0.3220963,-0.01045756)" style="display:inline;overflow:visible;fill:url(#linearGradient3805);fill-rule:evenodd;stroke:#2e3436;stroke-width:1.97499;stroke-linejoin:round;marker:none;enable-background:accumulate"/><path id="path1-6" d="m 18.804688,22.597656 c 5.648437,2.690104 11.296874,5.380209 16.945312,8.070313 3.148438,-2.421875 6.296875,-4.84375 9.445312,-7.265625 C 39.546875,20.71224 33.898438,18.022135 28.25,15.332031 c -3.148438,2.421875 -6.296875,4.84375 -9.445312,7.265625 z" style="display:inline;overflow:visible;fill:url(#linearGradient3);fill-rule:evenodd;stroke:#fff;stroke-width:2;stroke-linejoin:miter;marker:none;enable-background:accumulate;stroke-dasharray:none;stroke-linecap:square"/></g></svg>