<svg xmlns="http://www.w3.org/2000/svg" xmlns:svg="http://www.w3.org/2000/svg" id="svg2726" width="64" height="64" version="1.1"><metadata id="metadata6284"/><g id="layer3" style="display:inline"><path id="path3834" d="M 195.15051,756.24602 H 127.30297 V 586.62716 h 181.95478 v 67.84755" transform="matrix(0.1621282,0,0,0.1621282,6.3605986,-66.108806)" style="display:inline;fill:none;stroke:#042a2a;stroke-width:37.0078;stroke-linecap:round;stroke-linejoin:round;stroke-opacity:1"/><path id="path3854-7" d="m 37.333333,57.444444 c 0,3.865993 -3.134007,7 -7,7 -3.865993,0 -7,-3.134007 -7,-7 0,-3.865993 3.134007,-7 7,-7 3.865993,0 7,3.134007 7,7 z" transform="matrix(0.64285712,0,0,0.64285712,7.5000005,-7.9285696)" style="fill:#16d0d2;fill-opacity:1;stroke:#042a2a;stroke-width:3.11111;stroke-linecap:round;stroke-linejoin:round;stroke-miterlimit:4;stroke-dasharray:none;stroke-opacity:1"/><path id="path3854-7-7" d="m 37.333333,61.333333 c 0,3.865994 -3.134007,7 -7,7 -3.865993,0 -7,-3.134006 -7,-7 0,-3.865993 3.134007,-7 7,-7 3.865993,0 7,3.134007 7,7 z" transform="matrix(0.64285712,0,0,0.64285712,7.5000008,17.07143)" style="fill:#16d0d2;fill-opacity:1;stroke:#042a2a;stroke-width:3.11111;stroke-linecap:round;stroke-linejoin:round;stroke-miterlimit:4;stroke-dasharray:none;stroke-opacity:1"/><path id="path3854-7-1" d="m 41.222223,57.444444 c 0,3.865993 -3.134006,7 -7,7 -3.865993,0 -7,-3.134007 -7,-7 0,-3.865993 3.134007,-7 7,-7 3.865994,0 7,3.134007 7,7 z" transform="matrix(0.64285712,0,0,0.64285712,34.5,-7.9285696)" style="fill:#16d0d2;fill-opacity:1;stroke:#042a2a;stroke-width:3.11111;stroke-linecap:round;stroke-linejoin:round;stroke-miterlimit:4;stroke-dasharray:none;stroke-opacity:1"/><path id="path3834-2" d="M 195.15052,756.24602 H 127.30297 V 586.62716 h 181.95478 v 67.84755" transform="matrix(0.1621282,0,0,0.1621282,6.3605986,-66.108806)" style="display:inline;fill:none;stroke:#34e0e2;stroke-width:12.3359;stroke-linecap:round;stroke-linejoin:round;stroke-opacity:1"/><path id="path3854-7-3-1" d="m 46.200002,61.799998 c 0,3.865993 -3.134007,7 -7,7 -3.865994,0 -7,-3.134007 -7,-7 0,-3.865993 3.134006,-7 7,-7 3.865993,0 7,3.134007 7,7 z" transform="matrix(0.35714286,0,0,0.35714286,42.500001,6.9285716)" style="display:inline;fill:#16d0d2;stroke:#34e0e2;stroke-width:5.6;stroke-linecap:round;stroke-linejoin:round;stroke-miterlimit:4;stroke-dasharray:none;stroke-opacity:1"/><path id="path3854-7-3-2" d="m 39.199999,68.799999 c 0,3.865993 -3.134007,7 -7,7 -3.865993,0 -7,-3.134007 -7,-7 0,-3.865993 3.134007,-7 7,-7 3.865993,0 7,3.134007 7,7 z" transform="matrix(0.35714286,0,0,0.35714286,15.5,31.928571)" style="display:inline;fill:#16d0d2;stroke:#34e0e2;stroke-width:5.6;stroke-linecap:round;stroke-linejoin:round;stroke-miterlimit:4;stroke-dasharray:none;stroke-opacity:1"/><path id="path3854-7-3" d="m 39.199999,61.799998 c 0,3.865993 -3.134006,7 -7,7 -3.865993,0 -7,-3.134007 -7,-7 0,-3.865993 3.134007,-7 7,-7 3.865994,0 7,3.134007 7,7 z" transform="matrix(0.35714286,0,0,0.35714286,15.5,6.9285716)" style="display:inline;fill:#16d0d2;stroke:#34e0e2;stroke-width:5.6;stroke-linecap:round;stroke-linejoin:round;stroke-miterlimit:4;stroke-dasharray:none;stroke-opacity:1"/></g><path style="font-weight:600;font-size:28px;line-height:1.25;font-family:FreeSans;-inkscape-font-specification:'FreeSans Semi-Bold';fill:#34e0e2;stroke:#2e3436;stroke-width:2;stroke-linecap:round;stroke-linejoin:round" id="text2" d="m 43.531999,12.996001 6.552,10.416 h -4.984 l -3.92,-7.084 -3.892,7.084 h -4.872 l 6.44,-10.276 -6.216,-10.1360003 h 4.984 l 3.584,6.72 3.752,-6.72 h 4.872 z" aria-label="X"/><path style="font-weight:600;font-size:28px;line-height:1.25;font-family:FreeSans;-inkscape-font-specification:'FreeSans Semi-Bold';fill:#34e0e2;stroke:#2e3436;stroke-width:2;stroke-linecap:round;stroke-linejoin:round" id="text2-4" d="m 13.976,44.896001 v 7.56 h -4.2 v -7.56 L 3,32.044001 h 4.676 l 4.172,9.016 3.892,-9.016 h 4.704 z" aria-label="Y"/></svg>