<svg xmlns="http://www.w3.org/2000/svg" xmlns:svg="http://www.w3.org/2000/svg" xmlns:xlink="http://www.w3.org/1999/xlink" id="svg3085" width="64" height="64" version="1.1"><defs id="defs3087"><linearGradient id="linearGradient24"><stop style="stop-color:#888a85;stop-opacity:1" id="stop23" offset="0"/><stop style="stop-color:#babdb6;stop-opacity:1" id="stop24" offset="1"/></linearGradient><linearGradient id="linearGradient15"><stop style="stop-color:#204a87;stop-opacity:1" id="stop14" offset="0"/><stop style="stop-color:#3465a4;stop-opacity:1" id="stop15" offset="1"/></linearGradient><linearGradient id="linearGradient9"><stop style="stop-color:#204a87;stop-opacity:1" id="stop9" offset="0"/><stop style="stop-color:#3465a4;stop-opacity:1" id="stop10" offset="1"/></linearGradient><linearGradient id="linearGradient5062"><stop style="stop-color:#729fcf;stop-opacity:1" id="stop5058" offset="0"/><stop style="stop-color:#204a87;stop-opacity:1" id="stop5060" offset="1"/></linearGradient><linearGradient id="linearGradient3836-0"><stop id="stop5008" offset="0" style="stop-color:#c4a000;stop-opacity:1"/><stop id="stop5010" offset="1" style="stop-color:#fce94f;stop-opacity:1"/></linearGradient><linearGradient id="linearGradient7597"><stop id="stop7599" offset="0" style="stop-color:#000003;stop-opacity:1"/><stop id="stop7601" offset="1" style="stop-color:#000003;stop-opacity:0"/></linearGradient><linearGradient id="linearGradient3893"><stop id="stop3895" offset="0" style="stop-color:#fff;stop-opacity:1"/><stop id="stop3897" offset="1" style="stop-color:#fff;stop-opacity:0"/></linearGradient><linearGradient id="linearGradient7603" x1="15.715" x2="34.136" y1="22.299" y2="22.299" gradientUnits="userSpaceOnUse" xlink:href="#linearGradient7597"/><linearGradient id="linearGradient3836-0-3"><stop style="stop-color:#c4a000;stop-opacity:1" id="stop3838-2" offset="0"/><stop style="stop-color:#fce94f;stop-opacity:1" id="stop3840-5" offset="1"/></linearGradient><linearGradient id="linearGradient5064" x1="33.056" x2="42.195" y1="43.596" y2="57.417" gradientUnits="userSpaceOnUse" xlink:href="#linearGradient5062"/><linearGradient id="linearGradient5072" x1="3.813" x2="19.801" y1="51.689" y2="51.689" gradientUnits="userSpaceOnUse" xlink:href="#linearGradient5062"/><linearGradient id="linearGradient5080" x1="13.818" x2="29.806" y1="25.689" y2="25.689" gradientUnits="userSpaceOnUse" xlink:href="#linearGradient5062"/><linearGradient id="linearGradient5088" x1="43.818" x2="59.806" y1="11.684" y2="11.684" gradientUnits="userSpaceOnUse" xlink:href="#linearGradient5062"/><linearGradient id="linearGradient10" x1="30.313" x2="45.291" y1="51.673" y2="51.673" gradientTransform="matrix(1.0000093,0,0,1,23.726546,23.727119)" gradientUnits="userSpaceOnUse" xlink:href="#linearGradient9"/><linearGradient id="linearGradient1" x1="-18" x2="-22" y1="18" y2="5" gradientTransform="matrix(0.82607043,0,0,0.82533448,-4.0098079,1.346708)" gradientUnits="userSpaceOnUse" xlink:href="#linearGradient24"/><linearGradient id="linearGradient3836-9-3"><stop style="stop-color:#888a85;stop-opacity:1" id="stop3838-8-5" offset="0"/><stop style="stop-color:#babdb6;stop-opacity:1" id="stop3840-1-6" offset="1"/></linearGradient><linearGradient id="linearGradient2" x1="-18" x2="-22" y1="18" y2="5" gradientTransform="matrix(0.82607043,0,0,0.82533448,-4.0098079,1.346708)" gradientUnits="userSpaceOnUse" xlink:href="#linearGradient3836-9-3"/><linearGradient id="linearGradient16" x1="-18" x2="-22" y1="18" y2="5" gradientTransform="matrix(0.82607043,0,0,0.82533448,-4.0098079,1.346708)" gradientUnits="userSpaceOnUse" xlink:href="#linearGradient15"/></defs><metadata id="metadata3090"/><g id="layer3" transform="translate(0.25)" style="display:inline"><g id="layer1" transform="translate(-3.2499999,2.0000121)"><path style="fill:#babdb6;stroke:#555753;stroke-width:2;stroke-linecap:butt;stroke-linejoin:miter;stroke-opacity:1" id="path3061" d="M 15.908118,53.33451 11.665477,49.091871 54.091883,6.6654658 58.334523,10.908105 Z"/><path style="fill:none;stroke:#d3d7cf;stroke-width:2;stroke-linecap:butt;stroke-linejoin:miter;stroke-opacity:1" id="path3063" d="M 14.002003,49.583771 54.583793,9.0019854"/></g><g id="g47" transform="matrix(0.77869459,0,0,0.77869445,69.798355,1.0976485)" style="display:inline;stroke-width:1.2842"><path style="fill:#d3d7cf;stroke:#555753;stroke-width:2.56841;stroke-miterlimit:4;stroke-dasharray:none;stroke-opacity:1" id="path46" d="M -26.310778,5.3580033 A 8.3519646,8.3515832 0.02039876 1 1 -13.623399,16.222662 8.3519646,8.3515832 0.02039876 1 1 -26.310778,5.3580033 Z"/><path style="fill:url(#linearGradient2);fill-opacity:1;stroke:#d3d7cf;stroke-width:2.56842;stroke-miterlimit:4;stroke-dasharray:none;stroke-opacity:1" id="path47" d="m -24.358888,7.0362241 a 5.782493,5.7773415 0 1 1 8.784093,7.5158349 5.782493,5.7773415 0 0 1 -8.784093,-7.5158349 z"/></g><g id="g49" transform="matrix(0.77869459,0,0,0.77869445,24.798173,46.097607)" style="stroke-width:1.2842"><path style="fill:#d3d7cf;stroke:#555753;stroke-width:2.56841;stroke-miterlimit:4;stroke-dasharray:none;stroke-opacity:1" id="path48" d="M -26.310778,5.3580033 A 8.3519646,8.3515832 0.02039876 1 1 -13.623399,16.222662 8.3519646,8.3515832 0.02039876 1 1 -26.310778,5.3580033 Z"/><path style="fill:url(#linearGradient1);fill-opacity:1;stroke:#d3d7cf;stroke-width:2.56842;stroke-miterlimit:4;stroke-dasharray:none;stroke-opacity:1" id="path49" d="m -24.358888,7.0362241 a 5.782493,5.7773415 0 1 1 8.784093,7.5158349 5.782493,5.7773415 0 0 1 -8.784093,-7.5158349 z"/></g><g id="g14" transform="matrix(0.77869459,0,0,0.77869445,47.298173,23.597648)" style="stroke-width:1.2842"><path style="fill:#729fcf;stroke:#0b1521;stroke-width:2.56841;stroke-miterlimit:4;stroke-dasharray:none;stroke-opacity:1" id="path9" d="M -26.310778,5.3580033 A 8.3519646,8.3515832 0.02039876 1 1 -13.623399,16.222662 8.3519646,8.3515832 0.02039876 1 1 -26.310778,5.3580033 Z"/><path style="fill:url(#linearGradient16);fill-opacity:1;stroke:#729fcf;stroke-width:2.56842;stroke-miterlimit:4;stroke-dasharray:none;stroke-opacity:1" id="path14" d="m -24.358888,7.0362241 a 5.782493,5.7773415 0 1 1 8.784093,7.5158349 5.782493,5.7773415 0 0 1 -8.784093,-7.5158349 z"/></g></g><g id="g23" transform="matrix(-1,0,0,1,65.328427,4.792872)" style="display:inline"><g id="g20" transform="rotate(45,11.307586,-8.9350165)"><path style="fill:#3465a4;stroke:#a40000;stroke-width:2;stroke-linejoin:round;stroke-dasharray:none;paint-order:stroke markers fill" id="path19" d="m 34.999999,14 h 7.999999"/><path style="fill:#3465a4;stroke:#a40000;stroke-width:2;stroke-linejoin:round;stroke-dasharray:none;paint-order:stroke markers fill" id="path20" d="m 34.999999,11 h 7.999999"/></g><g id="g22" transform="rotate(45,-2.8345494,25.207119)"><path style="fill:#3465a4;stroke:#a40000;stroke-width:2;stroke-linejoin:round;stroke-dasharray:none;paint-order:stroke markers fill" id="path21" d="m 34.999999,14 h 7.999999"/><path style="fill:#3465a4;stroke:#a40000;stroke-width:2;stroke-linejoin:round;stroke-dasharray:none;paint-order:stroke markers fill" id="path22" d="m 34.999999,11 h 7.999999"/></g></g></svg>