<svg xmlns="http://www.w3.org/2000/svg" xmlns:svg="http://www.w3.org/2000/svg" xmlns:xlink="http://www.w3.org/1999/xlink" id="svg4024" width="64" height="64" version="1.1"><defs id="defs4026"><linearGradient id="linearGradient3771" x1="98" x2="81" y1="1047.362" y2="993.362" gradientTransform="matrix(0,-1,-1,0,1052.3622,124.00001)" gradientUnits="userSpaceOnUse" xlink:href="#linearGradient3866"/><linearGradient id="linearGradient3866"><stop style="stop-color:#d3d7cf;stop-opacity:1" id="stop3868" offset="0"/><stop style="stop-color:#fff;stop-opacity:1" id="stop3870" offset="1"/></linearGradient></defs><metadata id="metadata4029"/><g id="layer1"><g id="g2"><g id="layer3" transform="matrix(0,-1,-1,0,64.00001,64.00001)" style="display:inline"><g id="layer3-3" style="display:inline"><path style="fill:url(#linearGradient3771);fill-opacity:1;stroke:#2e3436;stroke-width:2;stroke-linecap:butt;stroke-linejoin:round;stroke-opacity:1" id="path2991" d="m 11,3 v 58.00002 h 42 v -48 L 43,3 Z"/><path style="fill:none;stroke:#fff;stroke-width:2;stroke-linecap:butt;stroke-linejoin:miter;stroke-opacity:1" id="path3763" d="M 13,5 V 59.00002 H 51 V 13.81392 L 41.99741,5 Z"/><path style="fill:#2e3436;fill-opacity:.392157;stroke:#2e3436;stroke-width:2;stroke-linecap:butt;stroke-linejoin:round;stroke-opacity:1" id="path2993" d="M 43,3 V 13.00002 H 53 Z"/></g></g><g id="g5" transform="matrix(1,0,0,0.99999707,0,-3.9898413)" style="stroke:#2e3436;stroke-width:1"><circle style="fill:#eeeeec;stroke:#555753;stroke-width:2.00001;stroke-linecap:round;stroke-linejoin:round" id="path2" cx="45.996" cy="45.995" r="15.005"/><path id="path1" d="m 43.99572,35.994976 h 4 v 8 h 8 v 4 h -8 v 8 h -4 v -8 h -8 v -4 h 8 z" style="fill:#8ae234;stroke:#17230b;stroke-width:1.99998;stroke-linecap:round;stroke-linejoin:round;stroke-opacity:1"/></g></g><g id="g3" transform="matrix(0.66411048,0,0,0.65769381,1.7737209,5.8095183)" style="stroke-width:1.5131"><rect style="fill:#888a85;fill-opacity:1;stroke:none;stroke-width:4;stroke-linecap:square;stroke-linejoin:round;stroke-dashoffset:5.4;paint-order:stroke fill markers" id="rect4" width="19.994" height="17.1" x="10.895" y="17" transform="matrix(1.5057736,0,0,1.5204644,-5.509973,-8.8478943)"/><path style="display:inline;fill:none;fill-opacity:1;stroke:#042a2a;stroke-width:6.0524;stroke-linecap:round;stroke-linejoin:round;stroke-miterlimit:4;stroke-dasharray:none;stroke-dashoffset:0;stroke-opacity:1" id="rect4138-7" width="30.106" height="26" x="10.896" y="17" d="M 10.895793,20.25 V 17 h 3.763231 m 7.526463,0 h 7.526462 m 7.526463,0 h 3.763231 v 3.25 m 0,6.5 v 6.5 m 0,6.5 V 43 h -3.763231 m -7.526463,0 h -7.526462 m -7.526463,0 h -3.763231 v -3.25 m 0,-6.5 v -6.5 m 0,-6.5 V 17"/><path style="display:inline;fill:none;stroke:#34e0e2;stroke-width:3.0262;stroke-linecap:round;stroke-linejoin:round;stroke-miterlimit:4;stroke-dasharray:none;stroke-dashoffset:0;stroke-opacity:1" id="path3" width="30.106" height="26" x="10.896" y="17" d="M 10.895793,20.25 V 17 h 3.763231 m 7.526463,0 h 7.526462 m 7.526463,0 h 3.763231 v 3.25 m 0,6.5 v 6.5 m 0,6.5 V 43 h -3.763231 m -7.526463,0 h -7.526462 m -7.526463,0 h -3.763231 v -3.25 m 0,-6.5 v -6.5 m 0,-6.5 V 17"/></g></g></svg>