<svg xmlns="http://www.w3.org/2000/svg" xmlns:freecad="https://www.freecad.org/wiki/index.php?title=Svg_Namespace" xmlns:svg="http://www.w3.org/2000/svg" id="svg" width="594mm" height="420mm" version="1.1" viewBox="0 0 594 420"><title id="title">Drawing sheet ISO 5457 - A2T - Advanced</title><metadata id="metadata"/><rect style="fill:none;stroke:#000;stroke-width:.7;stroke-linecap:round;stroke-linejoin:round" id="drawing_space_frame" width="564" height="400" x="20" y="10"/><g style="fill:none;stroke:#000;stroke-width:.7;stroke-linecap:round" id="centring_marks"><path id="top_centering" d="m 297,5 v 10"/><path id="right_centering" d="m 589,210 h -10"/><path id="bottom_centering" d="m 297,415 v -10"/><path id="left_centering" d="m 15,210 h 10"/></g><g id="grid_reference_system"><g style="fill:none;stroke:#000;stroke-width:.35;stroke-linecap:round;stroke-linejoin:round" id="grid_reference_borders"><rect id="grid_reference_border" width="574" height="410" x="15" y="5"/><path id="upper_border_1" d="m 47,5 v 5"/><path id="upper_border_2" d="m 97,5 v 5"/><path id="upper_border_3" d="m 147,5 v 5"/><path id="upper_border_4" d="m 197,5 v 5"/><path id="upper_border_5" d="m 247,5 v 5"/><path id="upper_border_7" d="m 347,5 v 5"/><path id="upper_border_8" d="m 397,5 v 5"/><path id="upper_border_9" d="m 447,5 v 5"/><path id="upper_border_10" d="m 497,5 v 5"/><path id="upper_border_11" d="m 547,5 v 5"/><path id="right_border_1" d="m 589,60 h -5"/><path id="right_border_2" d="m 589,110 h -5"/><path id="right_border_3" d="m 589,160 h -5"/><path id="right_border_5" d="m 589,260 h -5"/><path id="right_border_6" d="m 589,310 h -5"/><path id="right_border_7" d="m 589,360 h -5"/><path id="lower_border_1" d="m 47,415 v -5"/><path id="lower_border_2" d="m 97,415 v -5"/><path id="lower_border_3" d="m 147,415 v -5"/><path id="lower_border_4" d="m 197,415 v -5"/><path id="lower_border_5" d="m 247,415 v -5"/><path id="lower_border_7" d="m 347,415 v -5"/><path id="lower_border_8" d="m 397,415 v -5"/><path id="lower_border_9" d="m 447,415 v -5"/><path id="lower_border_10" d="m 497,415 v -5"/><path id="lower_border_11" d="m 547,415 v -5"/><path id="left_border_1" d="m 15,60 h 5"/><path id="left_border_2" d="m 15,110 h 5"/><path id="left_border_3" d="m 15,160 h 5"/><path id="left_border_5" d="m 15,260 h 5"/><path id="left_border_6" d="m 15,310 h 5"/><path id="left_border_7" d="m 15,360 h 5"/></g><g style="font-size:3.5px;font-family:osifont;text-align:center;text-anchor:middle;fill:#000;stroke:none" id="grid_reference_markers"><text id="upper_marker_1" x="22" y="8.8">1</text><text id="upper_marker_2" x="72" y="8.8">2</text><text id="upper_marker_3" x="122" y="8.8">3</text><text id="upper_marker_4" x="172" y="8.8">4</text><text id="upper_marker_5" x="222" y="8.8">5</text><text id="upper_marker_6" x="272" y="8.8">6</text><text id="upper_marker_7" x="322" y="8.8">7</text><text id="upper_marker_8" x="372" y="8.8">8</text><text id="upper_marker_9" x="422" y="8.8">9</text><text id="upper_marker_10" x="472" y="8.8">10</text><text id="upper_marker_11" x="522" y="8.8">11</text><text id="upper_marker_12" x="572" y="8.8">12</text><text id="right_marker_1" x="586.5" y="36.3">A</text><text id="right_marker_2" x="586.5" y="86.3">B</text><text id="right_marker_3" x="586.5" y="136.3">C</text><text id="right_marker_4" x="586.5" y="186.3">D</text><text id="right_marker_5" x="586.5" y="236.3">E</text><text id="right_marker_6" x="586.5" y="286.3">F</text><text id="right_marker_7" x="586.5" y="336.3">G</text><text id="right_marker_8" x="586.5" y="386.3">H</text><text id="lower_marker_1" x="22" y="413.8">1</text><text id="lower_marker_2" x="72" y="413.8">2</text><text id="lower_marker_3" x="122" y="413.8">3</text><text id="lower_marker_4" x="172" y="413.8">4</text><text id="lower_marker_5" x="222" y="413.8">5</text><text id="lower_marker_6" x="272" y="413.8">6</text><text id="lower_marker_7" x="322" y="413.8">7</text><text id="lower_marker_8" x="372" y="413.8">8</text><text id="lower_marker_9" x="422" y="413.8">9</text><text id="lower_marker_10" x="472" y="413.8">10</text><text id="lower_marker_11" x="522" y="413.8">11</text><text id="lower_marker_12" x="572" y="413.8">A2</text><text id="left_marker_1" x="17.5" y="36.3">A</text><text id="left_marker_2" x="17.5" y="86.3">B</text><text id="left_marker_3" x="17.5" y="136.3">C</text><text id="left_marker_4" x="17.5" y="186.3">D</text><text id="left_marker_5" x="17.5" y="236.3">E</text><text id="left_marker_6" x="17.5" y="286.3">F</text><text id="left_marker_7" x="17.5" y="336.3">G</text><text id="left_marker_8" x="17.5" y="386.3">H</text></g></g><g style="fill:#000;stroke:none" id="trimming_marks"><path id="top_left_trimming" d="m 0,0 h 10 v 5 h -5 v 5 h -5 z"/><path id="top_right_trimming" d="m 594,0 h -10 v 5 h 5 v 5 h 5 z"/><path id="bottom_right_trimming" d="m 594,420 h -10 v -5 h 5 v -5 h 5 z"/><path id="bottom_left_trimming" d="m 0,420 h 10 v -5 h -5 v -5 h -5 z"/></g><g style="fill:none;stroke:#000;stroke-width:.35;stroke-linecap:round;stroke-linejoin:round" id="title_block_borders"><rect style="stroke-width:.7" id="title_block_frame" width="180" height="48" x="404" y="362"/><rect id="legal_owner_border" width="40" height="24" x="544" y="362"/><rect id="identification_number_border" width="60" height="12" x="484" y="386"/><rect id="revision_index_border" width="20" height="12" x="544" y="398"/><rect id="date_of_issue_border" width="40" height="12" x="504" y="398"/><rect id="sheet_number_border" width="20" height="12" x="564" y="398"/><rect id="language_code_border" width="20" height="12" x="484" y="398"/><rect id="title_border" width="80" height="24" x="404" y="362"/><rect id="responsible_department_border" width="40" height="12" x="544" y="386"/><rect id="approval_person_border" width="60" height="12" x="484" y="374"/><rect id="creator_border" width="60" height="12" x="484" y="362"/><rect id="document_type_border" width="80" height="12" x="404" y="386"/><rect id="document_status_border" width="80" height="12" x="404" y="398"/></g><g style="font-size:3.5px;font-family:osifont;text-anchor:start;fill:#000;stroke:none" id="title_block_labels"><text id="legal_owner_label" x="544.5" y="365.6">Owner:</text><text id="identification_number_label" x="484.5" y="389.6">Drawing number:</text><text id="revision_index_label" x="544.5" y="401.6">Revision:</text><text id="date_of_issue_label" x="504.5" y="401.6">Issue date:</text><text id="sheet_number_label" x="564.5" y="401.6">Sheet:</text><text id="language_code_label" x="484.5" y="401.6">Language:</text><text id="title_label" x="404.5" y="365.6">Title, supplementary title:</text><text id="responsible_department_label" x="544.5" y="389.6">Responsible department:</text><text id="approval_person_label" x="484.5" y="377.6">Approved by:</text><text id="creator_label" x="484.5" y="365.6">Created by:</text><text id="document_type label" x="404.5" y="389.6">Document type:</text><text id="document_status_label" x="404.5" y="401.6">Document status:</text><text id="sheet_scale_label" x="524.5" y="353.6">Scale:</text><text id="general_tolerances_label" x="484.5" y="353.6">General tolerances:</text><text id="part_material_label" x="404.5" y="353.6">Part Material:</text></g><g style="font-size:5px;font-family:osifont;text-anchor:start;fill:#000;stroke:none" id="title_block_data_fields"><text id="identification_number_data_field" x="485" y="395.2" freecad:editable="drawing_number"><tspan>DN</tspan></text><text style="text-align:center;text-anchor:middle" id="revision_index_data_field" x="554" y="407.2" freecad:editable="revision_index"><tspan>AAA</tspan></text><text id="date_of_issue_data_field" x="505" y="407.2" freecad:autofill="date" freecad:editable="date_of_issue"><tspan>YYYY-MM-DD</tspan></text><text style="text-align:center;text-anchor:middle" id="sheet_number_data_field" x="574" y="407.2" freecad:autofill="sheet" freecad:editable="sheet_number"><tspan>X / Y</tspan></text><text style="text-align:center;text-anchor:middle" id="language_data_field" x="494" y="407.2" freecad:editable="language_code"><tspan>EN</tspan></text><text id="title_data_field" x="405" y="371.2" freecad:autofill="title" freecad:editable="title"><tspan>ISO 7200 titleblock</tspan></text><text id="supplementary_title_1_data_field" x="405" y="377.2" freecad:editable="supplementary_title_1"><tspan>ST1</tspan></text><text id="supplementary_title_2_data_field" x="405" y="383.2" freecad:editable="supplementary_title_2"><tspan>ST2</tspan></text><text id="responsible_department_data_field" x="545" y="395.2" freecad:editable="responsible_department"><tspan>RD</tspan></text><text id="approval_person_data_field" x="485" y="383.2" freecad:editable="approval_person"><tspan>B. Hecate</tspan></text><text id="creator_data_field" x="485" y="371.2" freecad:autofill="author" freecad:editable="creator"><tspan>A. Nemesis</tspan></text><text id="document_type_data_field" x="405" y="395.2" freecad:editable="document_type"><tspan>Component Drawing</tspan></text><text id="document_status_data_field" x="405" y="407.2" freecad:editable="document_status"><tspan>In preparation</tspan></text><text style="text-align:center;text-anchor:middle" id="sheet_scale_data_field" x="534" y="359.2" freecad:autofill="scale" freecad:editable="scale"><tspan>1 : 1</tspan></text><text id="general_tolerances_data_field" x="485" y="359.2" freecad:editable="general_tolerances"><tspan>ISO 2768-m</tspan></text><text id="part_material_data_field" x="405" y="359.2" freecad:editable="part_material"><tspan>Stainless steel Mat.No. 1.4301</tspan></text></g><g style="fill:none;stroke:#000;stroke-width:.5;stroke-linecap:round;stroke-linejoin:round" id="extras_outlines"><path id="first_angle_trapezoid" d="m 563,345 -10,2.5 v 5 l 10,2.5 z"/><circle id="first_angle_inner circle" cx="570" cy="350" r="2.5"/><circle id="first_angle_outer circle" cx="570" cy="350" r="5"/></g><g style="fill:none;stroke:#000;stroke-width:.25;stroke-linecap:round;stroke-linejoin:round;stroke-dasharray:6,.75,.125,.75" id="extras_centre_lines"><path style="stroke-dashoffset:.25" id="first_angle_horizontal" d="m 552,350 h 24"/><path style="stroke-dashoffset:4.625" id="first_angle_vertical" d="m 570,356 v -12"/></g></svg>