<svg xmlns="http://www.w3.org/2000/svg" xmlns:freecad="https://www.freecad.org/wiki/index.php?title=Svg_Namespace" xmlns:svg="http://www.w3.org/2000/svg" id="svg" width="297mm" height="210mm" version="1.1" viewBox="0 0 297 210"><title id="title">Drawing sheet ISO 5457 - A4T - Advanced</title><metadata id="metadata"/><rect style="fill:none;stroke:#000;stroke-width:.7;stroke-linecap:round;stroke-linejoin:round" id="drawing_space_frame" width="267" height="190" x="20" y="10"/><g style="fill:none;stroke:#000;stroke-width:.7;stroke-linecap:round" id="centring_marks"><path id="top_centering" d="m 148.5,5 v 10"/><path id="right_centering" d="m 292,105 h -10"/><path id="bottom_centering" d="m 148.5,205 v -6"/><path id="left_centering" d="m 15,105 h 10"/></g><g id="grid_reference_system"><g style="fill:none;stroke:#000;stroke-width:.35;stroke-linecap:round;stroke-linejoin:round" id="grid_reference_borders"><rect id="grid_reference_border" width="277" height="200" x="15" y="5"/><path id="upper_border_1" d="m 48.5,5 v 5"/><path id="upper_border_2" d="m 98.5,5 v 5"/><path id="upper_border_4" d="m 198.5,5 v 5"/><path id="upper_border_5" d="m 248.5,5 v 5"/><path id="right_border_1" d="m 292,55 h -5"/><path id="right_border_3" d="m 292,155 h -5"/><path id="lower_border_1" d="m 48.5,205 v -5"/><path id="lower_border_2" d="m 98.5,205 v -5"/><path id="lower_border_4" d="m 198.5,205 v -5"/><path id="lower_border_5" d="m 248.5,205 v -5"/><path id="left_border_1" d="m 15,55 h 5"/><path id="left_border_3" d="m 15,155 h 5"/></g><g style="font-size:3.5px;font-family:osifont;text-align:center;text-anchor:middle;fill:#000;stroke:none" id="grid_reference_markers"><text id="upper_marker_1" x="23.5" y="8.8">1</text><text id="upper_marker_2" x="73.5" y="8.8">2</text><text id="upper_marker_3" x="123.5" y="8.8">3</text><text id="upper_marker_4" x="173.5" y="8.8">4</text><text id="upper_marker_5" x="223.5" y="8.8">5</text><text id="upper_marker_6" x="273.5" y="8.8">6</text><text id="right_marker_1" x="289.5" y="31.3">A</text><text id="right_marker_2" x="289.5" y="81.3">B</text><text id="right_marker_3" x="289.5" y="131.3">C</text><text id="right_marker_4" x="289.5" y="181.3">D</text><text id="lower_marker_6" x="273.5" y="203.8">A4</text></g></g><g style="fill:#000;stroke:none" id="trimming_marks"><path id="top_left_trimming" d="m 0,0 h 10 v 5 h -5 v 5 h -5 z"/><path id="top_right_trimming" d="m 297,0 h -10 v 5 h 5 v 5 h 5 z"/><path id="bottom_right_trimming" d="m 297,210 h -10 v -5 h 5 v -5 h 5 z"/><path id="bottom_left_trimming" d="m 0,210 h 10 v -5 h -5 v -5 h -5 z"/></g><g style="fill:none;stroke:#000;stroke-width:.35;stroke-linecap:round;stroke-linejoin:round" id="title_block_borders"><rect style="stroke-width:.7" id="title_block_frame" width="180" height="48" x="107" y="152"/><rect id="legal_owner_border" width="40" height="24" x="247" y="152"/><rect id="identification_number_border" width="60" height="12" x="187" y="176"/><rect id="revision_index_border" width="20" height="12" x="247" y="188"/><rect id="date_of_issue_border" width="40" height="12" x="207" y="188"/><rect id="sheet_number_border" width="20" height="12" x="267" y="188"/><rect id="language_code_border" width="20" height="12" x="187" y="188"/><rect id="title_border" width="80" height="24" x="107" y="152"/><rect id="responsible_department_border" width="40" height="12" x="247" y="176"/><rect id="approval_person_border" width="60" height="12" x="187" y="164"/><rect id="creator_border" width="60" height="12" x="187" y="152"/><rect id="document_type_border" width="80" height="12" x="107" y="176"/><rect id="document_status_border" width="80" height="12" x="107" y="188"/></g><g style="font-size:3.5px;font-family:osifont;text-anchor:start;fill:#000;stroke:none" id="title_block_labels"><text id="legal_owner_label" x="247.5" y="155.6">Owner:</text><text id="identification_number_label" x="187.5" y="179.6">Drawing number:</text><text id="revision_index_label" x="247.5" y="191.6">Revision:</text><text id="date_of_issue_label" x="207.5" y="191.6">Issue date:</text><text id="sheet_number_label" x="267.5" y="191.6">Sheet:</text><text id="language_code_label" x="187.5" y="191.6">Language:</text><text id="title_label" x="107.5" y="155.6">Title, supplementary title:</text><text id="responsible_department_label" x="247.5" y="179.6">Responsible department:</text><text id="approval_person_label" x="187.5" y="167.6">Approved by:</text><text id="creator_label" x="187.5" y="155.6">Created by:</text><text id="document_type label" x="107.5" y="179.6">Document type:</text><text id="document_status_label" x="107.5" y="191.6">Document status:</text><text id="sheet_scale_label" x="227.5" y="143.6">Scale:</text><text id="general_tolerances_label" x="187.5" y="143.6">General tolerances:</text><text id="part_material_label" x="107.5" y="143.6">Part Material:</text></g><g style="font-size:5px;font-family:osifont;text-anchor:start;fill:#000;stroke:none" id="title_block_data_fields"><text id="identification_number_data_field" x="188" y="185.2" freecad:editable="drawing_number"><tspan>DN</tspan></text><text style="text-align:center;text-anchor:middle" id="revision_index_data_field" x="257" y="197.2" freecad:editable="revision_index"><tspan>AAA</tspan></text><text id="date_of_issue_data_field" x="208" y="197.2" freecad:autofill="date" freecad:editable="date_of_issue"><tspan>YYYY-MM-DD</tspan></text><text style="text-align:center;text-anchor:middle" id="sheet_number_data_field" x="277" y="197.2" freecad:autofill="sheet" freecad:editable="sheet_number"><tspan>X / Y</tspan></text><text style="text-align:center;text-anchor:middle" id="language_data_field" x="197" y="197.2" freecad:editable="language_code"><tspan>EN</tspan></text><text id="title_data_field" x="108" y="161.2" freecad:autofill="title" freecad:editable="title"><tspan>ISO 7200 titleblock</tspan></text><text id="supplementary_title_1_data_field" x="108" y="167.2" freecad:editable="supplementary_title_1"><tspan>ST1</tspan></text><text id="supplementary_title_2_data_field" x="108" y="173.2" freecad:editable="supplementary_title_2"><tspan>ST2</tspan></text><text id="responsible_department_data_field" x="248" y="185.2" freecad:editable="responsible_department"><tspan>RD</tspan></text><text id="approval_person_data_field" x="188" y="173.2" freecad:editable="approval_person"><tspan>B. Hecate</tspan></text><text id="creator_data_field" x="188" y="161.2" freecad:autofill="author" freecad:editable="creator"><tspan>A. Nemesis</tspan></text><text id="document_type_data_field" x="108" y="185.2" freecad:editable="document_type"><tspan>Component Drawing</tspan></text><text id="document_status_data_field" x="108" y="197.2" freecad:editable="document_status"><tspan>In preparation</tspan></text><text style="text-align:center;text-anchor:middle" id="sheet_scale_data_field" x="237" y="149.2" freecad:autofill="scale" freecad:editable="scale"><tspan>1 : 1</tspan></text><text id="general_tolerances_data_field" x="188" y="149.2" freecad:editable="general_tolerances"><tspan>ISO 2768-m</tspan></text><text id="part_material_data_field" x="108" y="149.2" freecad:editable="part_material"><tspan>Stainless steel Mat.No. 1.4301</tspan></text></g><g style="fill:none;stroke:#000;stroke-width:.5;stroke-linecap:round;stroke-linejoin:round" id="extras_outlines"><path id="first_angle_trapezoid" d="m 266,135 -10,2.5 v 5 l 10,2.5 z"/><circle id="first_angle_inner circle" cx="273" cy="140" r="2.5"/><circle id="first_angle_outer circle" cx="273" cy="140" r="5"/></g><g style="fill:none;stroke:#000;stroke-width:.25;stroke-linecap:round;stroke-linejoin:round;stroke-dasharray:6,.75,.125,.75" id="extras_centre_lines"><path style="stroke-dashoffset:.25" id="first_angle_horizontal" d="m 255,140 h 24"/><path style="stroke-dashoffset:4.625" id="first_angle_vertical" d="m 273,146 v -12"/></g></svg>