<svg xmlns="http://www.w3.org/2000/svg" xmlns:svg="http://www.w3.org/2000/svg" xmlns:xlink="http://www.w3.org/1999/xlink" id="svg2869" width="64" height="64" version="1.1" viewBox="0 0 64 64"><defs id="defs2871"><linearGradient id="linearGradient34"><stop style="stop-color:#729fcf;stop-opacity:1" id="stop33" offset="0"/><stop style="stop-color:#3465a4;stop-opacity:1" id="stop34" offset="1"/></linearGradient><linearGradient id="linearGradient32"><stop style="stop-color:#3465a4;stop-opacity:1" id="stop31" offset="0"/><stop style="stop-color:#729fcf;stop-opacity:1" id="stop32" offset="1"/></linearGradient><linearGradient id="linearGradient17"><stop style="stop-color:#fff;stop-opacity:1" id="stop16" offset="0"/><stop style="stop-color:#fff;stop-opacity:0" id="stop17" offset="1"/></linearGradient><linearGradient id="linearGradient5"><stop style="stop-color:#ef2929;stop-opacity:1" id="stop19" offset="0"/><stop style="stop-color:#ef2929;stop-opacity:0" id="stop20" offset="1"/></linearGradient><linearGradient id="swatch18"><stop style="stop-color:#ef2929;stop-opacity:1" id="stop18" offset="0"/></linearGradient><linearGradient id="swatch15"><stop style="stop-color:#3d0000;stop-opacity:1" id="stop15" offset="0"/></linearGradient><linearGradient id="linearGradient5-1"><stop style="stop-color:#ef2929;stop-opacity:1" id="stop5" offset="0"/><stop style="stop-color:#ef2929;stop-opacity:0" id="stop6" offset="1"/></linearGradient><linearGradient id="linearGradient3836-9"><stop style="stop-color:#a40000;stop-opacity:1" id="stop3838-8" offset="0"/><stop style="stop-color:#ef2929;stop-opacity:1" id="stop3840-1" offset="1"/></linearGradient><linearGradient id="linearGradient3836-9-3"><stop style="stop-color:#a40000;stop-opacity:1" id="stop3838-8-5" offset="0"/><stop style="stop-color:#ef2929;stop-opacity:1" id="stop3840-1-6" offset="1"/></linearGradient><linearGradient id="linearGradient3082" x1="-18" x2="-22" y1="18" y2="5" gradientUnits="userSpaceOnUse" xlink:href="#linearGradient3836-9-3"/><linearGradient id="linearGradient3836-9-7"><stop style="stop-color:#a40000;stop-opacity:1" id="stop3838-8-0" offset="0"/><stop style="stop-color:#ef2929;stop-opacity:1" id="stop3840-1-9" offset="1"/></linearGradient><linearGradient id="linearGradient3082-3" x1="-18" x2="-22" y1="18" y2="5" gradientUnits="userSpaceOnUse" xlink:href="#linearGradient3836-9-7"/><linearGradient id="linearGradient3801-1-3" x1="-18" x2="-22" y1="18" y2="5" gradientTransform="matrix(0.76342439,0,0,0.75750425,-4.596389,2.7525637)" gradientUnits="userSpaceOnUse" xlink:href="#linearGradient3836-9-3"/><linearGradient id="linearGradient3801-1-3-2" x1="-18" x2="-22" y1="18" y2="5" gradientTransform="matrix(0.84956703,0,0,0.84301394,-2.927337,1.7790378)" gradientUnits="userSpaceOnUse" xlink:href="#linearGradient3836-9-3"/><radialGradient id="radialGradient3815" cx="225.938" cy="91.957" r="22" fx="225.938" fy="91.957" gradientTransform="matrix(-1.4090915,3.8636359,-0.97565325,-0.35582669,437.08461,-816.22007)" gradientUnits="userSpaceOnUse" xlink:href="#linearGradient3809"/><linearGradient id="linearGradient3809"><stop style="stop-color:#729fcf;stop-opacity:1" id="stop3811" offset="0"/><stop style="stop-color:#204a87;stop-opacity:1" id="stop3813" offset="1"/></linearGradient><linearGradient id="linearGradient3444" x1="-18" x2="-22" y1="18" y2="5" gradientTransform="matrix(0.90206746,0,0,0.90216902,-1.9060863,1.1084289)" gradientUnits="userSpaceOnUse" xlink:href="#linearGradient3836-9-3"/><linearGradient id="linearGradient3857" x1="-18" x2="-22" y1="18" y2="5" gradientTransform="matrix(0.89262616,0,0,0.89258466,72.894067,1.2176306)" gradientUnits="userSpaceOnUse" xlink:href="#linearGradient3836-9-3"/><linearGradient id="linearGradient3148" x1="-18" x2="-22" y1="18" y2="5" gradientTransform="matrix(0.93724177,0,0,0.93725692,-1.2227671,0.70650014)" gradientUnits="userSpaceOnUse" xlink:href="#linearGradient3836-9-3"/><linearGradient id="linearGradient3898" x1="37.429" x2="24.483" y1="41.591" y2="4.91" gradientUnits="userSpaceOnUse" xlink:href="#linearGradient17"/><linearGradient id="linearGradient3892"><stop style="stop-color:#bdd2e9;stop-opacity:1" id="stop3894" offset="0"/><stop style="stop-color:#fff;stop-opacity:0" id="stop3896" offset="1"/></linearGradient><linearGradient id="linearGradient3856" x1="22.843" x2="30.784" y1="4.824" y2="28.645" gradientUnits="userSpaceOnUse" xlink:href="#linearGradient3892"/><linearGradient id="linearGradient18" x1="-18" x2="-22" y1="18" y2="5" gradientTransform="matrix(0.82607043,0,0,0.82533448,-4.0098079,1.346708)" gradientUnits="userSpaceOnUse" xlink:href="#linearGradient3836-9-3"/><radialGradient id="radialGradient3163" cx="225.938" cy="91.957" r="22" fx="225.938" fy="91.957" gradientTransform="matrix(-1.7064667,4.6731721,-1.1815555,-0.43038201,776.9032,-933.08315)" gradientUnits="userSpaceOnUse" xlink:href="#linearGradient3809"/><linearGradient id="linearGradient4110" x1="-23.071" x2="-24.194" y1="18.384" y2="6.534" gradientUnits="userSpaceOnUse" xlink:href="#linearGradient4104"/><linearGradient id="linearGradient4104"><stop style="stop-color:#d3d7cf;stop-opacity:1" id="stop4106" offset="0"/><stop style="stop-color:#fff;stop-opacity:1" id="stop4108" offset="1"/></linearGradient><linearGradient id="linearGradient4102" x1="-24.035" x2="-23.821" y1="16.851" y2="7.288" gradientUnits="userSpaceOnUse" xlink:href="#linearGradient4096"/><linearGradient id="linearGradient4096"><stop style="stop-color:#fff;stop-opacity:1" id="stop4098" offset="0"/><stop style="stop-color:#d3d7cf;stop-opacity:1" id="stop4100" offset="1"/></linearGradient><linearGradient id="linearGradient4216" x1="-18" x2="-22" y1="18" y2="5" gradientTransform="matrix(0.71430595,0,0,0.71426219,259.5032,71.709694)" gradientUnits="userSpaceOnUse" xlink:href="#linearGradient3836-9-3"/><radialGradient id="radialGradient3163-9" cx="225.938" cy="91.957" r="22" fx="225.938" fy="91.957" gradientTransform="matrix(-1.7064667,4.6731721,-1.1815555,-0.43038201,776.9032,-933.08315)" gradientUnits="userSpaceOnUse" xlink:href="#linearGradient3809"/><linearGradient id="linearGradient4347" x1="-21.32" x2="-24.907" y1="18.009" y2="6.938" gradientUnits="userSpaceOnUse" xlink:href="#linearGradient4104"/><linearGradient id="linearGradient4339" x1="-21.141" x2="-24.734" y1="17.49" y2="7.008" gradientUnits="userSpaceOnUse" xlink:href="#linearGradient4096"/><linearGradient id="linearGradient4235-2" x1="-18" x2="-22" y1="18" y2="5" gradientTransform="matrix(0.65313239,0,0,0.65304994,258.31758,72.40809)" gradientUnits="userSpaceOnUse" xlink:href="#linearGradient3836-9-3"/><linearGradient id="linearGradient26" x1="-18" x2="-22" y1="18" y2="5" gradientTransform="matrix(0.82607043,0,0,0.82533448,-4.0098079,1.346708)" gradientUnits="userSpaceOnUse" xlink:href="#linearGradient3836-9-3"/><linearGradient id="linearGradient3801-1-3-7" x1="-18" x2="-22" y1="18" y2="5" gradientUnits="userSpaceOnUse" xlink:href="#linearGradient3836-9-3"/><linearGradient id="linearGradient29" x1="-18" x2="-22" y1="18" y2="5" gradientTransform="matrix(0.82607043,0,0,0.82533448,-4.0098079,1.346708)" gradientUnits="userSpaceOnUse" xlink:href="#linearGradient3836-9-3"/><linearGradient id="linearGradient3901" x1="30.203" x2="35.014" y1="56.73" y2="19.843" gradientTransform="matrix(0.62354045,-0.62354046,0.62354039,0.62354042,-12.205772,28.459494)" gradientUnits="userSpaceOnUse" xlink:href="#linearGradient32"/><linearGradient id="linearGradient3903" x1="29.994" x2="36.095" y1="54.847" y2="20.854" gradientTransform="matrix(0.57365718,-0.57365723,0.57365712,0.57365719,-8.6693108,28.742734)" gradientUnits="userSpaceOnUse" xlink:href="#linearGradient34"/><linearGradient id="linearGradient3922" x1="-18" x2="-22" y1="18" y2="5" gradientTransform="matrix(0.85221122,0,0,0.85228409,-2.8500258,1.6945624)" gradientUnits="userSpaceOnUse" xlink:href="#linearGradient3836-9-3"/></defs><metadata id="metadata2874"/><g id="layer3" transform="translate(0.25)" style="display:inline"><g id="layer1" transform="matrix(0.97281291,0,0,0.95327622,0.83703092,1.7122066)" style="stroke-width:1.03843"><path id="path3074" d="M 53.461548,10.538449 C 59.387982,16.464891 54.583663,30.877887 42.730765,42.730775 30.877881,54.583663 16.464894,59.387996 10.538445,53.461552 4.6120104,47.535109 9.4163442,33.122113 21.269228,21.269225 33.122112,9.4163384 47.535099,4.6120059 53.461548,10.538449 Z" style="fill:none;stroke:#091425;stroke-width:8.30741;stroke-linecap:round;stroke-linejoin:miter;stroke-miterlimit:1.9;stroke-dasharray:none;stroke-opacity:1"/><path id="path3074-3" d="M 54.355791,9.6442195 C 60.529155,15.817597 55.794498,31.150152 43.44774,43.49691 31.100981,55.843668 15.817596,60.529161 9.6442166,54.355783 3.4708376,48.182406 8.1119216,33.076148 20.45868,20.72939 32.805438,8.3826321 48.182412,3.4708405 54.355791,9.6442195 Z" style="fill:#000;fill-opacity:0;stroke:url(#linearGradient3901);stroke-width:2.07685;stroke-linecap:round;stroke-linejoin:miter;stroke-miterlimit:1.9;stroke-dasharray:none;stroke-opacity:1"/><path id="path3074-3-6" d="M 53.094563,10.905431 C 58.505276,16.316146 53.628895,30.424921 41.978678,42.07513 30.328476,53.725339 16.316143,58.505285 10.90543,53.09457 5.4947165,47.683854 10.189395,33.945964 21.839598,22.295754 33.4898,10.645544 47.68385,5.494715 53.094563,10.905431 Z" style="fill:none;stroke:url(#linearGradient3903);stroke-width:2.07686;stroke-linecap:round;stroke-linejoin:miter;stroke-miterlimit:1.9;stroke-dasharray:none;stroke-opacity:1"/></g><g id="g26" transform="matrix(0.77869459,0,0,0.77869445,26.798173,44.097607)" style="stroke-width:1.2842"><path style="fill:none;stroke:#2e0000;stroke-width:2.56841;stroke-miterlimit:4;stroke-dasharray:none;stroke-opacity:1" id="path25" d="M -26.310778,5.3580033 A 8.3519646,8.3515832 0.02039876 1 1 -13.623399,16.222662 8.3519646,8.3515832 0.02039876 1 1 -26.310778,5.3580033 Z"/><path style="fill:url(#linearGradient26);fill-opacity:1;stroke:#ef2929;stroke-width:2.56842;stroke-miterlimit:4;stroke-dasharray:none;stroke-opacity:1" id="path26" d="m -24.358888,7.0362241 a 5.782493,5.7773415 0 1 1 8.784093,7.5158349 5.782493,5.7773415 0 0 1 -8.784093,-7.5158349 z"/></g><g id="g18" transform="matrix(0.77869459,0,0,0.77869445,36.298272,12.597758)" style="stroke-width:1.2842"><path style="fill:none;stroke:#2e0000;stroke-width:2.56841;stroke-miterlimit:4;stroke-dasharray:none;stroke-opacity:1" id="path17" d="M -26.310778,5.3580033 A 8.3519646,8.3515832 0.02039876 1 1 -13.623399,16.222662 8.3519646,8.3515832 0.02039876 1 1 -26.310778,5.3580033 Z"/><path style="fill:url(#linearGradient18);fill-opacity:1;stroke:#ef2929;stroke-width:2.56842;stroke-miterlimit:4;stroke-dasharray:none;stroke-opacity:1" id="path18" d="m -24.358888,7.0362241 a 5.782493,5.7773415 0 1 1 8.784093,7.5158349 5.782493,5.7773415 0 0 1 -8.784093,-7.5158349 z"/></g><g id="g29" transform="matrix(0.77869459,0,0,0.77869445,67.798355,3.0976485)" style="stroke-width:1.2842"><path style="fill:none;stroke:#2e0000;stroke-width:2.56841;stroke-miterlimit:4;stroke-dasharray:none;stroke-opacity:1" id="path28" d="M -26.310778,5.3580033 A 8.3519646,8.3515832 0.02039876 1 1 -13.623399,16.222662 8.3519646,8.3515832 0.02039876 1 1 -26.310778,5.3580033 Z"/><path style="fill:url(#linearGradient29);fill-opacity:1;stroke:#ef2929;stroke-width:2.56842;stroke-miterlimit:4;stroke-dasharray:none;stroke-opacity:1" id="path29" d="m -24.358888,7.0362241 a 5.782493,5.7773415 0 1 1 8.784093,7.5158349 5.782493,5.7773415 0 0 1 -8.784093,-7.5158349 z"/></g></g></svg>