<svg xmlns="http://www.w3.org/2000/svg" xmlns:svg="http://www.w3.org/2000/svg" xmlns:xlink="http://www.w3.org/1999/xlink" id="svg2869" width="64" height="64" version="1.1" viewBox="0 0 64 64"><defs id="defs2871"><linearGradient id="linearGradient5"><stop style="stop-color:#ef2929;stop-opacity:1" id="stop19" offset="0"/><stop style="stop-color:#ef2929;stop-opacity:0" id="stop20" offset="1"/></linearGradient><linearGradient id="swatch18"><stop style="stop-color:#ef2929;stop-opacity:1" id="stop18" offset="0"/></linearGradient><linearGradient id="swatch15"><stop style="stop-color:#3d0000;stop-opacity:1" id="stop15" offset="0"/></linearGradient><linearGradient id="linearGradient5-1"><stop style="stop-color:#ef2929;stop-opacity:1" id="stop5" offset="0"/><stop style="stop-color:#ef2929;stop-opacity:0" id="stop6" offset="1"/></linearGradient><linearGradient id="linearGradient3836-9"><stop style="stop-color:#a40000;stop-opacity:1" id="stop3838-8" offset="0"/><stop style="stop-color:#ef2929;stop-opacity:1" id="stop3840-1" offset="1"/></linearGradient><linearGradient id="linearGradient3836-9-3"><stop style="stop-color:#a40000;stop-opacity:1" id="stop3838-8-5" offset="0"/><stop style="stop-color:#ef2929;stop-opacity:1" id="stop3840-1-6" offset="1"/></linearGradient><linearGradient id="linearGradient3082" x1="-18" x2="-22" y1="18" y2="5" gradientUnits="userSpaceOnUse" xlink:href="#linearGradient3836-9-3"/><linearGradient id="linearGradient3836-9-7"><stop style="stop-color:#a40000;stop-opacity:1" id="stop3838-8-0" offset="0"/><stop style="stop-color:#ef2929;stop-opacity:1" id="stop3840-1-9" offset="1"/></linearGradient><linearGradient id="linearGradient3082-3" x1="-18" x2="-22" y1="18" y2="5" gradientUnits="userSpaceOnUse" xlink:href="#linearGradient3836-9-7"/><linearGradient id="linearGradient3801-1-3" x1="-18" x2="-22" y1="18" y2="5" gradientTransform="matrix(0.76342439,0,0,0.75750425,-4.596389,2.7525637)" gradientUnits="userSpaceOnUse" xlink:href="#linearGradient3836-9-3"/><linearGradient id="linearGradient3801-1-3-2" x1="-18" x2="-22" y1="18" y2="5" gradientTransform="matrix(0.84956703,0,0,0.84301394,-2.927337,1.7790378)" gradientUnits="userSpaceOnUse" xlink:href="#linearGradient3836-9-3"/><linearGradient id="linearGradient34" x1="-18" x2="-22" y1="18" y2="5" gradientTransform="matrix(0.82607043,0,0,0.82533448,-4.0098079,1.346708)" gradientUnits="userSpaceOnUse" xlink:href="#linearGradient3836-9-3"/><linearGradient id="linearGradient3844" x1="36" x2="32" y1="1039.362" y2="1003.362" gradientTransform="translate(2.0563921e-6,-988.36218)" gradientUnits="userSpaceOnUse" xlink:href="#linearGradient3838"/><linearGradient id="linearGradient3838"><stop style="stop-color:#d3d7cf;stop-opacity:1" id="stop3840" offset="0"/><stop style="stop-color:#fff;stop-opacity:1" id="stop3842" offset="1"/></linearGradient><linearGradient id="linearGradient3836" x1="36" x2="32" y1="1037.362" y2="1005.362" gradientTransform="translate(2.0563921e-6,-988.36218)" gradientUnits="userSpaceOnUse" xlink:href="#linearGradient3830"/><linearGradient id="linearGradient3830"><stop style="stop-color:#fff;stop-opacity:1" id="stop3832" offset="0"/><stop style="stop-color:#d3d7cf;stop-opacity:1" id="stop3834" offset="1"/></linearGradient><linearGradient id="linearGradient-1" x1="10.504" x2="5.935" y1="16.487" y2="1.636" gradientTransform="scale(0.99999018,1.0000098)" gradientUnits="userSpaceOnUse"><stop id="stop6-9" offset="0%" stop-color="#A40000"/><stop id="stop8" offset="100%" stop-color="#EF2929"/></linearGradient><linearGradient id="linearGradient3856" x1="80" x2="79" y1="58" y2="42" gradientUnits="userSpaceOnUse" xlink:href="#linearGradient3815"/><linearGradient id="linearGradient3815"><stop style="stop-color:#3465a4;stop-opacity:1" id="stop3817" offset="0"/><stop style="stop-color:#729fcf;stop-opacity:1" id="stop3819" offset="1"/></linearGradient><linearGradient id="linearGradient3858" x1="109" x2="105" y1="51" y2="38" gradientUnits="userSpaceOnUse" xlink:href="#linearGradient3841"/><linearGradient id="linearGradient3841"><stop style="stop-color:#204a87;stop-opacity:1" id="stop3843" offset="0"/><stop style="stop-color:#3465a4;stop-opacity:1" id="stop3845" offset="1"/></linearGradient><linearGradient id="linearGradient3898" x1="-18" x2="-22" y1="18" y2="5" gradientTransform="matrix(0.77114848,0,0,0.77113937,-4.4090973,2.5859051)" gradientUnits="userSpaceOnUse" xlink:href="#linearGradient3836-9-3"/><linearGradient id="linearGradient3978" x1="-15" x2="-19" y1="37" y2="37" gradientTransform="rotate(135.18861,5.7426909,37.969029)" gradientUnits="userSpaceOnUse" xlink:href="#linearGradient3815"/><linearGradient id="linearGradient28" x1="-18" x2="-22" y1="18" y2="5" gradientTransform="matrix(0.82607043,0,0,0.82533448,-4.0098079,1.346708)" gradientUnits="userSpaceOnUse" xlink:href="#linearGradient3836-9-3"/><linearGradient id="linearGradient30" x1="-18" x2="-22" y1="18" y2="5" gradientTransform="matrix(0.82607043,0,0,0.82533448,-4.0098079,1.346708)" gradientUnits="userSpaceOnUse" xlink:href="#linearGradient3836-9-3"/></defs><metadata id="metadata2874"/><g id="layer3" style="display:inline"><g id="g34" transform="matrix(0.77869459,0,0,0.77869445,27.054208,3.1036616)" style="stroke-width:1.2842"><path style="fill:none;stroke:#2e0000;stroke-width:2.56841;stroke-miterlimit:4;stroke-dasharray:none;stroke-opacity:1" id="path33" d="M -26.310778,5.3580033 A 8.3519646,8.3515832 0.02039876 1 1 -13.623399,16.222662 8.3519646,8.3515832 0.02039876 1 1 -26.310778,5.3580033 Z"/><path style="fill:url(#linearGradient34);fill-opacity:1;stroke:#ef2929;stroke-width:2.56842;stroke-miterlimit:4;stroke-dasharray:none;stroke-opacity:1" id="path34" d="m -24.358888,7.0362241 a 5.782493,5.7773415 0 1 1 8.784093,7.5158349 5.782493,5.7773415 0 0 1 -8.784093,-7.5158349 z"/></g><g id="layer1"><path id="path5287" d="m 15.908118,53.33451 -4.242641,-4.242639 15.426522,-15.426877 4.243,4.243001 z" style="fill:#d3d7cf;stroke:#151819;stroke-width:2;stroke-linecap:butt;stroke-linejoin:miter;stroke-opacity:1"/><path style="fill:none;stroke:#fff;stroke-width:2;stroke-linecap:butt;stroke-linejoin:miter;stroke-opacity:1" id="path3063" d="M 14.002006,49.583775 27.584002,36.001999"/><path style="fill:#d3d7cf;stroke:#151819;stroke-width:2;stroke-linecap:butt;stroke-linejoin:miter;stroke-opacity:1" id="path3061" d="M 37.908,31.334995 33.665,27.091993 54.091883,6.6654658 58.334523,10.908105 Z"/><path style="fill:#fff;stroke:#fff;stroke-width:2;stroke-linecap:butt;stroke-linejoin:miter;stroke-opacity:1;fill-opacity:1" id="path3063-1" d="M 36.002003,27.583999 54.584004,9.002"/><path style="fill:url(#linearGradient3978);fill-opacity:1;stroke:#0b1521;stroke-width:2;stroke-linecap:butt;stroke-linejoin:round;stroke-opacity:1" id="path3941" d="m 16.912488,19.78097 2.837723,-2.819103 5.638202,5.675446 2.837723,-2.819101 0.676843,9.194666 -9.19001,-0.737363 2.837721,-2.819101 z"/></g><g id="g28" transform="matrix(0.77869459,0,0,0.77869445,69.968134,2.5209313)" style="stroke-width:1.2842"><path style="fill:none;stroke:#2e0000;stroke-width:2.56841;stroke-miterlimit:4;stroke-dasharray:none;stroke-opacity:1" id="path27" d="M -26.310778,5.3580033 A 8.3519646,8.3515832 0.02039876 1 1 -13.623399,16.222662 8.3519646,8.3515832 0.02039876 1 1 -26.310778,5.3580033 Z"/><path style="fill:url(#linearGradient28);fill-opacity:1;stroke:#ef2929;stroke-width:2.56842;stroke-miterlimit:4;stroke-dasharray:none;stroke-opacity:1" id="path28" d="m -24.358888,7.0362241 a 5.782493,5.7773415 0 1 1 8.784093,7.5158349 5.782493,5.7773415 0 0 1 -8.784093,-7.5158349 z"/></g><g id="g30" transform="matrix(0.77869459,0,0,0.77869445,26.546194,45.098068)" style="stroke-width:1.2842"><path style="fill:none;stroke:#2e0000;stroke-width:2.56841;stroke-miterlimit:4;stroke-dasharray:none;stroke-opacity:1" id="path29" d="M -26.310778,5.3580033 A 8.3519646,8.3515832 0.02039876 1 1 -13.623399,16.222662 8.3519646,8.3515832 0.02039876 1 1 -26.310778,5.3580033 Z"/><path style="fill:url(#linearGradient30);fill-opacity:1;stroke:#ef2929;stroke-width:2.56842;stroke-miterlimit:4;stroke-dasharray:none;stroke-opacity:1" id="path30" d="m -24.358888,7.0362241 a 5.782493,5.7773415 0 1 1 8.784093,7.5158349 5.782493,5.7773415 0 0 1 -8.784093,-7.5158349 z"/></g></g></svg>